<?xml version="1.0" encoding="UTF-8"?>
<svg xmlns="http://www.w3.org/2000/svg" width="20" height="20" viewBox="0 0 20 20" fill="none">
  <g clip-path="url(#clip0_16667_117403)">
    <path d="M2.53605 18.9496C2.5673 18.7371 2.6173 18.4246 2.67355 18.1058C2.8173 17.2433 2.96105 16.3746 3.1048 15.5121C3.13605 15.3371 3.1548 15.1621 3.1923 14.9871C3.21105 14.9058 3.1923 14.8621 3.13605 14.8058C2.19855 13.8808 1.26105 12.9621 0.323554 12.0371C-0.00144599 11.7183 -0.082696 11.3246 0.098554 10.9371C0.242304 10.6246 0.511054 10.4871 0.829804 10.4371C1.48605 10.3308 2.1423 10.2308 2.8048 10.1246C3.4548 10.0246 4.09855 9.92456 4.74855 9.82456C4.82355 9.81206 4.8673 9.78081 4.89855 9.71206C5.47355 8.53706 6.04855 7.36206 6.62355 6.18706C6.87355 5.68081 7.4423 5.48081 7.93605 5.72456C8.13605 5.82456 8.2548 5.99956 8.34855 6.19331C8.93605 7.36206 9.52355 8.53081 10.1048 9.69956C10.1423 9.77456 10.1923 9.81206 10.2736 9.82456C11.5486 10.0183 12.8236 10.2183 14.0986 10.4121C14.3923 10.4558 14.6486 10.5621 14.8298 10.8058C15.0673 11.1246 15.0673 11.5371 14.8173 11.8683C14.7673 11.9308 14.7173 11.9933 14.6611 12.0496C13.7298 12.9683 12.8048 13.8871 11.8736 14.7996C11.8236 14.8496 11.8048 14.8996 11.8173 14.9746C11.9986 16.0496 12.1736 17.1246 12.3486 18.1933C12.3923 18.4621 12.4361 18.7371 12.4673 19.0058C12.5423 19.6433 11.8423 20.1933 11.2423 19.9121C10.8423 19.7246 10.4548 19.5121 10.0673 19.3058C9.2423 18.8746 8.42355 18.4371 7.59855 18.0058C7.5298 17.9683 7.4798 17.9683 7.41105 18.0058C6.2548 18.6183 5.0923 19.2308 3.9298 19.8433C3.66105 19.9871 3.38605 20.0621 3.0923 19.9183C2.7423 19.7496 2.52355 19.4621 2.53605 18.9433V18.9496Z" fill="#222533"></path>
    <path d="M13.1321 0C13.3134 0 13.4509 0.1 13.5071 0.2875C13.6821 0.86875 13.8509 1.45 14.0134 2.0375C14.0446 2.15 14.1009 2.20625 14.2134 2.2375C14.7634 2.3875 15.3071 2.55 15.8509 2.7125C15.8884 2.725 15.9321 2.7375 15.9696 2.75C16.1571 2.81875 16.2446 2.93125 16.2446 3.11875C16.2446 3.3125 16.1634 3.4375 15.9634 3.49375C15.3696 3.675 14.7821 3.84375 14.1884 4.0125C14.0946 4.0375 14.0446 4.08125 14.0196 4.18125C13.8634 4.74375 13.7009 5.3 13.5321 5.8625C13.5009 5.9625 13.4571 6.08125 13.3821 6.15C13.1634 6.35 12.8384 6.25 12.7509 5.96875C12.5759 5.36875 12.3946 4.7625 12.2259 4.1625C12.2071 4.09375 12.1696 4.05625 12.1009 4.0375C11.5134 3.86875 10.9259 3.7 10.3446 3.525C10.0759 3.44375 9.98213 3.30625 10.0196 3.04375C10.0384 2.9 10.1259 2.8125 10.2571 2.76875C10.6196 2.65625 10.9821 2.55 11.3446 2.44375C11.5946 2.36875 11.8509 2.29375 12.1071 2.225C12.1759 2.20625 12.2071 2.175 12.2259 2.10625C12.4009 1.5 12.5759 0.89375 12.7571 0.2875C12.8071 0.09375 12.9446 0 13.1321 0Z" fill="#222533"></path>
    <path d="M19.9995 8.75015C19.9995 8.9064 19.9182 9.01265 19.7432 9.06265C19.5057 9.1314 19.262 9.20015 19.0245 9.2689C18.7932 9.3314 18.562 9.40015 18.3307 9.46265C18.262 9.4814 18.2307 9.5189 18.212 9.58765C18.087 10.0439 17.9557 10.5001 17.8307 10.9626C17.762 11.1939 17.612 11.2876 17.4057 11.2314C17.2745 11.1939 17.2182 11.0939 17.187 10.9751C17.0557 10.5189 16.9245 10.0626 16.7995 9.6064C16.7745 9.5189 16.737 9.4814 16.6557 9.4564C16.1932 9.3314 15.737 9.20015 15.2745 9.06265C15.0682 9.00015 14.987 8.87515 15.0245 8.67515C15.0495 8.53765 15.1432 8.4689 15.2682 8.4314C15.5057 8.36265 15.7432 8.2939 15.9807 8.2314C16.212 8.1689 16.4432 8.10015 16.6745 8.03765C16.7495 8.0189 16.7807 7.98765 16.7995 7.91265C16.9245 7.45015 17.062 6.9814 17.1932 6.5189C17.2557 6.2939 17.412 6.2064 17.6182 6.26265C17.7557 6.3064 17.8057 6.4189 17.8432 6.53765C17.9682 6.98765 18.0995 7.43765 18.2182 7.88765C18.2432 7.9689 18.2807 8.01265 18.3682 8.0314C18.8182 8.15015 19.2682 8.2814 19.7245 8.4064C19.9182 8.46265 20.0182 8.57515 20.0182 8.73765L19.9995 8.75015Z" fill="#222533"></path>
  </g>
  <defs>
    <clipPath id="clip0_16667_117403">
      <rect width="20" height="20" fill="white"></rect>
    </clipPath>
  </defs>
</svg>
