<svg xmlns="http://www.w3.org/2000/svg" width="194" height="61" viewBox="0 0 194 61" fill="none"><rect x="0.75" y="0.75" width="192" height="59.5" rx="8.25" fill="black"></rect><rect x="0.75" y="0.75" width="192" height="59.5" rx="8.25" stroke="#A6A6A6" stroke-width="1.5"></rect><path d="M34.7072 29.6925L20.1344 45.5089C20.1358 45.5117 20.1358 45.5159 20.1371 45.5187C20.5847 47.2361 22.1177 48.5 23.9381 48.5C24.6663 48.5 25.3492 48.2984 25.9351 47.9457L25.9816 47.9177L42.3844 38.239L34.7072 29.6925Z" fill="#EA4335"></path><path d="M49.4496 26.9993L49.4359 26.9895L42.3542 22.7918L34.3759 30.052L42.3829 38.2373L49.4264 34.0817C50.661 33.3986 51.5 32.0675 51.5 30.5335C51.5 29.0078 50.6733 27.6837 49.4496 26.9993Z" fill="#FBBC04"></path><path d="M20.1341 15.49C20.0465 15.8203 20 16.1674 20 16.5257V44.4745C20 44.8328 20.0465 45.18 20.1355 45.5089L35.2079 30.097L20.1341 15.49Z" fill="#4285F4"></path><path d="M34.8149 30.4999L42.3565 22.789L25.9729 13.0753C25.3775 12.71 24.6822 12.5 23.939 12.5C22.1186 12.5 20.5829 13.7667 20.1353 15.4855C20.1353 15.4869 20.1339 15.4883 20.1339 15.4897L34.8149 30.4999Z" fill="#34A853"></path><path d="M73.915 17.065C73.915 18.565 73.47 19.76 72.58 20.65C71.58 21.71 70.265 22.24 68.635 22.24C67.075 22.24 65.755 21.7 64.675 20.62C63.595 19.54 63.055 18.21 63.055 16.63C63.055 15.05 63.595 13.72 64.675 12.64C65.755 11.56 67.075 11.02 68.635 11.02C69.425 11.02 70.17 11.16 70.87 11.44C71.57 11.72 72.145 12.115 72.595 12.625L71.605 13.615C71.275 13.215 70.845 12.905 70.315 12.685C69.795 12.455 69.235 12.34 68.635 12.34C67.465 12.34 66.475 12.745 65.665 13.555C64.865 14.375 64.465 15.4 64.465 16.63C64.465 17.86 64.865 18.885 65.665 19.705C66.475 20.515 67.465 20.92 68.635 20.92C69.705 20.92 70.595 20.62 71.305 20.02C72.015 19.42 72.425 18.595 72.535 17.545H68.635V16.255H73.84C73.89 16.535 73.915 16.805 73.915 17.065ZM81.8617 11.26V12.58H76.9717V15.985H81.3817V17.275H76.9717V20.68H81.8617V22H75.5917V11.26H81.8617ZM87.3816 12.58V22H86.0016V12.58H83.0016V11.26H90.3816V12.58H87.3816ZM96.4981 22H95.1181V11.26H96.4981V22ZM102.323 12.58V22H100.943V12.58H97.943V11.26H105.323V12.58H102.323ZM120.282 16.63C120.282 18.22 119.752 19.55 118.692 20.62C117.622 21.7 116.312 22.24 114.762 22.24C113.202 22.24 111.892 21.7 110.832 20.62C109.772 19.55 109.242 18.22 109.242 16.63C109.242 15.04 109.772 13.71 110.832 12.64C111.892 11.56 113.202 11.02 114.762 11.02C116.322 11.02 117.632 11.565 118.692 12.655C119.752 13.725 120.282 15.05 120.282 16.63ZM110.652 16.63C110.652 17.87 111.042 18.895 111.822 19.705C112.612 20.515 113.592 20.92 114.762 20.92C115.932 20.92 116.907 20.515 117.687 19.705C118.477 18.905 118.872 17.88 118.872 16.63C118.872 15.38 118.477 14.355 117.687 13.555C116.907 12.745 115.932 12.34 114.762 12.34C113.592 12.34 112.612 12.745 111.822 13.555C111.042 14.365 110.652 15.39 110.652 16.63ZM123.29 22H121.91V11.26H123.59L128.81 19.615H128.87L128.81 17.545V11.26H130.19V22H128.75L123.29 13.24H123.23L123.29 15.31V22Z" fill="white"></path><path d="M148.777 47.6145H151.22V31.0972H148.777V47.6145ZM170.783 37.0469L167.982 44.2082H167.899L164.992 37.0469H162.36L166.719 47.0556L164.235 52.6234H166.782L173.5 37.0469H170.783ZM156.928 45.7383C156.126 45.7383 155.011 45.3353 155.011 44.3351C155.011 43.0614 156.4 42.5725 157.601 42.5725C158.674 42.5725 159.181 42.8064 159.833 43.1248C159.643 44.6548 158.338 45.7383 156.928 45.7383ZM157.222 36.6862C155.453 36.6862 153.62 37.4724 152.864 39.2151L155.032 40.1281C155.495 39.2151 156.358 38.9165 157.264 38.9165C158.528 38.9165 159.812 39.6815 159.833 41.0425V41.2116C159.391 40.9566 158.444 40.5747 157.285 40.5747C154.948 40.5747 152.568 41.8709 152.568 44.2928C152.568 46.5033 154.485 47.9276 156.632 47.9276C158.275 47.9276 159.181 47.1837 159.749 46.3117H159.833V47.5867H162.191V41.2539C162.191 38.322 160.023 36.6862 157.222 36.6862ZM142.123 39.0579H138.648V33.3962H142.123C143.95 33.3962 144.987 34.9223 144.987 36.2264C144.987 37.5067 143.95 39.0579 142.123 39.0579ZM142.06 31.0972H136.206V47.6145H138.648V41.3569H142.06C144.768 41.3569 147.43 39.3777 147.43 36.2264C147.43 33.0752 144.768 31.0972 142.06 31.0972ZM110.137 45.7409C108.45 45.7409 107.037 44.3153 107.037 42.3571C107.037 40.3779 108.45 38.9297 110.137 38.9297C111.804 38.9297 113.111 40.3779 113.111 42.3571C113.111 44.3153 111.804 45.7409 110.137 45.7409ZM112.943 37.9718H112.858C112.31 37.3125 111.256 36.7166 109.927 36.7166C107.142 36.7166 104.59 39.1847 104.59 42.3571C104.59 45.507 107.142 47.9554 109.927 47.9554C111.256 47.9554 112.31 47.3595 112.858 46.6777H112.943V47.4876C112.943 49.6374 111.804 50.7869 109.969 50.7869C108.471 50.7869 107.542 49.7008 107.163 48.7851L105.032 49.6796C105.644 51.17 107.269 53 109.969 53C112.837 53 115.263 51.2969 115.263 47.1467V37.0562H112.943V37.9718ZM116.951 47.6145H119.398V31.0959H116.951V47.6145ZM123.004 42.1655C122.941 39.9947 124.671 38.8875 125.915 38.8875C126.886 38.8875 127.709 39.3763 127.982 40.0792L123.004 42.1655ZM130.598 40.292C130.135 39.0368 128.721 36.7166 125.831 36.7166C122.962 36.7166 120.579 38.9932 120.579 42.336C120.579 45.4859 122.941 47.9554 126.105 47.9554C128.658 47.9554 130.135 46.3804 130.746 45.4648L128.848 44.1871C128.215 45.1239 127.35 45.7409 126.105 45.7409C124.861 45.7409 123.974 45.1662 123.405 44.0391L130.851 40.9301L130.598 40.292ZM71.2751 38.4409V40.8244H76.9275C76.7586 42.1655 76.3161 43.1446 75.6418 43.8251C74.8182 44.6561 73.5311 45.5718 71.2751 45.5718C67.7936 45.5718 65.0728 42.7403 65.0728 39.2283C65.0728 35.7151 67.7936 32.8849 71.2751 32.8849C73.1527 32.8849 74.5236 33.6301 75.5357 34.588L77.2025 32.906C75.7884 31.5438 73.9121 30.5 71.2751 30.5C66.5079 30.5 62.5 34.4176 62.5 39.2283C62.5 44.0391 66.5079 47.9554 71.2751 47.9554C73.848 47.9554 75.7884 47.1031 77.3072 45.507C78.8693 43.9321 79.3537 41.7189 79.3537 39.9299C79.3537 39.3763 79.3118 38.8663 79.2267 38.4409H71.2751ZM85.7812 45.7409C84.0935 45.7409 82.6375 44.3364 82.6375 42.336C82.6375 40.3131 84.0935 38.9297 85.7812 38.9297C87.4677 38.9297 88.9236 40.3131 88.9236 42.336C88.9236 44.3364 87.4677 45.7409 85.7812 45.7409ZM85.7812 36.7166C82.7004 36.7166 80.1904 39.079 80.1904 42.336C80.1904 45.5718 82.7004 47.9554 85.7812 47.9554C88.8608 47.9554 91.3708 45.5718 91.3708 42.336C91.3708 39.079 88.8608 36.7166 85.7812 36.7166ZM97.9751 45.7409C96.2873 45.7409 94.8314 44.3364 94.8314 42.336C94.8314 40.3131 96.2873 38.9297 97.9751 38.9297C99.6628 38.9297 101.117 40.3131 101.117 42.336C101.117 44.3364 99.6628 45.7409 97.9751 45.7409ZM97.9751 36.7166C94.8955 36.7166 92.3855 39.079 92.3855 42.336C92.3855 45.5718 94.8955 47.9554 97.9751 47.9554C101.055 47.9554 103.565 45.5718 103.565 42.336C103.565 39.079 101.055 36.7166 97.9751 36.7166Z" fill="white"></path></svg>