<?xml version="1.0" encoding="UTF-8"?>
<svg xmlns="http://www.w3.org/2000/svg" width="139" height="43" viewBox="0 0 139 43" fill="none">
  <path d="M36.792 19.011L29.5656 14.8389C27.9549 13.9087 25.9408 15.0716 25.9408 16.9312V25.2747C25.9408 27.135 27.9541 28.2971 29.5656 27.367L36.792 23.1948C38.4026 22.2646 38.4026 19.9396 36.792 19.0095V19.011Z" fill="url(#paint0_linear_1059_91379)"></path>
  <path d="M13.2431 30.0356H0V34.1651C0 38.7298 4.94222 41.5831 8.89599 39.3007L18.311 33.8656C17.6787 31.6616 15.6436 30.0356 13.2439 30.0356H13.2431Z" fill="url(#paint1_linear_1059_91379)"></path>
  <path d="M13.2431 15.8296H0V26.3771H13.2431C16.1441 26.3771 18.5174 24.0039 18.5174 21.1033C18.5174 18.2027 16.1441 15.8296 13.2431 15.8296Z" fill="url(#paint2_linear_1059_91379)"></path>
  <path d="M8.896 2.90652C4.94222 0.624178 0 3.47749 0 8.04218V11.9855H13.337C15.6568 11.9855 17.6329 10.4401 18.2878 8.32844L8.896 2.90652Z" fill="url(#paint3_linear_1059_91379)"></path>
  <path d="M54.6169 31.3695C53.1099 31.3695 51.718 31.1834 50.4414 30.811C49.1826 30.421 48.101 29.8891 47.1968 29.2153L48.2606 26.5292C48.8634 26.9547 49.4929 27.3182 50.1489 27.6196C50.8049 27.9033 51.5053 28.1249 52.2499 28.2845C52.9946 28.4263 53.7836 28.4972 54.6169 28.4972C56.0176 28.4972 57.0283 28.2667 57.6488 27.8057C58.2694 27.3448 58.5797 26.7419 58.5797 25.9972C58.5797 25.3412 58.3669 24.8448 57.9414 24.5079C57.5158 24.1533 56.7534 23.8607 55.6542 23.6303L52.6489 23.0186C50.929 22.664 49.6436 22.07 48.7925 21.2367C47.9415 20.4033 47.5159 19.2863 47.5159 17.8856C47.5159 16.7154 47.8262 15.6959 48.4468 14.8272C49.0673 13.9584 49.9361 13.2846 51.0531 12.8059C52.1701 12.3272 53.4733 12.0878 54.9627 12.0878C56.2924 12.0878 57.5247 12.2829 58.6594 12.6729C59.7942 13.0453 60.7427 13.586 61.5052 14.2952L60.4413 16.8484C59.6789 16.2101 58.8456 15.7403 57.9414 15.4389C57.0371 15.1197 56.0265 14.9601 54.9095 14.9601C53.6506 14.9601 52.6666 15.2084 51.9574 15.7048C51.2659 16.1835 50.9202 16.8484 50.9202 17.6995C50.9202 18.3555 51.1329 18.8785 51.5585 19.2686C52.0017 19.6587 52.7464 19.9601 53.7925 20.1728L56.7712 20.7579C58.5442 21.1125 59.8562 21.6976 60.7073 22.5132C61.5583 23.3111 61.9839 24.3927 61.9839 25.7579C61.9839 26.8749 61.6825 27.8589 61.0796 28.71C60.4768 29.5433 59.6257 30.1993 58.5265 30.678C57.4272 31.139 56.124 31.3695 54.6169 31.3695ZM64.4764 37.1407L63.7051 34.5078C64.5384 34.3305 65.2388 34.1266 65.8061 33.8961C66.3735 33.6656 66.8434 33.3642 67.2157 32.9919C67.588 32.6195 67.8983 32.1408 68.1465 31.5557L68.8114 29.9866L68.7316 31.2897L62.8806 17.6729H66.4178L70.6199 28.1515H69.8486L74.0773 17.6729H77.4284L71.3114 31.8482C70.9036 32.8057 70.4603 33.5947 69.9816 34.2152C69.5029 34.8535 68.9887 35.3589 68.4391 35.7312C67.8894 36.1213 67.2866 36.4227 66.6306 36.6354C65.9746 36.8482 65.2565 37.0166 64.4764 37.1407ZM79.1828 31.1036V11.5293H82.5073V31.1036H79.1828ZM86.1174 31.1036V11.5293H89.4418V31.1036H86.1174ZM98.2381 31.3695C97.0679 31.3695 96.0395 31.0947 95.153 30.5451C94.2665 29.9777 93.575 29.171 93.0785 28.1249C92.5821 27.0788 92.3339 25.8288 92.3339 24.3749C92.3339 22.921 92.5821 21.6799 93.0785 20.6516C93.575 19.6055 94.2665 18.8076 95.153 18.258C96.0395 17.6906 97.0679 17.4069 98.2381 17.4069C99.3728 17.4069 100.366 17.6906 101.217 18.258C102.086 18.8076 102.662 19.5523 102.945 20.492H102.653L102.945 17.6729H106.137C106.084 18.2225 106.031 18.781 105.977 19.3484C105.942 19.9158 105.924 20.4743 105.924 21.0239V31.1036H102.626L102.6 28.3376H102.919C102.635 29.2596 102.059 29.9954 101.19 30.5451C100.321 31.0947 99.3373 31.3695 98.2381 31.3695ZM99.1689 28.8164C100.215 28.8164 101.057 28.4529 101.695 27.726C102.334 26.9813 102.653 25.8643 102.653 24.3749C102.653 22.8856 102.334 21.7774 101.695 21.0505C101.057 20.3235 100.215 19.9601 99.1689 19.9601C98.1228 19.9601 97.2806 20.3235 96.6423 21.0505C96.004 21.7774 95.6849 22.8856 95.6849 24.3749C95.6849 25.8643 95.9952 26.9813 96.6157 27.726C97.254 28.4529 98.1051 28.8164 99.1689 28.8164ZM117.23 31.3695C116.096 31.3695 115.103 31.0947 114.252 30.5451C113.401 29.9777 112.833 29.2153 112.55 28.2579H112.842V31.1036H109.544V11.5293H112.869V20.4122H112.55C112.851 19.4902 113.427 18.7633 114.278 18.2314C115.129 17.6817 116.113 17.4069 117.23 17.4069C118.418 17.4069 119.455 17.6906 120.342 18.258C121.229 18.8253 121.92 19.6321 122.416 20.6782C122.913 21.7065 123.161 22.9476 123.161 24.4015C123.161 25.8554 122.913 27.1054 122.416 28.1515C121.92 29.1798 121.22 29.9777 120.315 30.5451C119.429 31.0947 118.401 31.3695 117.23 31.3695ZM116.299 28.8164C117.346 28.8164 118.188 28.4529 118.826 27.726C119.482 26.999 119.81 25.8909 119.81 24.4015C119.81 22.9122 119.482 21.804 118.826 21.0771C118.188 20.3324 117.346 19.9601 116.299 19.9601C115.253 19.9601 114.411 20.3235 113.773 21.0505C113.135 21.7774 112.815 22.8856 112.815 24.3749C112.815 25.8643 113.135 26.9813 113.773 27.726C114.411 28.4529 115.253 28.8164 116.299 28.8164ZM125.511 37.1407L124.74 34.5078C125.573 34.3305 126.273 34.1266 126.841 33.8961C127.408 33.6656 127.878 33.3642 128.25 32.9919C128.623 32.6195 128.933 32.1408 129.181 31.5557L129.846 29.9866L129.766 31.2897L123.915 17.6729H127.452L131.654 28.1515H130.883L135.112 17.6729H138.463L132.346 31.8482C131.938 32.8057 131.495 33.5947 131.016 34.2152C130.537 34.8535 130.023 35.3589 129.474 35.7312C128.924 36.1213 128.321 36.4227 127.665 36.6354C127.009 36.8482 126.291 37.0166 125.511 37.1407Z" fill="#120338"></path>
  <defs>
    <linearGradient id="paint0_linear_1059_91379" x1="4.46115" y1="46.5248" x2="36.213" y2="14.7697" gradientUnits="userSpaceOnUse">
      <stop stop-color="#0091FF"></stop>
      <stop offset="1" stop-color="#55279A"></stop>
    </linearGradient>
    <linearGradient id="paint1_linear_1059_91379" x1="-1.02491" y1="42.1292" x2="31.3639" y2="9.73715" gradientUnits="userSpaceOnUse">
      <stop stop-color="#0091FF"></stop>
      <stop offset="1" stop-color="#55279A"></stop>
    </linearGradient>
    <linearGradient id="paint2_linear_1059_91379" x1="-7.17204" y1="35.9835" x2="25.2175" y2="3.59144" gradientUnits="userSpaceOnUse">
      <stop stop-color="#0091FF"></stop>
      <stop offset="1" stop-color="#55279A"></stop>
    </linearGradient>
    <linearGradient id="paint3_linear_1059_91379" x1="-13.3192" y1="29.8369" x2="19.0696" y2="-2.55517" gradientUnits="userSpaceOnUse">
      <stop stop-color="#0091FF"></stop>
      <stop offset="1" stop-color="#55279A"></stop>
    </linearGradient>
  </defs>
</svg>
