<?xml version="1.0" encoding="UTF-8"?>
<svg xmlns="http://www.w3.org/2000/svg" width="22" height="21" viewBox="0 0 22 21" fill="none">
  <g clip-path="url(#clip0_16667_117412)">
    <path d="M17.184 8.91352C17.184 10.4759 16.7394 11.9812 15.9137 13.2895L14.6498 12.0256C14.3386 11.7144 13.9385 11.562 13.5384 11.562C13.1383 11.562 12.7381 11.7144 12.4269 12.0256C11.8109 12.6417 11.8109 13.6325 12.4269 14.2485L13.7543 15.576C12.3698 16.5604 10.7248 17.0939 9.00361 17.0939C4.50694 17.0939 0.835938 13.4229 0.835938 8.91352C0.835938 4.40415 4.50694 0.74585 9.00361 0.74585C13.5003 0.74585 17.184 4.41686 17.184 8.91352Z" fill="#222533"></path>
    <path d="M9.30338 2.3031C11.8058 1.99824 14.1748 3.67496 14.8035 6.08843C14.8861 6.32977 14.7591 6.58382 14.5177 6.66639C14.27 6.74895 13.9969 6.60288 13.9271 6.34883C13.4253 4.33549 11.4437 2.95092 9.3923 3.21132C8.80164 3.26848 8.71272 2.36661 9.30338 2.3031Z" fill="white"></path>
    <path d="M21.0328 19.7538C20.9566 19.9443 20.8423 20.1221 20.6835 20.2809C20.3786 20.5858 19.9849 20.7382 19.5911 20.7446C19.1846 20.7509 18.7718 20.5921 18.4606 20.2809L13.7543 15.5747L12.4269 14.2473C11.8108 13.6312 11.8108 12.6404 12.4269 12.0243C12.7381 11.7131 13.1382 11.5607 13.5384 11.5607C13.9385 11.5607 14.3386 11.7131 14.6498 12.0243L20.6835 18.058C21.1408 18.5153 21.2614 19.1885 21.0328 19.7538Z" fill="#222533"></path>
  </g>
  <defs>
    <clipPath id="clip0_16667_117412">
      <rect width="20.3112" height="20" fill="white" transform="translate(0.835938 0.744141)"></rect>
    </clipPath>
  </defs>
</svg>
