<?xml version="1.0" encoding="UTF-8"?>
<svg xmlns="http://www.w3.org/2000/svg" width="24" height="20" viewBox="0 0 24 20" fill="none">
  <g clip-path="url(#clip0_16667_117393)">
    <path d="M14.8146 5.3532C15.2862 4.97449 15.7506 4.60293 16.2151 4.23137C17.8228 2.94519 19.4377 1.65188 21.0454 0.358557C21.3455 0.122758 21.6813 -0.00585938 22.0672 -0.00585938C22.4316 -0.00585938 22.7317 0.158485 22.9818 0.401429C23.5177 0.930189 23.6392 1.7662 23.0175 2.40214C22.7531 2.67367 22.4387 2.90232 22.1386 3.14527C20.0236 4.83873 17.9157 6.52505 15.8006 8.21851C15.2219 8.68296 14.5359 8.6901 13.9428 8.24709C12.3851 7.08239 10.8274 5.91769 9.27688 4.74584C9.19828 4.68867 9.15541 4.70297 9.08396 4.76013C7.03322 6.38928 4.98249 8.02558 2.93176 9.64759C2.55305 9.9477 2.11718 10.0906 1.63844 9.9477C0.923898 9.73333 0.51661 9.13312 0.566628 8.42572C0.59521 8.01129 0.816717 7.67546 1.14541 7.41822C3.48195 5.54612 5.82565 3.67403 8.1622 1.80193C8.4766 1.54469 8.82672 1.38035 9.24115 1.41608C9.53412 1.43751 9.7985 1.55184 10.0271 1.72333C11.5848 2.90232 13.1354 4.08132 14.6931 5.26031C14.7288 5.28889 14.7646 5.31033 14.8074 5.33891L14.8146 5.3532Z" fill="#222533"></path>
    <path d="M7.71094 14.2782C7.71094 12.8777 7.71094 11.4772 7.71094 10.0767C7.71094 9.80518 7.73952 9.5408 7.87528 9.29786C8.15395 8.80483 8.58982 8.57617 9.14002 8.57617C9.76882 8.57617 10.2476 8.89771 10.4691 9.48364C10.5334 9.64798 10.5548 9.83376 10.5548 10.0053C10.5548 12.8563 10.5548 15.7073 10.5548 18.5512C10.5548 19.1014 10.3404 19.5515 9.84741 19.8159C9.07571 20.2303 7.93959 19.9374 7.73237 18.8584C7.71094 18.7298 7.71094 18.6012 7.71094 18.4654C7.71094 17.0649 7.71094 15.6716 7.71094 14.2711V14.2782Z" fill="#222533"></path>
    <path d="M19.1445 14.2925C19.1445 12.8849 19.1445 11.4844 19.1445 10.0767C19.1445 9.80518 19.1731 9.5408 19.3089 9.29786C19.5875 8.80483 20.0234 8.57617 20.5736 8.57617C21.2096 8.57617 21.6812 8.89772 21.9027 9.49078C21.967 9.65513 21.9884 9.84091 21.9884 10.0124C21.9884 12.8634 21.9884 15.7144 21.9884 18.5583C21.9884 19.1085 21.774 19.5587 21.281 19.8159C20.5093 20.2303 19.3732 19.9374 19.166 18.8584C19.1445 18.7298 19.1445 18.594 19.1445 18.4654C19.1445 17.0721 19.1445 15.6787 19.1445 14.2854V14.2925Z" fill="#222533"></path>
    <path d="M13.429 15.7149C13.429 14.786 13.429 13.8571 13.429 12.9282C13.429 12.6638 13.4576 12.3994 13.5934 12.1565C13.872 11.6634 14.3008 11.4348 14.8581 11.4276C15.4869 11.4276 15.9728 11.7492 16.1871 12.3351C16.2515 12.4995 16.2729 12.6924 16.2729 12.871C16.2729 14.7645 16.2729 16.6581 16.2729 18.5516C16.2729 19.0947 16.0657 19.5377 15.5798 19.8092C14.8152 20.2308 13.6577 19.9521 13.4505 18.866C13.429 18.7374 13.4219 18.6088 13.4219 18.473C13.4219 17.5513 13.4219 16.6295 13.4219 15.7077L13.429 15.7149Z" fill="#222533"></path>
    <path d="M1.99609 16.4373C1.99609 15.7442 1.99609 15.0511 1.99609 14.3508C1.99609 14.0793 2.02468 13.8221 2.16044 13.5791C2.43911 13.0861 2.87498 12.8574 3.42518 12.8574C4.06112 12.8574 4.53271 13.179 4.75422 13.772C4.81853 13.9364 4.83997 14.1222 4.83997 14.2936C4.83997 15.7156 4.83997 17.1375 4.83997 18.5523C4.83997 19.1025 4.6256 19.5527 4.13257 19.8099C3.36087 20.2243 2.22475 19.9314 2.01753 18.8524C1.99609 18.7309 1.99609 18.6023 1.99609 18.4737C1.99609 17.7878 1.99609 17.1089 1.99609 16.423V16.4373Z" fill="#222533"></path>
  </g>
  <defs>
    <clipPath id="clip0_16667_117393">
      <rect width="22.8653" height="20" fill="white" transform="translate(0.566406 -0.00585938)"></rect>
    </clipPath>
  </defs>
</svg>
