<svg xmlns="http://www.w3.org/2000/svg" width="199" height="61" viewBox="0 0 199 61" fill="none"><rect x="0.75" y="0.75" width="197.5" height="59.5" rx="8.25" fill="black"></rect><rect x="0.75" y="0.75" width="197.5" height="59.5" rx="8.25" stroke="#A6A6A6" stroke-width="1.5"></rect><path d="M45.0568 31.6447C45.075 30.2648 45.4504 28.9119 46.1481 27.7117C46.8458 26.5116 47.8431 25.5033 49.0472 24.7805C48.2823 23.7139 47.2731 22.8362 46.0999 22.217C44.9267 21.5978 43.6218 21.2542 42.2888 21.2135C39.4453 20.9221 36.6887 22.8746 35.2396 22.8746C33.7626 22.8746 31.5316 21.2424 29.1292 21.2906C27.5753 21.3397 26.0609 21.7808 24.7335 22.5711C23.4062 23.3615 22.3111 24.474 21.5551 25.8003C18.2803 31.3359 20.723 39.4714 23.8601 43.946C25.4296 46.1371 27.264 48.5845 29.6642 48.4977C32.0129 48.4026 32.8902 47.0355 35.7253 47.0355C38.5341 47.0355 39.3571 48.4977 41.8061 48.4426C44.3264 48.4026 45.9143 46.2418 47.4288 44.0299C48.5565 42.4687 49.4243 40.7432 50 38.9174C48.5358 38.3128 47.2862 37.3007 46.4072 36.0074C45.5281 34.7141 45.0585 33.1968 45.0568 31.6447Z" fill="white"></path><path d="M40.4312 18.2707C41.8054 16.6601 42.4824 14.59 42.3185 12.5C40.219 12.7153 38.2797 13.6949 36.887 15.2437C36.206 16.0003 35.6845 16.8805 35.3522 17.834C35.0199 18.7875 34.8833 19.7956 34.9503 20.8007C36.0004 20.8113 37.0392 20.589 37.9886 20.1508C38.938 19.7126 39.7732 19.0697 40.4312 18.2707Z" fill="white"></path><path d="M63.1865 13.0022H66.2913C68.9741 13.0022 70.2793 14.5974 70.2793 17.4912C70.2793 20.385 68.9609 22 66.2913 22H63.1865V13.0022ZM64.6829 14.2612V20.741H66.1265C67.9062 20.741 68.7434 19.6665 68.7434 17.511C68.7434 15.3423 67.8997 14.2612 66.1265 14.2612H64.6829ZM75.0122 14.9138C76.8315 14.9138 78.1038 16.0938 78.1038 18.0515V18.9546C78.1038 20.9783 76.8315 22.1187 75.0122 22.1187C73.1665 22.1187 71.9075 20.9915 71.9075 18.9612V18.0581C71.9075 16.1531 73.1863 14.9138 75.0122 14.9138ZM75.0188 16.0938C73.9773 16.0938 73.384 16.9639 73.384 18.1306V18.9084C73.384 20.0752 73.9377 20.9387 75.0188 20.9387C76.0867 20.9387 76.6338 20.0818 76.6338 18.9084V18.1306C76.6338 16.9639 76.0603 16.0938 75.0188 16.0938ZM88.8616 15.0325L87.0291 22H85.5393L84.0825 16.8584H84.043L82.6125 22H81.1162L79.2046 15.0325H80.78L81.9006 20.3455H81.9666L83.3706 15.0325H84.7483L86.1919 20.3455H86.2578L87.3982 15.0325H88.8616ZM90.3118 22V15.0325H91.7488V16.2849H91.8213C91.9993 15.7378 92.5068 14.927 93.9175 14.927C95.3215 14.927 96.2642 15.7048 96.2642 17.2935V22H94.8008V17.7219C94.8008 16.6606 94.2471 16.1729 93.4231 16.1729C92.342 16.1729 91.7751 17.0034 91.7751 18.1306V22H90.3118ZM98.479 22V12.5276H99.9424V22H98.479ZM104.979 14.9138C106.798 14.9138 108.07 16.0938 108.07 18.0515V18.9546C108.07 20.9783 106.798 22.1187 104.979 22.1187C103.133 22.1187 101.874 20.9915 101.874 18.9612V18.0581C101.874 16.1531 103.153 14.9138 104.979 14.9138ZM104.985 16.0938C103.944 16.0938 103.35 16.9639 103.35 18.1306V18.9084C103.35 20.0752 103.904 20.9387 104.985 20.9387C106.053 20.9387 106.6 20.0818 106.6 18.9084V18.1306C106.6 16.9639 106.027 16.0938 104.985 16.0938ZM111.86 22.1055C110.509 22.1055 109.58 21.2749 109.58 19.9763C109.58 18.7437 110.437 17.9131 112.045 17.9131H113.805V17.2605C113.805 16.4629 113.297 16.0872 112.493 16.0872C111.702 16.0872 111.346 16.4167 111.234 16.8782H109.843C109.929 15.7114 110.806 14.927 112.539 14.927C114.029 14.927 115.262 15.5466 115.262 17.2803V22H113.871V21.0969H113.805C113.495 21.6309 112.889 22.1055 111.86 22.1055ZM112.315 20.9717C113.146 20.9717 113.805 20.4048 113.805 19.6467V18.8953H112.276C111.425 18.8953 111.05 19.3237 111.05 19.9038C111.05 20.6289 111.656 20.9717 112.315 20.9717ZM119.771 14.9402C120.753 14.9402 121.504 15.3752 121.774 16.0806H121.847V12.5276H123.31V22H121.886V20.886H121.814C121.603 21.5913 120.766 22.0923 119.751 22.0923C118.149 22.0923 117.107 20.9519 117.107 19.1128V17.9197C117.107 16.0806 118.169 14.9402 119.771 14.9402ZM120.179 16.1399C119.204 16.1399 118.597 16.865 118.597 18.1306V18.8953C118.597 20.1675 119.21 20.8926 120.212 20.8926C121.201 20.8926 121.847 20.1741 121.847 18.9875V17.9329C121.847 16.8584 121.142 16.1399 120.179 16.1399ZM131.346 14.9138C133.165 14.9138 134.437 16.0938 134.437 18.0515V18.9546C134.437 20.9783 133.165 22.1187 131.346 22.1187C129.5 22.1187 128.241 20.9915 128.241 18.9612V18.0581C128.241 16.1531 129.52 14.9138 131.346 14.9138ZM131.352 16.0938C130.311 16.0938 129.718 16.9639 129.718 18.1306V18.9084C129.718 20.0752 130.271 20.9387 131.352 20.9387C132.42 20.9387 132.967 20.0818 132.967 18.9084V18.1306C132.967 16.9639 132.394 16.0938 131.352 16.0938ZM136.323 22V15.0325H137.76V16.2849H137.832C138.01 15.7378 138.518 14.927 139.928 14.927C141.332 14.927 142.275 15.7048 142.275 17.2935V22H140.812V17.7219C140.812 16.6606 140.258 16.1729 139.434 16.1729C138.353 16.1729 137.786 17.0034 137.786 18.1306V22H136.323ZM147.937 15.0786V13.3384H149.368V15.0786H150.93V16.2256H149.368V19.9236C149.368 20.6816 149.651 20.8926 150.436 20.8926C150.633 20.8926 150.897 20.8794 151.009 20.8662V21.9868C150.89 22.0066 150.403 22.0461 150.073 22.0461C148.379 22.0461 147.917 21.4397 147.917 20.0422V16.2256H146.856V15.0786H147.937ZM152.776 22V12.5276H154.232V16.2849H154.305C154.457 15.7905 155.023 14.927 156.421 14.927C157.779 14.927 158.748 15.7114 158.748 17.3V22H157.291V17.7285C157.291 16.6672 156.704 16.1729 155.874 16.1729C154.826 16.1729 154.232 16.9968 154.232 18.1306V22H152.776ZM163.659 22.1187C161.76 22.1187 160.58 20.9519 160.58 18.9875V18.0449C160.58 16.0674 161.872 14.9138 163.573 14.9138C165.32 14.9138 166.552 16.1267 166.552 18.0449V18.8623H162.031V19.2051C162.031 20.207 162.624 20.9453 163.652 20.9453C164.417 20.9453 164.944 20.5828 165.043 20.1477H166.473C166.388 20.9519 165.537 22.1187 163.659 22.1187ZM162.031 17.9065H165.122V17.8142C165.122 16.7661 164.509 16.0674 163.58 16.0674C162.65 16.0674 162.031 16.7661 162.031 17.8142V17.9065Z" fill="white"></path><path d="M65.3091 47H62.2637L68.46 29.0044H71.8086L77.9917 47H74.8276L73.2324 42.0166H66.9175L65.3091 47ZM70.1475 32.1157H70.0288L67.5898 39.7227H72.5601L70.1475 32.1157ZM86.3966 47.1978C84.5904 47.1978 83.2193 46.3408 82.481 45.062H82.3756V51.6274H79.4488V33.0649H82.2965V35.1084H82.4019C83.1666 33.7769 84.5904 32.8804 86.4625 32.8804C89.587 32.8804 91.815 35.2402 91.815 39.4062V40.6455C91.815 44.7852 89.6134 47.1978 86.3966 47.1978ZM85.7242 44.7852C87.5831 44.7852 88.8487 43.2954 88.8487 40.4873V39.5117C88.8487 36.8091 87.6622 35.2666 85.6715 35.2666C83.628 35.2666 82.3492 36.9277 82.3492 39.4985V40.4873C82.3492 43.124 83.6412 44.7852 85.7242 44.7852ZM101.275 47.1978C99.4684 47.1978 98.0973 46.3408 97.359 45.062H97.2536V51.6274H94.3268V33.0649H97.1745V35.1084H97.2799C98.0446 33.7769 99.4684 32.8804 101.34 32.8804C104.465 32.8804 106.693 35.2402 106.693 39.4062V40.6455C106.693 44.7852 104.491 47.1978 101.275 47.1978ZM100.602 44.7852C102.461 44.7852 103.727 43.2954 103.727 40.4873V39.5117C103.727 36.8091 102.54 35.2666 100.549 35.2666C98.506 35.2666 97.2272 36.9277 97.2272 39.4985V40.4873C97.2272 43.124 98.5192 44.7852 100.602 44.7852ZM112.758 42.0034H115.685C115.817 43.5591 117.188 44.8906 119.732 44.8906C122.066 44.8906 123.45 43.7964 123.45 42.0957C123.45 40.7246 122.527 39.9863 120.602 39.5249L117.649 38.7866C115.329 38.2461 113.246 36.8618 113.246 33.9351C113.246 30.4941 116.252 28.6089 119.745 28.6089C123.239 28.6089 126.153 30.4941 126.219 33.856H123.345C123.213 32.3267 122.039 31.061 119.706 31.061C117.649 31.061 116.252 32.0366 116.252 33.7109C116.252 34.8843 117.069 35.728 118.743 36.1104L121.683 36.8354C124.386 37.4946 126.443 38.7734 126.443 41.832C126.443 45.3652 123.582 47.356 119.508 47.356C114.498 47.356 112.824 44.4292 112.758 42.0034ZM130.009 33.0649V29.6768H132.883V33.0649H135.599V35.4116H132.883V42.8472C132.883 44.3633 133.45 44.7852 135.019 44.7852C135.269 44.7852 135.507 44.7852 135.678 44.7588V47C135.441 47.0396 134.887 47.0923 134.294 47.0923C130.906 47.0923 129.97 45.8794 129.97 43.0845V35.4116H128.045V33.0649H130.009ZM143.529 32.8276C147.537 32.8276 149.712 35.6489 149.712 39.4458V40.5664C149.712 44.4951 147.55 47.2373 143.529 47.2373C139.508 47.2373 137.32 44.4951 137.32 40.5664V39.4458C137.32 35.6621 139.521 32.8276 143.529 32.8276ZM143.529 35.1743C141.354 35.1743 140.273 36.9541 140.273 39.4854V40.5532C140.273 43.0449 141.341 44.8774 143.529 44.8774C145.718 44.8774 146.772 43.0581 146.772 40.5532V39.4854C146.772 36.9409 145.705 35.1743 143.529 35.1743ZM152.185 47V33.0649H155.111V34.8975H155.217C155.573 34.0273 156.614 32.8672 158.552 32.8672C158.935 32.8672 159.264 32.8936 159.541 32.9463V35.5303C159.291 35.4644 158.776 35.4248 158.289 35.4248C155.942 35.4248 155.151 36.875 155.151 38.7471V47H152.185ZM166.667 47.2373C162.936 47.2373 160.563 44.772 160.563 40.6455V39.2349C160.563 35.3457 162.883 32.8276 166.548 32.8276C170.266 32.8276 172.507 35.438 172.507 39.3667V40.6982H163.45V41.0278C163.45 43.3745 164.716 44.9302 166.707 44.9302C168.196 44.9302 169.212 44.1919 169.568 42.9922H172.349C171.927 45.2466 170.108 47.2373 166.667 47.2373ZM163.45 38.6548H169.647V38.6284C169.647 36.6509 168.421 35.0952 166.562 35.0952C164.676 35.0952 163.45 36.6509 163.45 38.6284V38.6548Z" fill="white"></path></svg>