<?xml version="1.0" encoding="UTF-8"?>
<svg xmlns="http://www.w3.org/2000/svg" width="417" height="800" viewBox="0 0 417 800" fill="none">
  <rect x="2.84479" y="2.4024" width="410.811" height="795.195" rx="26.4264" fill="white"></rect>
  <rect x="2.84479" y="2.4024" width="410.811" height="795.195" rx="26.4264" stroke="#E9EAEE" stroke-width="4.8048"></rect>
  <path d="M103.115 317V283.126H109.314V297.252H126.659V283.126H132.857V317H126.659V302.393H109.314V317H103.115ZM139.844 317V292.736H145.85V317H139.844ZM139.508 288.171V282.309H146.186V288.171H139.508ZM161.021 317.48C158.939 317.48 157.017 317.24 155.255 316.76C153.525 316.247 152.068 315.543 150.883 314.646L152.564 310.61C153.782 311.442 155.127 312.083 156.6 312.532C158.074 312.98 159.563 313.204 161.069 313.204C162.67 313.204 163.856 312.932 164.624 312.387C165.425 311.843 165.826 311.106 165.826 310.177C165.826 309.44 165.569 308.864 165.057 308.447C164.576 307.999 163.792 307.663 162.703 307.438L157.898 306.526C155.848 306.077 154.278 305.308 153.189 304.219C152.132 303.13 151.603 301.705 151.603 299.943C151.603 298.437 152.004 297.108 152.805 295.955C153.637 294.802 154.807 293.905 156.312 293.264C157.85 292.592 159.643 292.255 161.693 292.255C163.487 292.255 165.169 292.495 166.739 292.976C168.34 293.456 169.685 294.177 170.775 295.138L169.045 299.03C168.052 298.229 166.915 297.605 165.633 297.156C164.352 296.708 163.103 296.483 161.886 296.483C160.22 296.483 159.003 296.788 158.234 297.396C157.465 297.973 157.081 298.726 157.081 299.655C157.081 300.359 157.305 300.952 157.754 301.432C158.234 301.881 158.971 302.217 159.964 302.441L164.769 303.354C166.915 303.771 168.532 304.508 169.621 305.565C170.743 306.59 171.303 307.999 171.303 309.793C171.303 311.394 170.871 312.772 170.006 313.925C169.141 315.078 167.94 315.959 166.402 316.568C164.865 317.176 163.071 317.48 161.021 317.48ZM186.587 317.48C183.704 317.48 181.526 316.728 180.052 315.222C178.579 313.717 177.842 311.458 177.842 308.447V297.252H173.181V292.736H177.842V286.538L183.848 285V292.736H190.335V297.252H183.848V308.063C183.848 309.729 184.168 310.898 184.809 311.571C185.45 312.243 186.331 312.58 187.452 312.58C188.06 312.58 188.573 312.532 188.989 312.435C189.438 312.339 189.87 312.211 190.287 312.051V316.808C189.742 317.032 189.133 317.192 188.461 317.288C187.82 317.416 187.195 317.48 186.587 317.48ZM205.135 317.48C202.636 317.48 200.474 316.968 198.648 315.943C196.822 314.918 195.397 313.46 194.372 311.571C193.379 309.681 192.882 307.438 192.882 304.844C192.882 302.249 193.379 300.023 194.372 298.165C195.397 296.275 196.822 294.818 198.648 293.793C200.474 292.768 202.636 292.255 205.135 292.255C207.633 292.255 209.795 292.768 211.621 293.793C213.479 294.818 214.904 296.275 215.897 298.165C216.922 300.023 217.435 302.249 217.435 304.844C217.435 307.438 216.922 309.681 215.897 311.571C214.904 313.46 213.479 314.918 211.621 315.943C209.795 316.968 207.633 317.48 205.135 317.48ZM205.135 312.868C207.024 312.868 208.53 312.211 209.651 310.898C210.772 309.553 211.333 307.535 211.333 304.844C211.333 302.153 210.772 300.151 209.651 298.838C208.53 297.525 207.024 296.868 205.135 296.868C203.245 296.868 201.739 297.525 200.618 298.838C199.497 300.151 198.936 302.153 198.936 304.844C198.936 307.535 199.497 309.553 200.618 310.898C201.739 312.211 203.245 312.868 205.135 312.868ZM222.566 317V298.934C222.566 297.909 222.534 296.868 222.47 295.811C222.438 294.754 222.358 293.729 222.23 292.736H228.044L228.716 299.366H227.755C228.076 297.765 228.604 296.435 229.341 295.378C230.11 294.321 231.039 293.537 232.128 293.024C233.217 292.512 234.402 292.255 235.683 292.255C236.26 292.255 236.724 292.287 237.077 292.351C237.429 292.383 237.781 292.463 238.134 292.592L238.086 297.877C237.477 297.621 236.949 297.46 236.5 297.396C236.084 297.332 235.555 297.3 234.915 297.3C233.537 297.3 232.368 297.589 231.407 298.165C230.478 298.742 229.773 299.543 229.293 300.568C228.845 301.593 228.62 302.762 228.62 304.075V317H222.566ZM241.477 317V292.736H247.483V317H241.477ZM241.141 288.171V282.309H247.819V288.171H241.141ZM265.152 317.48C262.654 317.48 260.46 316.968 258.57 315.943C256.712 314.918 255.27 313.46 254.245 311.571C253.22 309.649 252.708 307.374 252.708 304.748C252.708 302.121 253.22 299.879 254.245 298.021C255.302 296.163 256.76 294.738 258.618 293.745C260.476 292.752 262.654 292.255 265.152 292.255C266.754 292.255 268.307 292.512 269.813 293.024C271.35 293.505 272.6 294.209 273.561 295.138L271.735 299.318C270.87 298.518 269.893 297.925 268.804 297.541C267.747 297.124 266.706 296.916 265.681 296.916C263.535 296.916 261.853 297.589 260.636 298.934C259.451 300.279 258.858 302.233 258.858 304.796C258.858 307.358 259.451 309.328 260.636 310.706C261.853 312.083 263.535 312.772 265.681 312.772C266.674 312.772 267.699 312.58 268.756 312.195C269.845 311.811 270.838 311.218 271.735 310.417L273.561 314.55C272.568 315.478 271.302 316.199 269.765 316.712C268.259 317.224 266.722 317.48 265.152 317.48ZM287.445 317.48C285.331 317.48 283.473 316.984 281.872 315.991C280.27 314.966 279.021 313.509 278.124 311.619C277.227 309.729 276.779 307.47 276.779 304.844C276.779 302.217 277.227 299.975 278.124 298.117C279.021 296.227 280.27 294.786 281.872 293.793C283.473 292.768 285.331 292.255 287.445 292.255C289.495 292.255 291.289 292.768 292.827 293.793C294.396 294.786 295.437 296.131 295.95 297.829H295.421L295.95 292.736H301.716C301.62 293.729 301.523 294.738 301.427 295.763C301.363 296.788 301.331 297.797 301.331 298.79V317H295.373L295.325 312.003H295.902C295.389 313.669 294.348 314.998 292.779 315.991C291.209 316.984 289.431 317.48 287.445 317.48ZM289.127 312.868C291.017 312.868 292.538 312.211 293.692 310.898C294.845 309.553 295.421 307.535 295.421 304.844C295.421 302.153 294.845 300.151 293.692 298.838C292.538 297.525 291.017 296.868 289.127 296.868C287.237 296.868 285.716 297.525 284.562 298.838C283.409 300.151 282.833 302.153 282.833 304.844C282.833 307.535 283.393 309.553 284.514 310.898C285.668 312.211 287.205 312.868 289.127 312.868ZM307.871 317V281.637H313.877V317H307.871ZM157.787 384.48C153.975 384.48 150.772 383.776 148.177 382.366C145.583 380.957 143.629 378.955 142.315 376.36C141.002 373.766 140.346 370.691 140.346 367.135C140.346 363.548 141.05 360.456 142.46 357.862C143.869 355.235 145.887 353.217 148.514 351.808C151.172 350.366 154.36 349.646 158.075 349.646C160.542 349.646 162.704 349.982 164.562 350.655C166.42 351.295 168.053 352.24 169.463 353.489L167.397 358.294C166.372 357.493 165.395 356.853 164.466 356.372C163.537 355.892 162.576 355.556 161.583 355.363C160.59 355.139 159.437 355.027 158.123 355.027C154.408 355.027 151.589 356.084 149.667 358.198C147.777 360.28 146.832 363.275 146.832 367.183C146.832 371.091 147.729 374.07 149.523 376.12C151.349 378.17 154.199 379.195 158.075 379.195C159.389 379.195 160.702 379.067 162.015 378.811C163.361 378.555 164.674 378.186 165.955 377.706L164.802 380.3V370.162H156.874V365.646H169.943V381.934C168.374 382.735 166.5 383.359 164.321 383.808C162.143 384.256 159.965 384.48 157.787 384.48ZM188.261 384.48C184.193 384.48 181.005 383.359 178.699 381.117C176.393 378.875 175.24 375.8 175.24 371.892C175.24 369.361 175.736 367.151 176.729 365.261C177.722 363.371 179.1 361.898 180.861 360.841C182.655 359.784 184.737 359.255 187.108 359.255C189.446 359.255 191.4 359.752 192.969 360.745C194.539 361.738 195.724 363.131 196.525 364.925C197.358 366.719 197.774 368.817 197.774 371.219V372.805H180.093V369.634H193.498L192.681 370.306C192.681 368.064 192.201 366.35 191.24 365.165C190.311 363.98 188.949 363.387 187.156 363.387C185.17 363.387 183.632 364.092 182.543 365.501C181.486 366.911 180.957 368.881 180.957 371.411V372.036C180.957 374.663 181.598 376.633 182.879 377.946C184.193 379.227 186.034 379.868 188.405 379.868C189.782 379.868 191.063 379.692 192.249 379.339C193.466 378.955 194.619 378.346 195.708 377.514L197.486 381.55C196.333 382.478 194.955 383.199 193.354 383.712C191.752 384.224 190.054 384.48 188.261 384.48ZM202.86 384V365.79C202.86 364.797 202.828 363.788 202.764 362.763C202.7 361.738 202.604 360.729 202.476 359.736H208.29L208.77 364.541H208.193C208.866 362.875 209.891 361.578 211.269 360.649C212.678 359.72 214.344 359.255 216.266 359.255C218.187 359.255 219.773 359.72 221.022 360.649C222.304 361.546 223.201 362.955 223.713 364.877H222.944C223.617 363.147 224.722 361.786 226.26 360.793C227.797 359.768 229.559 359.255 231.545 359.255C234.268 359.255 236.302 360.056 237.647 361.658C238.992 363.259 239.665 365.758 239.665 369.153V384H233.659V369.393C233.659 367.471 233.339 366.094 232.698 365.261C232.057 364.396 231.032 363.964 229.623 363.964C227.957 363.964 226.644 364.557 225.683 365.742C224.722 366.895 224.242 368.464 224.242 370.45V384H218.236V369.393C218.236 367.471 217.915 366.094 217.275 365.261C216.634 364.396 215.609 363.964 214.2 363.964C212.534 363.964 211.221 364.557 210.26 365.742C209.331 366.895 208.866 368.464 208.866 370.45V384H202.86ZM254.724 384.48C252.642 384.48 250.72 384.24 248.958 383.76C247.228 383.247 245.771 382.543 244.586 381.646L246.267 377.61C247.485 378.442 248.83 379.083 250.303 379.532C251.777 379.98 253.266 380.204 254.772 380.204C256.374 380.204 257.559 379.932 258.328 379.387C259.128 378.843 259.529 378.106 259.529 377.177C259.529 376.44 259.272 375.864 258.76 375.447C258.279 374.999 257.495 374.663 256.406 374.438L251.601 373.526C249.551 373.077 247.981 372.308 246.892 371.219C245.835 370.13 245.306 368.705 245.306 366.943C245.306 365.437 245.707 364.108 246.508 362.955C247.341 361.802 248.51 360.905 250.015 360.264C251.553 359.592 253.347 359.255 255.397 359.255C257.19 359.255 258.872 359.495 260.442 359.976C262.043 360.456 263.389 361.177 264.478 362.138L262.748 366.03C261.755 365.229 260.618 364.605 259.337 364.156C258.055 363.708 256.806 363.483 255.589 363.483C253.923 363.483 252.706 363.788 251.937 364.396C251.168 364.973 250.784 365.726 250.784 366.655C250.784 367.359 251.008 367.952 251.457 368.432C251.937 368.881 252.674 369.217 253.667 369.441L258.472 370.354C260.618 370.771 262.235 371.508 263.325 372.565C264.446 373.59 265.006 374.999 265.006 376.793C265.006 378.394 264.574 379.772 263.709 380.925C262.844 382.078 261.643 382.959 260.105 383.568C258.568 384.176 256.774 384.48 254.724 384.48ZM269.474 366.366V359.736H276.2V366.366H269.474ZM269.474 384V377.321H276.2V384H269.474ZM120.647 451L135.974 417.126H141.163L156.683 451H150.388L146.256 441.486L148.755 443.168H128.431L131.025 441.486L126.893 451H120.647ZM138.521 423.757L131.746 439.805L130.497 438.315H146.641L145.632 439.805L138.713 423.757H138.521ZM159.95 451V432.79C159.95 431.797 159.918 430.788 159.854 429.763C159.79 428.738 159.694 427.729 159.566 426.736H165.379L165.86 431.541H165.283C166.052 429.843 167.189 428.546 168.695 427.649C170.2 426.72 171.946 426.255 173.932 426.255C176.783 426.255 178.929 427.056 180.37 428.658C181.812 430.259 182.533 432.758 182.533 436.153V451H176.527V436.441C176.527 434.487 176.142 433.094 175.373 432.261C174.637 431.396 173.516 430.964 172.01 430.964C170.152 430.964 168.679 431.541 167.59 432.694C166.501 433.847 165.956 435.384 165.956 437.306V451H159.95ZM200.048 451.48C197.55 451.48 195.355 450.968 193.465 449.943C191.608 448.918 190.166 447.46 189.141 445.571C188.116 443.649 187.604 441.374 187.604 438.748C187.604 436.121 188.116 433.879 189.141 432.021C190.198 430.163 191.656 428.738 193.513 427.745C195.371 426.752 197.55 426.255 200.048 426.255C201.65 426.255 203.203 426.512 204.709 427.024C206.246 427.505 207.495 428.209 208.456 429.138L206.631 433.318C205.766 432.518 204.789 431.925 203.7 431.541C202.643 431.124 201.602 430.916 200.577 430.916C198.43 430.916 196.749 431.589 195.532 432.934C194.346 434.279 193.754 436.233 193.754 438.796C193.754 441.358 194.346 443.328 195.532 444.706C196.749 446.083 198.43 446.772 200.577 446.772C201.57 446.772 202.595 446.58 203.652 446.195C204.741 445.811 205.734 445.218 206.631 444.417L208.456 448.55C207.463 449.478 206.198 450.199 204.661 450.712C203.155 451.224 201.618 451.48 200.048 451.48ZM213.113 451V426.736H219.119V451H213.113ZM212.776 422.171V416.309H219.455V422.171H212.776ZM237.364 451.48C233.296 451.48 230.109 450.359 227.803 448.117C225.497 445.875 224.343 442.8 224.343 438.892C224.343 436.361 224.84 434.151 225.833 432.261C226.826 430.371 228.203 428.898 229.965 427.841C231.759 426.784 233.841 426.255 236.211 426.255C238.55 426.255 240.504 426.752 242.073 427.745C243.643 428.738 244.828 430.131 245.629 431.925C246.462 433.719 246.878 435.817 246.878 438.219V439.805H229.196V436.634H242.602L241.785 437.306C241.785 435.064 241.304 433.35 240.343 432.165C239.415 430.98 238.053 430.387 236.259 430.387C234.273 430.387 232.736 431.092 231.647 432.501C230.59 433.911 230.061 435.881 230.061 438.411V439.036C230.061 441.663 230.702 443.633 231.983 444.946C233.296 446.227 235.138 446.868 237.509 446.868C238.886 446.868 240.167 446.692 241.352 446.339C242.57 445.955 243.723 445.346 244.812 444.514L246.59 448.55C245.437 449.478 244.059 450.199 242.458 450.712C240.856 451.224 239.158 451.48 237.364 451.48ZM251.964 451V432.79C251.964 431.797 251.932 430.788 251.868 429.763C251.804 428.738 251.708 427.729 251.58 426.736H257.393L257.874 431.541H257.297C258.066 429.843 259.203 428.546 260.709 427.649C262.214 426.72 263.96 426.255 265.946 426.255C268.797 426.255 270.943 427.056 272.384 428.658C273.826 430.259 274.547 432.758 274.547 436.153V451H268.541V436.441C268.541 434.487 268.156 433.094 267.387 432.261C266.651 431.396 265.53 430.964 264.024 430.964C262.166 430.964 260.693 431.541 259.604 432.694C258.515 433.847 257.97 435.384 257.97 437.306V451H251.964ZM291.293 451.48C288.41 451.48 286.232 450.728 284.759 449.222C283.285 447.717 282.548 445.458 282.548 442.447V431.252H277.888V426.736H282.548V420.538L288.554 419V426.736H295.041V431.252H288.554V442.063C288.554 443.729 288.875 444.898 289.515 445.571C290.156 446.243 291.037 446.58 292.158 446.58C292.767 446.58 293.279 446.532 293.696 446.435C294.144 446.339 294.576 446.211 294.993 446.051V450.808C294.448 451.032 293.84 451.192 293.167 451.288C292.526 451.416 291.902 451.48 291.293 451.48ZM89.6663 519.48C86.1428 519.48 83.1157 518.776 80.5852 517.366C78.0867 515.925 76.1648 513.907 74.8194 511.312C73.4741 508.686 72.8014 505.595 72.8014 502.039C72.8014 498.483 73.4741 495.408 74.8194 492.814C76.1648 490.219 78.0867 488.217 80.5852 486.808C83.1157 485.366 86.1428 484.646 89.6663 484.646C92.0366 484.646 94.1668 484.982 96.0567 485.655C97.9786 486.327 99.6282 487.32 101.006 488.634L98.9876 493.535C97.4821 492.317 96.0246 491.452 94.6152 490.94C93.2378 490.395 91.6523 490.123 89.8585 490.123C86.431 490.123 83.8044 491.164 81.9786 493.246C80.1848 495.296 79.2879 498.227 79.2879 502.039C79.2879 505.851 80.1848 508.798 81.9786 510.88C83.8044 512.962 86.431 514.003 89.8585 514.003C91.6523 514.003 93.2378 513.747 94.6152 513.234C96.0246 512.69 97.4821 511.793 98.9876 510.544L101.006 515.444C99.6282 516.726 97.9786 517.719 96.0567 518.423C94.1668 519.128 92.0366 519.48 89.6663 519.48ZM106.318 519V494.736H112.324V519H106.318ZM105.982 490.171V484.309H112.661V490.171H105.982ZM125.958 519L115.483 494.736H121.873L129.465 513.715H127.976L135.759 494.736H141.765L131.243 519H125.958ZM144.982 519V494.736H150.988V519H144.982ZM144.646 490.171V484.309H151.324V490.171H144.646ZM157.51 519V483.637H163.516V519H157.51ZM170.038 519V494.736H176.044V519H170.038ZM169.702 490.171V484.309H176.381V490.171H169.702ZM181.605 519V515.06L196.789 497.811V499.252H181.605V494.736H202.218V498.676L186.891 516.069L186.843 514.483H202.747V519H181.605ZM216.992 519.48C214.878 519.48 213.02 518.984 211.419 517.991C209.817 516.966 208.568 515.509 207.671 513.619C206.774 511.729 206.325 509.47 206.325 506.844C206.325 504.217 206.774 501.975 207.671 500.117C208.568 498.227 209.817 496.786 211.419 495.793C213.02 494.768 214.878 494.255 216.992 494.255C219.042 494.255 220.836 494.768 222.373 495.793C223.943 496.786 224.984 498.131 225.497 499.829H224.968L225.497 494.736H231.262C231.166 495.729 231.07 496.738 230.974 497.763C230.91 498.788 230.878 499.797 230.878 500.79V519H224.92L224.872 514.003H225.449C224.936 515.669 223.895 516.998 222.325 517.991C220.756 518.984 218.978 519.48 216.992 519.48ZM218.674 514.868C220.564 514.868 222.085 514.211 223.238 512.898C224.392 511.553 224.968 509.535 224.968 506.844C224.968 504.153 224.392 502.151 223.238 500.838C222.085 499.525 220.564 498.868 218.674 498.868C216.784 498.868 215.262 499.525 214.109 500.838C212.956 502.151 212.379 504.153 212.379 506.844C212.379 509.535 212.94 511.553 214.061 512.898C215.214 514.211 216.752 514.868 218.674 514.868ZM247.797 519.48C244.914 519.48 242.735 518.728 241.262 517.222C239.789 515.717 239.052 513.458 239.052 510.447V499.252H234.391V494.736H239.052V488.538L245.058 487V494.736H251.544V499.252H245.058V510.063C245.058 511.729 245.378 512.898 246.019 513.571C246.659 514.243 247.54 514.58 248.661 514.58C249.27 514.58 249.783 514.532 250.199 514.435C250.647 514.339 251.08 514.211 251.496 514.051V518.808C250.952 519.032 250.343 519.192 249.67 519.288C249.03 519.416 248.405 519.48 247.797 519.48ZM255.624 519V494.736H261.63V519H255.624ZM255.288 490.171V484.309H261.966V490.171H255.288ZM279.107 519.48C276.608 519.48 274.446 518.968 272.62 517.943C270.795 516.918 269.369 515.46 268.344 513.571C267.351 511.681 266.855 509.438 266.855 506.844C266.855 504.249 267.351 502.023 268.344 500.165C269.369 498.275 270.795 496.818 272.62 495.793C274.446 494.768 276.608 494.255 279.107 494.255C281.605 494.255 283.768 494.768 285.593 495.793C287.451 496.818 288.877 498.275 289.87 500.165C290.895 502.023 291.407 504.249 291.407 506.844C291.407 509.438 290.895 511.681 289.87 513.571C288.877 515.46 287.451 516.918 285.593 517.943C283.768 518.968 281.605 519.48 279.107 519.48ZM279.107 514.868C280.997 514.868 282.502 514.211 283.623 512.898C284.745 511.553 285.305 509.535 285.305 506.844C285.305 504.153 284.745 502.151 283.623 500.838C282.502 499.525 280.997 498.868 279.107 498.868C277.217 498.868 275.712 499.525 274.59 500.838C273.469 502.151 272.909 504.153 272.909 506.844C272.909 509.535 273.469 511.553 274.59 512.898C275.712 514.211 277.217 514.868 279.107 514.868ZM296.587 519V500.79C296.587 499.797 296.555 498.788 296.491 497.763C296.427 496.738 296.33 495.729 296.202 494.736H302.016L302.497 499.541H301.92C302.689 497.843 303.826 496.546 305.331 495.649C306.837 494.72 308.583 494.255 310.569 494.255C313.42 494.255 315.566 495.056 317.007 496.658C318.449 498.259 319.169 500.758 319.169 504.153V519H313.163V504.441C313.163 502.487 312.779 501.094 312.01 500.261C311.273 499.396 310.152 498.964 308.647 498.964C306.789 498.964 305.315 499.541 304.226 500.694C303.137 501.847 302.593 503.384 302.593 505.306V519H296.587ZM334.186 519.48C332.104 519.48 330.182 519.24 328.42 518.76C326.691 518.247 325.233 517.543 324.048 516.646L325.73 512.61C326.947 513.442 328.292 514.083 329.766 514.532C331.239 514.98 332.729 515.204 334.234 515.204C335.836 515.204 337.021 514.932 337.79 514.387C338.591 513.843 338.991 513.106 338.991 512.177C338.991 511.44 338.735 510.864 338.222 510.447C337.742 509.999 336.957 509.663 335.868 509.438L331.063 508.526C329.013 508.077 327.443 507.308 326.354 506.219C325.297 505.13 324.769 503.705 324.769 501.943C324.769 500.437 325.169 499.108 325.97 497.955C326.803 496.802 327.972 495.905 329.477 495.264C331.015 494.592 332.809 494.255 334.859 494.255C336.653 494.255 338.334 494.495 339.904 494.976C341.506 495.456 342.851 496.177 343.94 497.138L342.21 501.03C341.217 500.229 340.08 499.605 338.799 499.156C337.518 498.708 336.268 498.483 335.051 498.483C333.385 498.483 332.168 498.788 331.399 499.396C330.631 499.973 330.246 500.726 330.246 501.655C330.246 502.359 330.47 502.952 330.919 503.432C331.399 503.881 332.136 504.217 333.129 504.441L337.934 505.354C340.08 505.771 341.698 506.508 342.787 507.565C343.908 508.59 344.468 509.999 344.468 511.793C344.468 513.394 344.036 514.772 343.171 515.925C342.306 517.078 341.105 517.959 339.568 518.568C338.03 519.176 336.236 519.48 334.186 519.48Z" fill="#222533"></path>
</svg>
