<?xml version="1.0" encoding="UTF-8"?>
<svg xmlns="http://www.w3.org/2000/svg" width="416" height="800" viewBox="0 0 416 800" fill="none">
  <rect x="2.4024" y="2.4024" width="410.811" height="795.195" rx="26.4264" fill="white"></rect>
  <rect x="2.4024" y="2.4024" width="410.811" height="795.195" rx="26.4264" stroke="#E9EAEE" stroke-width="4.8048"></rect>
  <path d="M120.127 384.5V355.719H108.932V350.626H137.521V355.719H126.325V384.5H120.127ZM141.419 384.5V360.236H147.425V384.5H141.419ZM141.083 355.671V349.809H147.762V355.671H141.083ZM153.947 384.5V366.29C153.947 365.297 153.915 364.288 153.851 363.263C153.787 362.238 153.691 361.229 153.563 360.236H159.377L159.857 365.041H159.281C159.953 363.375 160.978 362.078 162.356 361.149C163.765 360.22 165.431 359.755 167.353 359.755C169.275 359.755 170.86 360.22 172.11 361.149C173.391 362.046 174.288 363.455 174.8 365.377H174.032C174.704 363.647 175.809 362.286 177.347 361.293C178.884 360.268 180.646 359.755 182.632 359.755C185.355 359.755 187.389 360.556 188.734 362.158C190.08 363.759 190.752 366.258 190.752 369.653V384.5H184.746V369.893C184.746 367.971 184.426 366.594 183.785 365.761C183.145 364.896 182.12 364.464 180.71 364.464C179.045 364.464 177.731 365.057 176.77 366.242C175.809 367.395 175.329 368.964 175.329 370.95V384.5H169.323V369.893C169.323 367.971 169.002 366.594 168.362 365.761C167.721 364.896 166.696 364.464 165.287 364.464C163.621 364.464 162.308 365.057 161.347 366.242C160.418 367.395 159.953 368.964 159.953 370.95V384.5H153.947ZM208.886 384.98C204.818 384.98 201.631 383.859 199.325 381.617C197.018 379.375 195.865 376.3 195.865 372.392C195.865 369.861 196.362 367.651 197.355 365.761C198.348 363.871 199.725 362.398 201.487 361.341C203.281 360.284 205.363 359.755 207.733 359.755C210.071 359.755 212.025 360.252 213.595 361.245C215.165 362.238 216.35 363.631 217.151 365.425C217.983 367.219 218.4 369.317 218.4 371.719V373.305H200.718V370.134H214.123L213.307 370.806C213.307 368.564 212.826 366.85 211.865 365.665C210.936 364.48 209.575 363.887 207.781 363.887C205.795 363.887 204.258 364.592 203.169 366.001C202.111 367.411 201.583 369.381 201.583 371.911V372.536C201.583 375.163 202.224 377.133 203.505 378.446C204.818 379.727 206.66 380.368 209.03 380.368C210.408 380.368 211.689 380.192 212.874 379.839C214.091 379.455 215.245 378.846 216.334 378.014L218.111 382.05C216.958 382.978 215.581 383.699 213.979 384.212C212.378 384.724 210.68 384.98 208.886 384.98ZM223.486 384.5V349.137H229.492V384.5H223.486ZM247.738 384.98C243.67 384.98 240.482 383.859 238.176 381.617C235.87 379.375 234.717 376.3 234.717 372.392C234.717 369.861 235.213 367.651 236.206 365.761C237.199 363.871 238.576 362.398 240.338 361.341C242.132 360.284 244.214 359.755 246.584 359.755C248.923 359.755 250.877 360.252 252.446 361.245C254.016 362.238 255.201 363.631 256.002 365.425C256.835 367.219 257.251 369.317 257.251 371.719V373.305H239.569V370.134H252.975L252.158 370.806C252.158 368.564 251.678 366.85 250.717 365.665C249.788 364.48 248.426 363.887 246.632 363.887C244.646 363.887 243.109 364.592 242.02 366.001C240.963 367.411 240.434 369.381 240.434 371.911V372.536C240.434 375.163 241.075 377.133 242.356 378.446C243.67 379.727 245.511 380.368 247.882 380.368C249.259 380.368 250.54 380.192 251.726 379.839C252.943 379.455 254.096 378.846 255.185 378.014L256.963 382.05C255.81 382.978 254.432 383.699 252.831 384.212C251.229 384.724 249.531 384.98 247.738 384.98ZM270.986 384.98C268.904 384.98 266.982 384.74 265.22 384.26C263.49 383.747 262.033 383.043 260.848 382.146L262.529 378.11C263.746 378.942 265.092 379.583 266.565 380.032C268.039 380.48 269.528 380.704 271.034 380.704C272.635 380.704 273.821 380.432 274.589 379.887C275.39 379.343 275.791 378.606 275.791 377.677C275.791 376.94 275.534 376.364 275.022 375.947C274.541 375.499 273.756 375.163 272.667 374.938L267.863 374.026C265.813 373.577 264.243 372.808 263.154 371.719C262.097 370.63 261.568 369.205 261.568 367.443C261.568 365.937 261.969 364.608 262.769 363.455C263.602 362.302 264.771 361.405 266.277 360.764C267.815 360.092 269.608 359.755 271.658 359.755C273.452 359.755 275.134 359.995 276.703 360.476C278.305 360.956 279.65 361.677 280.739 362.638L279.01 366.53C278.017 365.729 276.88 365.105 275.598 364.656C274.317 364.208 273.068 363.983 271.851 363.983C270.185 363.983 268.968 364.288 268.199 364.896C267.43 365.473 267.046 366.226 267.046 367.155C267.046 367.859 267.27 368.452 267.718 368.932C268.199 369.381 268.936 369.717 269.929 369.941L274.733 370.854C276.88 371.271 278.497 372.008 279.586 373.065C280.707 374.09 281.268 375.499 281.268 377.293C281.268 378.894 280.836 380.272 279.971 381.425C279.106 382.578 277.905 383.459 276.367 384.068C274.83 384.676 273.036 384.98 270.986 384.98ZM295.057 384.98C292.975 384.98 291.053 384.74 289.291 384.26C287.561 383.747 286.104 383.043 284.919 382.146L286.6 378.11C287.817 378.942 289.163 379.583 290.636 380.032C292.11 380.48 293.599 380.704 295.105 380.704C296.706 380.704 297.891 380.432 298.66 379.887C299.461 379.343 299.861 378.606 299.861 377.677C299.861 376.94 299.605 376.364 299.093 375.947C298.612 375.499 297.827 375.163 296.738 374.938L291.934 374.026C289.883 373.577 288.314 372.808 287.225 371.719C286.168 370.63 285.639 369.205 285.639 367.443C285.639 365.937 286.04 364.608 286.84 363.455C287.673 362.302 288.842 361.405 290.348 360.764C291.885 360.092 293.679 359.755 295.729 359.755C297.523 359.755 299.205 359.995 300.774 360.476C302.376 360.956 303.721 361.677 304.81 362.638L303.081 366.53C302.088 365.729 300.951 365.105 299.669 364.656C298.388 364.208 297.139 363.983 295.922 363.983C294.256 363.983 293.039 364.288 292.27 364.896C291.501 365.473 291.117 366.226 291.117 367.155C291.117 367.859 291.341 368.452 291.789 368.932C292.27 369.381 293.007 369.717 294 369.941L298.804 370.854C300.951 371.271 302.568 372.008 303.657 373.065C304.778 374.09 305.339 375.499 305.339 377.293C305.339 378.894 304.907 380.272 304.042 381.425C303.177 382.578 301.976 383.459 300.438 384.068C298.901 384.676 297.107 384.98 295.057 384.98ZM63.8875 451.98C61.1648 451.98 58.6503 451.644 56.344 450.971C54.0697 450.267 52.1158 449.306 50.4821 448.089L52.4041 443.236C53.4932 444.005 54.6303 444.661 55.8155 445.206C57.0007 445.718 58.2659 446.119 59.6113 446.407C60.9566 446.663 62.382 446.791 63.8875 446.791C66.4181 446.791 68.2439 446.375 69.365 445.542C70.4861 444.709 71.0467 443.62 71.0467 442.275C71.0467 441.09 70.6623 440.193 69.8936 439.584C69.1248 438.943 67.7474 438.415 65.7614 437.998L60.332 436.893C57.2249 436.253 54.9026 435.18 53.365 433.674C51.8275 432.169 51.0587 430.151 51.0587 427.62C51.0587 425.506 51.6193 423.664 52.7404 422.095C53.8615 420.525 55.4311 419.308 57.4491 418.443C59.4671 417.578 61.8215 417.146 64.5122 417.146C66.9146 417.146 69.1408 417.498 71.1908 418.203C73.2409 418.875 74.9546 419.852 76.332 421.134L74.4101 425.746C73.0327 424.593 71.5272 423.744 69.8936 423.2C68.2599 422.623 66.4341 422.335 64.4161 422.335C62.1418 422.335 60.364 422.783 59.0827 423.68C57.8335 424.545 57.2089 425.746 57.2089 427.284C57.2089 428.469 57.5933 429.414 58.362 430.119C59.1628 430.823 60.5082 431.368 62.3981 431.752L67.7794 432.809C70.9826 433.45 73.353 434.507 74.8905 435.98C76.4281 437.422 77.1969 439.376 77.1969 441.842C77.1969 443.86 76.6523 445.638 75.5632 447.176C74.4741 448.681 72.9366 449.866 70.9506 450.731C68.9646 451.564 66.6103 451.98 63.8875 451.98ZM92.6995 451.98C89.8166 451.98 87.6384 451.228 86.1649 449.722C84.6915 448.217 83.9547 445.958 83.9547 442.947V431.752H79.2941V427.236H83.9547V421.038L89.9607 419.5V427.236H96.4472V431.752H89.9607V442.563C89.9607 444.229 90.2811 445.398 90.9217 446.071C91.5623 446.743 92.4432 447.08 93.5643 447.08C94.173 447.08 94.6855 447.032 95.1019 446.935C95.5503 446.839 95.9828 446.711 96.3992 446.551V451.308C95.8546 451.532 95.246 451.692 94.5734 451.788C93.9327 451.916 93.3081 451.98 92.6995 451.98ZM111.247 451.98C108.749 451.98 106.586 451.468 104.761 450.443C102.935 449.418 101.509 447.96 100.484 446.071C99.4914 444.181 98.9949 441.938 98.9949 439.344C98.9949 436.749 99.4914 434.523 100.484 432.665C101.509 430.775 102.935 429.318 104.761 428.293C106.586 427.268 108.749 426.755 111.247 426.755C113.746 426.755 115.908 427.268 117.734 428.293C119.592 429.318 121.017 430.775 122.01 432.665C123.035 434.523 123.547 436.749 123.547 439.344C123.547 441.938 123.035 444.181 122.01 446.071C121.017 447.96 119.592 449.418 117.734 450.443C115.908 451.468 113.746 451.98 111.247 451.98ZM111.247 447.368C113.137 447.368 114.643 446.711 115.764 445.398C116.885 444.053 117.445 442.035 117.445 439.344C117.445 436.653 116.885 434.651 115.764 433.338C114.643 432.025 113.137 431.368 111.247 431.368C109.357 431.368 107.852 432.025 106.731 433.338C105.61 434.651 105.049 436.653 105.049 439.344C105.049 442.035 105.61 444.053 106.731 445.398C107.852 446.711 109.357 447.368 111.247 447.368ZM128.727 451.5V427.236H134.733V451.5H128.727ZM128.391 422.671V416.809H135.069V422.671H128.391ZM152.402 451.98C149.904 451.98 147.709 451.468 145.82 450.443C143.962 449.418 142.52 447.96 141.495 446.071C140.47 444.149 139.958 441.874 139.958 439.248C139.958 436.621 140.47 434.379 141.495 432.521C142.552 430.663 144.01 429.238 145.868 428.245C147.726 427.252 149.904 426.755 152.402 426.755C154.004 426.755 155.557 427.012 157.063 427.524C158.6 428.005 159.85 428.709 160.811 429.638L158.985 433.818C158.12 433.018 157.143 432.425 156.054 432.041C154.997 431.624 153.956 431.416 152.931 431.416C150.785 431.416 149.103 432.089 147.886 433.434C146.7 434.779 146.108 436.733 146.108 439.296C146.108 441.858 146.7 443.828 147.886 445.206C149.103 446.583 150.785 447.272 152.931 447.272C153.924 447.272 154.949 447.08 156.006 446.695C157.095 446.311 158.088 445.718 158.985 444.917L160.811 449.05C159.818 449.978 158.552 450.699 157.015 451.212C155.509 451.724 153.972 451.98 152.402 451.98ZM188.55 451.5L176.586 417.626H183.024L192.249 445.398H190.327L200.273 417.626H204.886L214.111 445.398H212.333L221.991 417.626H228.045L215.985 451.5H210.844L201.907 425.458H202.964L193.691 451.5H188.55ZM232.518 451.5V427.236H238.524V451.5H232.518ZM232.182 422.671V416.809H238.861V422.671H232.182ZM253.695 451.98C251.613 451.98 249.691 451.74 247.929 451.26C246.199 450.747 244.742 450.043 243.557 449.146L245.239 445.11C246.456 445.942 247.801 446.583 249.275 447.032C250.748 447.48 252.238 447.704 253.743 447.704C255.345 447.704 256.53 447.432 257.299 446.887C258.099 446.343 258.5 445.606 258.5 444.677C258.5 443.94 258.244 443.364 257.731 442.947C257.251 442.499 256.466 442.163 255.377 441.938L250.572 441.026C248.522 440.577 246.952 439.808 245.863 438.719C244.806 437.63 244.278 436.205 244.278 434.443C244.278 432.937 244.678 431.608 245.479 430.455C246.312 429.302 247.481 428.405 248.986 427.764C250.524 427.092 252.318 426.755 254.368 426.755C256.161 426.755 257.843 426.995 259.413 427.476C261.014 427.956 262.36 428.677 263.449 429.638L261.719 433.53C260.726 432.729 259.589 432.105 258.308 431.656C257.026 431.208 255.777 430.983 254.56 430.983C252.894 430.983 251.677 431.288 250.908 431.896C250.139 432.473 249.755 433.226 249.755 434.155C249.755 434.859 249.979 435.452 250.428 435.932C250.908 436.381 251.645 436.717 252.638 436.941L257.443 437.854C259.589 438.271 261.206 439.008 262.296 440.065C263.417 441.09 263.977 442.499 263.977 444.293C263.977 445.894 263.545 447.272 262.68 448.425C261.815 449.578 260.614 450.459 259.076 451.068C257.539 451.676 255.745 451.98 253.695 451.98ZM278.535 451.98C276.421 451.98 274.547 451.484 272.913 450.491C271.311 449.466 270.062 448.009 269.165 446.119C268.268 444.229 267.82 441.97 267.82 439.344C267.82 436.717 268.268 434.475 269.165 432.617C270.062 430.727 271.311 429.286 272.913 428.293C274.547 427.268 276.421 426.755 278.535 426.755C280.553 426.755 282.33 427.252 283.868 428.245C285.438 429.206 286.479 430.519 286.991 432.185H286.367V416.137H292.373V451.5H286.463V446.359H287.039C286.527 448.089 285.486 449.466 283.916 450.491C282.379 451.484 280.585 451.98 278.535 451.98ZM280.216 447.368C282.106 447.368 283.628 446.711 284.781 445.398C285.934 444.053 286.511 442.035 286.511 439.344C286.511 436.653 285.934 434.651 284.781 433.338C283.628 432.025 282.106 431.368 280.216 431.368C278.326 431.368 276.789 432.025 275.604 433.338C274.451 434.651 273.874 436.653 273.874 439.344C273.874 442.035 274.451 444.053 275.604 445.398C276.789 446.711 278.326 447.368 280.216 447.368ZM309.868 451.98C307.369 451.98 305.207 451.468 303.381 450.443C301.555 449.418 300.13 447.96 299.105 446.071C298.112 444.181 297.615 441.938 297.615 439.344C297.615 436.749 298.112 434.523 299.105 432.665C300.13 430.775 301.555 429.318 303.381 428.293C305.207 427.268 307.369 426.755 309.868 426.755C312.366 426.755 314.528 427.268 316.354 428.293C318.212 429.318 319.637 430.775 320.63 432.665C321.655 434.523 322.168 436.749 322.168 439.344C322.168 441.938 321.655 444.181 320.63 446.071C319.637 447.96 318.212 449.418 316.354 450.443C314.528 451.468 312.366 451.98 309.868 451.98ZM309.868 447.368C311.758 447.368 313.263 446.711 314.384 445.398C315.505 444.053 316.066 442.035 316.066 439.344C316.066 436.653 315.505 434.651 314.384 433.338C313.263 432.025 311.758 431.368 309.868 431.368C307.978 431.368 306.472 432.025 305.351 433.338C304.23 434.651 303.669 436.653 303.669 439.344C303.669 442.035 304.23 444.053 305.351 445.398C306.472 446.711 307.978 447.368 309.868 447.368ZM327.347 451.5V433.29C327.347 432.297 327.315 431.288 327.251 430.263C327.187 429.238 327.091 428.229 326.963 427.236H332.777L333.257 432.041H332.681C333.353 430.375 334.378 429.078 335.756 428.149C337.165 427.22 338.831 426.755 340.753 426.755C342.675 426.755 344.26 427.22 345.51 428.149C346.791 429.046 347.688 430.455 348.2 432.377H347.431C348.104 430.647 349.209 429.286 350.747 428.293C352.284 427.268 354.046 426.755 356.032 426.755C358.755 426.755 360.789 427.556 362.134 429.158C363.48 430.759 364.152 433.258 364.152 436.653V451.5H358.146V436.893C358.146 434.971 357.826 433.594 357.185 432.761C356.545 431.896 355.52 431.464 354.11 431.464C352.444 431.464 351.131 432.057 350.17 433.242C349.209 434.395 348.729 435.964 348.729 437.95V451.5H342.723V436.893C342.723 434.971 342.402 433.594 341.762 432.761C341.121 431.896 340.096 431.464 338.687 431.464C337.021 431.464 335.708 432.057 334.747 433.242C333.818 434.395 333.353 435.964 333.353 437.95V451.5H327.347Z" fill="#222533"></path>
</svg>
