<?xml version="1.0" encoding="UTF-8"?>
<svg xmlns="http://www.w3.org/2000/svg" version="1.2" viewBox="0 0 40 16" width="40" height="16">
  <title>mejs-controls-svg</title>
  <style>
		.s0 { fill: #ffffff } 
	</style>
  <path id="Layer" class="s0" d="m12.5 7.5c0.3 0.1 0.4 0.5 0.2 0.8-0.1 0.1-0.1 0.2-0.2 0.2l-11.4 7c-0.5 0.3-0.8 0.1-0.8-0.5v-14c0-0.5 0.4-0.8 0.8-0.5z"></path>
  <path id="Layer" class="s0" d="m26 0h2.2c0.6 0 1 0.4 1 1v14c0 0.6-0.4 1-1 1h-2.2c-0.6 0-1-0.4-1-1v-14c0-0.5 0.4-1 1-1zm9.8 0h2.2c0.6 0 1 0.4 1 1v14c0 0.6-0.4 1-1 1h-2.2c-0.6 0-1-0.4-1-1v-14c0-0.5 0.4-1 1-1z"></path>
</svg>
