<?xml version="1.0" encoding="UTF-8"?>
<svg xmlns="http://www.w3.org/2000/svg" width="417" height="800" viewBox="0 0 417 800" fill="none">
  <rect x="3.29107" y="2.4024" width="410.811" height="795.195" rx="26.4264" fill="white"></rect>
  <rect x="3.29107" y="2.4024" width="410.811" height="795.195" rx="26.4264" stroke="#E9EAEE" stroke-width="4.8048"></rect>
  <path d="M79.7019 351V317.126H102.044V321.979H85.9001V331.589H100.939V336.441H85.9001V351H79.7019ZM115.149 351.48C113.034 351.48 111.177 350.984 109.575 349.991C107.973 348.966 106.724 347.509 105.827 345.619C104.93 343.729 104.482 341.47 104.482 338.844C104.482 336.217 104.93 333.975 105.827 332.117C106.724 330.227 107.973 328.786 109.575 327.793C111.177 326.768 113.034 326.255 115.149 326.255C117.199 326.255 118.992 326.768 120.53 327.793C122.1 328.786 123.141 330.131 123.653 331.829H123.125L123.653 326.736H129.419C129.323 327.729 129.227 328.738 129.131 329.763C129.067 330.788 129.034 331.797 129.034 332.79V351H123.077L123.028 346.003H123.605C123.093 347.669 122.051 348.998 120.482 349.991C118.912 350.984 117.135 351.48 115.149 351.48ZM116.83 346.868C118.72 346.868 120.242 346.211 121.395 344.898C122.548 343.553 123.125 341.535 123.125 338.844C123.125 336.153 122.548 334.151 121.395 332.838C120.242 331.525 118.72 330.868 116.83 330.868C114.94 330.868 113.419 331.525 112.266 332.838C111.113 334.151 110.536 336.153 110.536 338.844C110.536 341.535 111.097 343.553 112.218 344.898C113.371 346.211 114.908 346.868 116.83 346.868ZM144.223 351.48C142.141 351.48 140.219 351.24 138.458 350.76C136.728 350.247 135.27 349.543 134.085 348.646L135.767 344.61C136.984 345.442 138.329 346.083 139.803 346.532C141.276 346.98 142.766 347.204 144.271 347.204C145.873 347.204 147.058 346.932 147.827 346.387C148.628 345.843 149.028 345.106 149.028 344.177C149.028 343.44 148.772 342.864 148.259 342.447C147.779 341.999 146.994 341.663 145.905 341.438L141.1 340.526C139.05 340.077 137.481 339.308 136.391 338.219C135.334 337.13 134.806 335.705 134.806 333.943C134.806 332.437 135.206 331.108 136.007 329.955C136.84 328.802 138.009 327.905 139.515 327.264C141.052 326.592 142.846 326.255 144.896 326.255C146.69 326.255 148.371 326.495 149.941 326.976C151.543 327.456 152.888 328.177 153.977 329.138L152.247 333.03C151.254 332.229 150.117 331.605 148.836 331.156C147.555 330.708 146.305 330.483 145.088 330.483C143.422 330.483 142.205 330.788 141.437 331.396C140.668 331.973 140.283 332.726 140.283 333.655C140.283 334.359 140.508 334.952 140.956 335.432C141.437 335.881 142.173 336.217 143.166 336.441L147.971 337.354C150.117 337.771 151.735 338.508 152.824 339.565C153.945 340.59 154.506 341.999 154.506 343.793C154.506 345.394 154.073 346.772 153.208 347.925C152.343 349.078 151.142 349.959 149.605 350.568C148.067 351.176 146.273 351.48 144.223 351.48ZM170.793 351.48C168.294 351.48 166.1 350.968 164.21 349.943C162.352 348.918 160.911 347.46 159.886 345.571C158.861 343.649 158.348 341.374 158.348 338.748C158.348 336.121 158.861 333.879 159.886 332.021C160.943 330.163 162.4 328.738 164.258 327.745C166.116 326.752 168.294 326.255 170.793 326.255C172.394 326.255 173.948 326.512 175.453 327.024C176.991 327.505 178.24 328.209 179.201 329.138L177.375 333.318C176.51 332.518 175.533 331.925 174.444 331.541C173.387 331.124 172.346 330.916 171.321 330.916C169.175 330.916 167.493 331.589 166.276 332.934C165.091 334.279 164.498 336.233 164.498 338.796C164.498 341.358 165.091 343.328 166.276 344.706C167.493 346.083 169.175 346.772 171.321 346.772C172.314 346.772 173.339 346.58 174.396 346.195C175.485 345.811 176.478 345.218 177.375 344.417L179.201 348.55C178.208 349.478 176.943 350.199 175.405 350.712C173.9 351.224 172.362 351.48 170.793 351.48ZM183.857 351V326.736H189.863V351H183.857ZM183.521 322.171V316.309H190.2V322.171H183.521ZM196.385 351V332.79C196.385 331.797 196.353 330.788 196.289 329.763C196.225 328.738 196.129 327.729 196.001 326.736H201.815L202.295 331.541H201.719C202.488 329.843 203.625 328.546 205.13 327.649C206.636 326.72 208.381 326.255 210.367 326.255C213.218 326.255 215.364 327.056 216.806 328.658C218.247 330.259 218.968 332.758 218.968 336.153V351H212.962V336.441C212.962 334.487 212.578 333.094 211.809 332.261C211.072 331.396 209.951 330.964 208.446 330.964C206.588 330.964 205.114 331.541 204.025 332.694C202.936 333.847 202.391 335.384 202.391 337.306V351H196.385ZM234.706 351.48C232.592 351.48 230.734 350.984 229.132 349.991C227.53 348.966 226.281 347.509 225.384 345.619C224.487 343.729 224.039 341.47 224.039 338.844C224.039 336.217 224.487 333.975 225.384 332.117C226.281 330.227 227.53 328.786 229.132 327.793C230.734 326.768 232.592 326.255 234.706 326.255C236.756 326.255 238.549 326.768 240.087 327.793C241.657 328.786 242.698 330.131 243.21 331.829H242.682L243.21 326.736H248.976C248.88 327.729 248.784 328.738 248.688 329.763C248.624 330.788 248.592 331.797 248.592 332.79V351H242.634L242.586 346.003H243.162C242.65 347.669 241.609 348.998 240.039 349.991C238.469 350.984 236.692 351.48 234.706 351.48ZM236.387 346.868C238.277 346.868 239.799 346.211 240.952 344.898C242.105 343.553 242.682 341.535 242.682 338.844C242.682 336.153 242.105 334.151 240.952 332.838C239.799 331.525 238.277 330.868 236.387 330.868C234.497 330.868 232.976 331.525 231.823 332.838C230.67 334.151 230.093 336.153 230.093 338.844C230.093 341.535 230.654 343.553 231.775 344.898C232.928 346.211 234.465 346.868 236.387 346.868ZM265.51 351.48C262.627 351.48 260.449 350.728 258.976 349.222C257.502 347.717 256.765 345.458 256.765 342.447V331.252H252.105V326.736H256.765V320.538L262.771 319V326.736H269.258V331.252H262.771V342.063C262.771 343.729 263.092 344.898 263.732 345.571C264.373 346.243 265.254 346.58 266.375 346.58C266.984 346.58 267.496 346.532 267.912 346.435C268.361 346.339 268.793 346.211 269.21 346.051V350.808C268.665 351.032 268.057 351.192 267.384 351.288C266.743 351.416 266.119 351.48 265.51 351.48ZM273.337 351V326.736H279.343V351H273.337ZM273.001 322.171V316.309H279.68V322.171H273.001ZM285.866 351V332.79C285.866 331.797 285.834 330.788 285.769 329.763C285.705 328.738 285.609 327.729 285.481 326.736H291.295L291.775 331.541H291.199C291.968 329.843 293.105 328.546 294.61 327.649C296.116 326.72 297.862 326.255 299.848 326.255C302.698 326.255 304.845 327.056 306.286 328.658C307.727 330.259 308.448 332.758 308.448 336.153V351H302.442V336.441C302.442 334.487 302.058 333.094 301.289 332.261C300.552 331.396 299.431 330.964 297.926 330.964C296.068 330.964 294.594 331.541 293.505 332.694C292.416 333.847 291.872 335.384 291.872 337.306V351H285.866ZM326.06 361.763C323.817 361.763 321.783 361.523 319.958 361.042C318.164 360.562 316.562 359.825 315.153 358.832L316.45 354.508C317.379 355.116 318.34 355.613 319.333 355.997C320.326 356.381 321.351 356.67 322.408 356.862C323.465 357.054 324.538 357.15 325.627 357.15C327.869 357.15 329.535 356.59 330.624 355.468C331.745 354.379 332.306 352.81 332.306 350.76V344.946H332.786C332.274 346.612 331.233 347.941 329.663 348.934C328.126 349.927 326.348 350.423 324.33 350.423C322.152 350.423 320.246 349.943 318.612 348.982C317.011 347.989 315.761 346.58 314.864 344.754C313.968 342.928 313.519 340.782 313.519 338.315C313.519 335.849 313.968 333.719 314.864 331.925C315.761 330.099 317.011 328.706 318.612 327.745C320.246 326.752 322.152 326.255 324.33 326.255C326.38 326.255 328.158 326.752 329.663 327.745C331.201 328.706 332.226 330.019 332.738 331.685L332.306 331.396L332.786 326.736H338.6C338.472 327.729 338.376 328.738 338.312 329.763C338.248 330.788 338.216 331.797 338.216 332.79V350.039C338.216 353.851 337.175 356.75 335.093 358.736C333.043 360.754 330.032 361.763 326.06 361.763ZM325.964 345.811C327.885 345.811 329.407 345.17 330.528 343.889C331.681 342.576 332.258 340.718 332.258 338.315C332.258 335.913 331.681 334.071 330.528 332.79C329.407 331.509 327.885 330.868 325.964 330.868C324.01 330.868 322.456 331.509 321.303 332.79C320.15 334.071 319.573 335.913 319.573 338.315C319.573 340.718 320.15 342.576 321.303 343.889C322.456 345.17 324.01 345.811 325.964 345.811ZM98.9633 418V384.126H121.306V388.979H105.162V398.589H120.201V403.441H105.162V418H98.9633ZM134.41 418.48C132.296 418.48 130.438 417.984 128.836 416.991C127.235 415.966 125.986 414.509 125.089 412.619C124.192 410.729 123.743 408.47 123.743 405.844C123.743 403.217 124.192 400.975 125.089 399.117C125.986 397.227 127.235 395.786 128.836 394.793C130.438 393.768 132.296 393.255 134.41 393.255C136.46 393.255 138.254 393.768 139.791 394.793C141.361 395.786 142.402 397.131 142.915 398.829H142.386L142.915 393.736H148.68C148.584 394.729 148.488 395.738 148.392 396.763C148.328 397.788 148.296 398.797 148.296 399.79V418H142.338L142.29 413.003H142.867C142.354 414.669 141.313 415.998 139.743 416.991C138.174 417.984 136.396 418.48 134.41 418.48ZM136.092 413.868C137.982 413.868 139.503 413.211 140.656 411.898C141.809 410.553 142.386 408.535 142.386 405.844C142.386 403.153 141.809 401.151 140.656 399.838C139.503 398.525 137.982 397.868 136.092 397.868C134.202 397.868 132.68 398.525 131.527 399.838C130.374 401.151 129.797 403.153 129.797 405.844C129.797 408.535 130.358 410.553 131.479 411.898C132.632 413.211 134.17 413.868 136.092 413.868ZM165.983 418.48C163.485 418.48 161.291 417.968 159.401 416.943C157.543 415.918 156.101 414.46 155.076 412.571C154.051 410.649 153.539 408.374 153.539 405.748C153.539 403.121 154.051 400.879 155.076 399.021C156.133 397.163 157.591 395.738 159.449 394.745C161.307 393.752 163.485 393.255 165.983 393.255C167.585 393.255 169.138 393.512 170.644 394.024C172.181 394.505 173.431 395.209 174.392 396.138L172.566 400.318C171.701 399.518 170.724 398.925 169.635 398.541C168.578 398.124 167.537 397.916 166.512 397.916C164.366 397.916 162.684 398.589 161.467 399.934C160.282 401.279 159.689 403.233 159.689 405.796C159.689 408.358 160.282 410.328 161.467 411.706C162.684 413.083 164.366 413.772 166.512 413.772C167.505 413.772 168.53 413.58 169.587 413.195C170.676 412.811 171.669 412.218 172.566 411.417L174.392 415.55C173.399 416.478 172.133 417.199 170.596 417.712C169.09 418.224 167.553 418.48 165.983 418.48ZM189.52 418.48C186.637 418.48 184.459 417.728 182.985 416.222C181.512 414.717 180.775 412.458 180.775 409.447V398.252H176.115V393.736H180.775V387.538L186.781 386V393.736H193.268V398.252H186.781V409.063C186.781 410.729 187.102 411.898 187.742 412.571C188.383 413.243 189.264 413.58 190.385 413.58C190.994 413.58 191.506 413.532 191.922 413.435C192.371 413.339 192.803 413.211 193.22 413.051V417.808C192.675 418.032 192.067 418.192 191.394 418.288C190.753 418.416 190.129 418.48 189.52 418.48ZM205.996 418.48C203.914 418.48 201.992 418.24 200.23 417.76C198.501 417.247 197.043 416.543 195.858 415.646L197.54 411.61C198.757 412.442 200.102 413.083 201.576 413.532C203.049 413.98 204.539 414.204 206.044 414.204C207.646 414.204 208.831 413.932 209.6 413.387C210.4 412.843 210.801 412.106 210.801 411.177C210.801 410.44 210.545 409.864 210.032 409.447C209.552 408.999 208.767 408.663 207.678 408.438L202.873 407.526C200.823 407.077 199.253 406.308 198.164 405.219C197.107 404.13 196.579 402.705 196.579 400.943C196.579 399.437 196.979 398.108 197.78 396.955C198.613 395.802 199.782 394.905 201.287 394.264C202.825 393.592 204.619 393.255 206.669 393.255C208.462 393.255 210.144 393.495 211.714 393.976C213.315 394.456 214.661 395.177 215.75 396.138L214.02 400.03C213.027 399.229 211.89 398.605 210.609 398.156C209.327 397.708 208.078 397.483 206.861 397.483C205.195 397.483 203.978 397.788 203.209 398.396C202.44 398.973 202.056 399.726 202.056 400.655C202.056 401.359 202.28 401.952 202.729 402.432C203.209 402.881 203.946 403.217 204.939 403.441L209.744 404.354C211.89 404.771 213.508 405.508 214.597 406.565C215.718 407.59 216.278 408.999 216.278 410.793C216.278 412.394 215.846 413.772 214.981 414.925C214.116 416.078 212.915 416.959 211.377 417.568C209.84 418.176 208.046 418.48 205.996 418.48ZM220.746 400.366V393.736H227.472V400.366H220.746ZM220.746 418V411.321H227.472V418H220.746ZM247.002 418V384.126H259.302C263.178 384.126 266.445 384.799 269.104 386.144C271.795 387.457 273.829 389.379 275.206 391.91C276.584 394.408 277.272 397.451 277.272 401.039C277.272 404.595 276.584 407.638 275.206 410.168C273.829 412.699 271.795 414.637 269.104 415.982C266.445 417.327 263.178 418 259.302 418H247.002ZM253.2 412.859H258.918C263.018 412.859 266.061 411.882 268.047 409.928C270.033 407.974 271.026 405.011 271.026 401.039C271.026 397.035 270.033 394.072 268.047 392.15C266.061 390.196 263.018 389.219 258.918 389.219H253.2V412.859ZM283.121 418V393.736H289.127V418H283.121ZM282.784 389.171V383.309H289.463V389.171H282.784ZM305.066 418.48C302.952 418.48 301.078 417.984 299.445 416.991C297.843 415.966 296.594 414.509 295.697 412.619C294.8 410.729 294.352 408.47 294.352 405.844C294.352 403.217 294.8 400.975 295.697 399.117C296.594 397.227 297.843 395.786 299.445 394.793C301.078 393.768 302.952 393.255 305.066 393.255C307.084 393.255 308.862 393.752 310.4 394.745C311.969 395.706 313.01 397.019 313.523 398.685H312.898V382.637H318.904V418H312.994V412.859H313.571C313.058 414.589 312.017 415.966 310.448 416.991C308.91 417.984 307.116 418.48 305.066 418.48ZM306.748 413.868C308.638 413.868 310.159 413.211 311.312 411.898C312.466 410.553 313.042 408.535 313.042 405.844C313.042 403.153 312.466 401.151 311.312 399.838C310.159 398.525 308.638 397.868 306.748 397.868C304.858 397.868 303.32 398.525 302.135 399.838C300.982 401.151 300.406 403.153 300.406 405.844C300.406 408.535 300.982 410.553 302.135 411.898C303.32 413.211 304.858 413.868 306.748 413.868ZM96.0837 485V469L97.381 472.7L82.8224 451.126H89.9816L99.9756 466.501H98.6302L108.624 451.126H115.543L101.033 472.7L102.282 469V485H96.0837ZM124.523 485.48C122.025 485.48 119.863 484.968 118.037 483.943C116.211 482.918 114.785 481.46 113.76 479.571C112.767 477.681 112.271 475.438 112.271 472.844C112.271 470.249 112.767 468.023 113.76 466.165C114.785 464.275 116.211 462.818 118.037 461.793C119.863 460.768 122.025 460.255 124.523 460.255C127.022 460.255 129.184 460.768 131.01 461.793C132.868 462.818 134.293 464.275 135.286 466.165C136.311 468.023 136.824 470.249 136.824 472.844C136.824 475.438 136.311 477.681 135.286 479.571C134.293 481.46 132.868 482.918 131.01 483.943C129.184 484.968 127.022 485.48 124.523 485.48ZM124.523 480.868C126.413 480.868 127.919 480.211 129.04 478.898C130.161 477.553 130.721 475.535 130.721 472.844C130.721 470.153 130.161 468.151 129.04 466.838C127.919 465.525 126.413 464.868 124.523 464.868C122.633 464.868 121.128 465.525 120.007 466.838C118.886 468.151 118.325 470.153 118.325 472.844C118.325 475.535 118.886 477.553 120.007 478.898C121.128 480.211 122.633 480.868 124.523 480.868ZM150.748 485.48C147.769 485.48 145.542 484.664 144.069 483.03C142.596 481.396 141.859 478.898 141.859 475.535V460.736H147.865V475.486C147.865 477.28 148.233 478.61 148.97 479.474C149.707 480.307 150.828 480.724 152.333 480.724C154.031 480.724 155.408 480.147 156.465 478.994C157.555 477.841 158.099 476.319 158.099 474.429V460.736H164.105V485H158.243V480.051H158.916C158.211 481.781 157.138 483.126 155.697 484.087C154.287 485.016 152.638 485.48 150.748 485.48ZM184.291 485V451.126H190.489V466.117H190.585L205.336 451.126H212.831L195.15 468.76L195.198 466.069L213.985 485H206.249L190.585 469.336H190.489V485H184.291ZM215.811 485V466.79C215.811 465.797 215.779 464.788 215.715 463.763C215.651 462.738 215.555 461.729 215.427 460.736H221.241L221.721 465.541H221.144C221.913 463.843 223.05 462.546 224.556 461.649C226.061 460.72 227.807 460.255 229.793 460.255C232.644 460.255 234.79 461.056 236.232 462.658C237.673 464.259 238.394 466.758 238.394 470.153V485H232.388V470.441C232.388 468.487 232.003 467.094 231.235 466.261C230.498 465.396 229.377 464.964 227.871 464.964C226.013 464.964 224.54 465.541 223.451 466.694C222.362 467.847 221.817 469.384 221.817 471.306V485H215.811ZM255.717 485.48C253.218 485.48 251.056 484.968 249.23 483.943C247.405 482.918 245.979 481.46 244.954 479.571C243.961 477.681 243.465 475.438 243.465 472.844C243.465 470.249 243.961 468.023 244.954 466.165C245.979 464.275 247.405 462.818 249.23 461.793C251.056 460.768 253.218 460.255 255.717 460.255C258.215 460.255 260.378 460.768 262.203 461.793C264.061 462.818 265.487 464.275 266.48 466.165C267.505 468.023 268.017 470.249 268.017 472.844C268.017 475.438 267.505 477.681 266.48 479.571C265.487 481.46 264.061 482.918 262.203 483.943C260.378 484.968 258.215 485.48 255.717 485.48ZM255.717 480.868C257.607 480.868 259.112 480.211 260.233 478.898C261.355 477.553 261.915 475.535 261.915 472.844C261.915 470.153 261.355 468.151 260.233 466.838C259.112 465.525 257.607 464.868 255.717 464.868C253.827 464.868 252.322 465.525 251.2 466.838C250.079 468.151 249.519 470.153 249.519 472.844C249.519 475.535 250.079 477.553 251.2 478.898C252.322 480.211 253.827 480.868 255.717 480.868ZM279.454 485L269.989 460.736H276.187L283.01 479.619H281.76L288.679 460.736H292.956L299.827 479.619H298.721L305.496 460.736H311.358L301.893 485H296.607L289.352 465.685H291.899L284.788 485H279.454ZM319.249 474.958V473.036C319.249 471.531 319.537 470.137 320.114 468.856C320.691 467.575 321.684 466.181 323.093 464.676C324.15 463.555 324.887 462.578 325.303 461.745C325.752 460.88 325.976 460.015 325.976 459.15C325.976 458.061 325.56 457.212 324.727 456.604C323.926 455.995 322.805 455.691 321.363 455.691C320.114 455.691 318.881 455.883 317.664 456.267C316.446 456.652 315.293 457.164 314.204 457.805V452.616C315.325 451.975 316.591 451.494 318 451.174C319.441 450.822 320.851 450.646 322.228 450.646C324.118 450.646 325.8 450.934 327.273 451.511C328.779 452.055 329.948 452.904 330.781 454.057C331.646 455.178 332.078 456.62 332.078 458.381C332.078 459.438 331.886 460.463 331.501 461.456C331.149 462.417 330.637 463.346 329.964 464.243C329.291 465.14 328.458 466.037 327.465 466.934C325.896 468.311 324.807 469.513 324.198 470.538C323.59 471.563 323.221 472.588 323.093 473.613L322.901 474.958H319.249ZM317.712 485V478.321H324.438V485H317.712Z" fill="#222533"></path>
</svg>
