<?xml version="1.0" encoding="UTF-8"?>
<svg xmlns="http://www.w3.org/2000/svg" width="417" height="800" viewBox="0 0 417 800" fill="none">
  <rect x="3.17877" y="2.4024" width="410.811" height="795.195" rx="26.4264" fill="white"></rect>
  <rect x="3.17877" y="2.4024" width="410.811" height="795.195" rx="26.4264" stroke="#E9EAEE" stroke-width="4.8048"></rect>
  <path d="M110.605 351V317.126H133.428V321.979H116.563V331.348H132.323V336.249H116.563V346.099H133.428V351H110.605ZM149.802 361.763C147.56 361.763 145.526 361.523 143.7 361.042C141.907 360.562 140.305 359.825 138.896 358.832L140.193 354.508C141.122 355.116 142.083 355.613 143.076 355.997C144.069 356.381 145.094 356.67 146.151 356.862C147.208 357.054 148.281 357.15 149.37 357.15C151.612 357.15 153.278 356.59 154.367 355.468C155.488 354.379 156.049 352.81 156.049 350.76V344.946H156.529C156.017 346.612 154.976 347.941 153.406 348.934C151.869 349.927 150.091 350.423 148.073 350.423C145.895 350.423 143.989 349.943 142.355 348.982C140.753 347.989 139.504 346.58 138.607 344.754C137.71 342.928 137.262 340.782 137.262 338.315C137.262 335.849 137.71 333.719 138.607 331.925C139.504 330.099 140.753 328.706 142.355 327.745C143.989 326.752 145.895 326.255 148.073 326.255C150.123 326.255 151.901 326.752 153.406 327.745C154.944 328.706 155.969 330.019 156.481 331.685L156.049 331.396L156.529 326.736H162.343C162.215 327.729 162.119 328.738 162.055 329.763C161.991 330.788 161.959 331.797 161.959 332.79V350.039C161.959 353.851 160.918 356.75 158.835 358.736C156.785 360.754 153.774 361.763 149.802 361.763ZM149.706 345.811C151.628 345.811 153.15 345.17 154.271 343.889C155.424 342.576 156.001 340.718 156.001 338.315C156.001 335.913 155.424 334.071 154.271 332.79C153.15 331.509 151.628 330.868 149.706 330.868C147.752 330.868 146.199 331.509 145.046 332.79C143.893 334.071 143.316 335.913 143.316 338.315C143.316 340.718 143.893 342.576 145.046 343.889C146.199 345.17 147.752 345.811 149.706 345.811ZM167.968 361.907L166.575 357.15C168.08 356.83 169.345 356.461 170.37 356.045C171.395 355.629 172.244 355.084 172.917 354.411C173.59 353.739 174.15 352.874 174.599 351.817L175.8 348.982L175.656 351.336L165.085 326.736H171.475L179.067 345.667H177.674L185.313 326.736H191.367L180.316 352.345C179.58 354.075 178.779 355.501 177.914 356.622C177.049 357.775 176.12 358.688 175.127 359.36C174.134 360.065 173.045 360.61 171.86 360.994C170.675 361.378 169.377 361.683 167.968 361.907ZM194.537 361.378V332.79C194.537 331.797 194.505 330.788 194.441 329.763C194.377 328.738 194.281 327.729 194.153 326.736H199.966L200.495 331.829H199.966C200.447 330.131 201.456 328.786 202.994 327.793C204.563 326.768 206.373 326.255 208.423 326.255C210.569 326.255 212.443 326.768 214.045 327.793C215.646 328.786 216.895 330.227 217.792 332.117C218.689 333.975 219.138 336.217 219.138 338.844C219.138 341.47 218.689 343.729 217.792 345.619C216.895 347.509 215.646 348.966 214.045 349.991C212.443 350.984 210.569 351.48 208.423 351.48C206.405 351.48 204.627 350.984 203.09 349.991C201.552 348.998 200.527 347.669 200.015 346.003H200.543V361.378H194.537ZM206.741 346.868C208.663 346.868 210.201 346.211 211.354 344.898C212.507 343.553 213.084 341.535 213.084 338.844C213.084 336.153 212.507 334.151 211.354 332.838C210.201 331.525 208.663 330.868 206.741 330.868C204.851 330.868 203.33 331.525 202.177 332.838C201.024 334.151 200.447 336.153 200.447 338.844C200.447 341.535 201.024 343.553 202.177 344.898C203.33 346.211 204.851 346.868 206.741 346.868ZM234.476 351.48C231.593 351.48 229.415 350.728 227.942 349.222C226.468 347.717 225.731 345.458 225.731 342.447V331.252H221.071V326.736H225.731V320.538L231.738 319V326.736H238.224V331.252H231.738V342.063C231.738 343.729 232.058 344.898 232.698 345.571C233.339 346.243 234.22 346.58 235.341 346.58C235.95 346.58 236.462 346.532 236.879 346.435C237.327 346.339 237.76 346.211 238.176 346.051V350.808C237.631 351.032 237.023 351.192 236.35 351.288C235.709 351.416 235.085 351.48 234.476 351.48ZM242.304 351V326.736H248.31V351H242.304ZM241.967 322.171V316.309H248.646V322.171H241.967ZM264.201 351.48C262.087 351.48 260.229 350.984 258.628 349.991C257.026 348.966 255.777 347.509 254.88 345.619C253.983 343.729 253.534 341.47 253.534 338.844C253.534 336.217 253.983 333.975 254.88 332.117C255.777 330.227 257.026 328.786 258.628 327.793C260.229 326.768 262.087 326.255 264.201 326.255C266.251 326.255 268.045 326.768 269.582 327.793C271.152 328.786 272.193 330.131 272.706 331.829H272.177L272.706 326.736H278.471C278.375 327.729 278.279 328.738 278.183 329.763C278.119 330.788 278.087 331.797 278.087 332.79V351H272.129L272.081 346.003H272.658C272.145 347.669 271.104 348.998 269.534 349.991C267.965 350.984 266.187 351.48 264.201 351.48ZM265.883 346.868C267.773 346.868 269.294 346.211 270.447 344.898C271.6 343.553 272.177 341.535 272.177 338.844C272.177 336.153 271.6 334.151 270.447 332.838C269.294 331.525 267.773 330.868 265.883 330.868C263.993 330.868 262.471 331.525 261.318 332.838C260.165 334.151 259.588 336.153 259.588 338.844C259.588 341.535 260.149 343.553 261.27 344.898C262.423 346.211 263.961 346.868 265.883 346.868ZM284.627 351V332.79C284.627 331.797 284.595 330.788 284.531 329.763C284.467 328.738 284.371 327.729 284.243 326.736H290.057L290.537 331.541H289.96C290.729 329.843 291.866 328.546 293.372 327.649C294.877 326.72 296.623 326.255 298.609 326.255C301.46 326.255 303.606 327.056 305.048 328.658C306.489 330.259 307.21 332.758 307.21 336.153V351H301.204V336.441C301.204 334.487 300.819 333.094 300.051 332.261C299.314 331.396 298.193 330.964 296.687 330.964C294.829 330.964 293.356 331.541 292.267 332.694C291.178 333.847 290.633 335.384 290.633 337.306V351H284.627ZM118.239 418L106.275 384.126H112.714L121.939 411.898H120.017L129.963 384.126H134.576L143.801 411.898H142.023L151.681 384.126H157.735L145.675 418H140.534L131.597 391.958H132.654L123.381 418H118.239ZM170.113 418.48C167.614 418.48 165.452 417.968 163.626 416.943C161.801 415.918 160.375 414.46 159.35 412.571C158.357 410.681 157.861 408.438 157.861 405.844C157.861 403.249 158.357 401.023 159.35 399.165C160.375 397.275 161.801 395.818 163.626 394.793C165.452 393.768 167.614 393.255 170.113 393.255C172.611 393.255 174.774 393.768 176.599 394.793C178.457 395.818 179.883 397.275 180.876 399.165C181.901 401.023 182.413 403.249 182.413 405.844C182.413 408.438 181.901 410.681 180.876 412.571C179.883 414.46 178.457 415.918 176.599 416.943C174.774 417.968 172.611 418.48 170.113 418.48ZM170.113 413.868C172.003 413.868 173.508 413.211 174.629 411.898C175.751 410.553 176.311 408.535 176.311 405.844C176.311 403.153 175.751 401.151 174.629 399.838C173.508 398.525 172.003 397.868 170.113 397.868C168.223 397.868 166.717 398.525 165.596 399.838C164.475 401.151 163.915 403.153 163.915 405.844C163.915 408.535 164.475 410.553 165.596 411.898C166.717 413.211 168.223 413.868 170.113 413.868ZM187.593 418V399.79C187.593 398.797 187.561 397.788 187.497 396.763C187.432 395.738 187.336 394.729 187.208 393.736H193.022L193.503 398.541H192.926C193.695 396.843 194.832 395.546 196.337 394.649C197.843 393.72 199.589 393.255 201.575 393.255C204.425 393.255 206.572 394.056 208.013 395.658C209.454 397.259 210.175 399.758 210.175 403.153V418H204.169V403.441C204.169 401.487 203.785 400.094 203.016 399.261C202.279 398.396 201.158 397.964 199.653 397.964C197.795 397.964 196.321 398.541 195.232 399.694C194.143 400.847 193.599 402.384 193.599 404.306V418H187.593ZM225.961 418.48C223.847 418.48 221.973 417.984 220.339 416.991C218.738 415.966 217.488 414.509 216.591 412.619C215.695 410.729 215.246 408.47 215.246 405.844C215.246 403.217 215.695 400.975 216.591 399.117C217.488 397.227 218.738 395.786 220.339 394.793C221.973 393.768 223.847 393.255 225.961 393.255C227.979 393.255 229.757 393.752 231.294 394.745C232.864 395.706 233.905 397.019 234.417 398.685H233.793V382.637H239.799V418H233.889V412.859H234.465C233.953 414.589 232.912 415.966 231.342 416.991C229.805 417.984 228.011 418.48 225.961 418.48ZM227.643 413.868C229.532 413.868 231.054 413.211 232.207 411.898C233.36 410.553 233.937 408.535 233.937 405.844C233.937 403.153 233.36 401.151 232.207 399.838C231.054 398.525 229.532 397.868 227.643 397.868C225.753 397.868 224.215 398.525 223.03 399.838C221.877 401.151 221.3 403.153 221.3 405.844C221.3 408.535 221.877 410.553 223.03 411.898C224.215 413.211 225.753 413.868 227.643 413.868ZM258.063 418.48C253.995 418.48 250.807 417.359 248.501 415.117C246.195 412.875 245.042 409.8 245.042 405.892C245.042 403.361 245.538 401.151 246.531 399.261C247.524 397.371 248.901 395.898 250.663 394.841C252.457 393.784 254.539 393.255 256.909 393.255C259.248 393.255 261.202 393.752 262.771 394.745C264.341 395.738 265.526 397.131 266.327 398.925C267.16 400.719 267.576 402.817 267.576 405.219V406.805H249.894V403.634H263.3L262.483 404.306C262.483 402.064 262.003 400.35 261.042 399.165C260.113 397.98 258.751 397.387 256.957 397.387C254.971 397.387 253.434 398.092 252.345 399.501C251.288 400.911 250.759 402.881 250.759 405.411V406.036C250.759 408.663 251.4 410.633 252.681 411.946C253.995 413.227 255.836 413.868 258.207 413.868C259.584 413.868 260.865 413.692 262.051 413.339C263.268 412.955 264.421 412.346 265.51 411.514L267.288 415.55C266.135 416.478 264.757 417.199 263.156 417.712C261.554 418.224 259.856 418.48 258.063 418.48ZM272.614 418V399.934C272.614 398.909 272.582 397.868 272.518 396.811C272.486 395.754 272.406 394.729 272.278 393.736H278.091L278.764 400.366H277.803C278.124 398.765 278.652 397.435 279.389 396.378C280.158 395.321 281.086 394.537 282.176 394.024C283.265 393.512 284.45 393.255 285.731 393.255C286.308 393.255 286.772 393.287 287.125 393.351C287.477 393.383 287.829 393.463 288.182 393.592L288.134 398.877C287.525 398.621 286.996 398.46 286.548 398.396C286.132 398.332 285.603 398.3 284.962 398.3C283.585 398.3 282.416 398.589 281.455 399.165C280.526 399.742 279.821 400.543 279.341 401.568C278.892 402.593 278.668 403.762 278.668 405.075V418H272.614ZM299.939 418.48C297.857 418.48 295.935 418.24 294.173 417.76C292.443 417.247 290.986 416.543 289.801 415.646L291.482 411.61C292.699 412.442 294.045 413.083 295.518 413.532C296.992 413.98 298.481 414.204 299.987 414.204C301.588 414.204 302.774 413.932 303.542 413.387C304.343 412.843 304.744 412.106 304.744 411.177C304.744 410.44 304.487 409.864 303.975 409.447C303.494 408.999 302.709 408.663 301.62 408.438L296.816 407.526C294.766 407.077 293.196 406.308 292.107 405.219C291.05 404.13 290.521 402.705 290.521 400.943C290.521 399.437 290.922 398.108 291.722 396.955C292.555 395.802 293.724 394.905 295.23 394.264C296.768 393.592 298.561 393.255 300.611 393.255C302.405 393.255 304.087 393.495 305.656 393.976C307.258 394.456 308.603 395.177 309.692 396.138L307.963 400.03C306.97 399.229 305.833 398.605 304.551 398.156C303.27 397.708 302.021 397.483 300.804 397.483C299.138 397.483 297.921 397.788 297.152 398.396C296.383 398.973 295.999 399.726 295.999 400.655C295.999 401.359 296.223 401.952 296.671 402.432C297.152 402.881 297.889 403.217 298.882 403.441L303.686 404.354C305.833 404.771 307.45 405.508 308.539 406.565C309.66 407.59 310.221 408.999 310.221 410.793C310.221 412.394 309.789 413.772 308.924 414.925C308.059 416.078 306.858 416.959 305.32 417.568C303.783 418.176 301.989 418.48 299.939 418.48ZM127.734 485.48C122.897 485.48 119.294 484.279 116.923 481.877C114.585 479.442 113.416 475.855 113.416 471.114V451.126H119.614V471.066C119.614 474.077 120.255 476.351 121.536 477.889C122.849 479.426 124.915 480.195 127.734 480.195C130.425 480.195 132.443 479.426 133.788 477.889C135.166 476.351 135.854 474.077 135.854 471.066V451.126H141.956V471.114C141.956 475.855 140.755 479.442 138.353 481.877C135.982 484.279 132.443 485.48 127.734 485.48ZM148.694 485V466.79C148.694 465.797 148.662 464.788 148.598 463.763C148.534 462.738 148.438 461.729 148.31 460.736H154.124L154.604 465.541H154.028C154.796 463.843 155.934 462.546 157.439 461.649C158.945 460.72 160.69 460.255 162.676 460.255C165.527 460.255 167.673 461.056 169.115 462.658C170.556 464.259 171.277 466.758 171.277 470.153V485H165.271V470.441C165.271 468.487 164.887 467.094 164.118 466.261C163.381 465.396 162.26 464.964 160.754 464.964C158.897 464.964 157.423 465.541 156.334 466.694C155.245 467.847 154.7 469.384 154.7 471.306V485H148.694ZM184.522 485L174.047 460.736H180.438L188.029 479.715H186.54L194.323 460.736H200.329L189.807 485H184.522ZM214.801 485.48C210.732 485.48 207.545 484.359 205.239 482.117C202.933 479.875 201.78 476.8 201.78 472.892C201.78 470.361 202.276 468.151 203.269 466.261C204.262 464.371 205.639 462.898 207.401 461.841C209.195 460.784 211.277 460.255 213.647 460.255C215.986 460.255 217.94 460.752 219.509 461.745C221.079 462.738 222.264 464.131 223.065 465.925C223.898 467.719 224.314 469.817 224.314 472.219V473.805H206.632V470.634H220.038L219.221 471.306C219.221 469.064 218.741 467.35 217.78 466.165C216.851 464.98 215.489 464.387 213.695 464.387C211.709 464.387 210.172 465.092 209.083 466.501C208.026 467.911 207.497 469.881 207.497 472.411V473.036C207.497 475.663 208.138 477.633 209.419 478.946C210.732 480.227 212.574 480.868 214.945 480.868C216.322 480.868 217.603 480.692 218.789 480.339C220.006 479.955 221.159 479.346 222.248 478.514L224.026 482.55C222.873 483.478 221.495 484.199 219.894 484.712C218.292 485.224 216.594 485.48 214.801 485.48ZM229.4 485V460.736H235.406V485H229.4ZM229.064 456.171V450.309H235.742V456.171H229.064ZM241.928 485V449.637H247.934V485H241.928ZM266.18 485.48C262.112 485.48 258.925 484.359 256.619 482.117C254.312 479.875 253.159 476.8 253.159 472.892C253.159 470.361 253.656 468.151 254.649 466.261C255.642 464.371 257.019 462.898 258.781 461.841C260.574 460.784 262.657 460.255 265.027 460.255C267.365 460.255 269.319 460.752 270.889 461.745C272.458 462.738 273.644 464.131 274.444 465.925C275.277 467.719 275.694 469.817 275.694 472.219V473.805H258.012V470.634H271.417L270.6 471.306C270.6 469.064 270.12 467.35 269.159 466.165C268.23 464.98 266.869 464.387 265.075 464.387C263.089 464.387 261.551 465.092 260.462 466.501C259.405 467.911 258.877 469.881 258.877 472.411V473.036C258.877 475.663 259.517 477.633 260.799 478.946C262.112 480.227 263.954 480.868 266.324 480.868C267.702 480.868 268.983 480.692 270.168 480.339C271.385 479.955 272.538 479.346 273.628 478.514L275.405 482.55C274.252 483.478 272.875 484.199 271.273 484.712C269.672 485.224 267.974 485.48 266.18 485.48ZM290.197 485.48C288.083 485.48 286.209 484.984 284.575 483.991C282.974 482.966 281.724 481.509 280.828 479.619C279.931 477.729 279.482 475.47 279.482 472.844C279.482 470.217 279.931 467.975 280.828 466.117C281.724 464.227 282.974 462.786 284.575 461.793C286.209 460.768 288.083 460.255 290.197 460.255C292.215 460.255 293.993 460.752 295.53 461.745C297.1 462.706 298.141 464.019 298.653 465.685H298.029V449.637H304.035V485H298.125V479.859H298.701C298.189 481.589 297.148 482.966 295.578 483.991C294.041 484.984 292.247 485.48 290.197 485.48ZM291.879 480.868C293.769 480.868 295.29 480.211 296.443 478.898C297.596 477.553 298.173 475.535 298.173 472.844C298.173 470.153 297.596 468.151 296.443 466.838C295.29 465.525 293.769 464.868 291.879 464.868C289.989 464.868 288.451 465.525 287.266 466.838C286.113 468.151 285.536 470.153 285.536 472.844C285.536 475.535 286.113 477.553 287.266 478.898C288.451 480.211 289.989 480.868 291.879 480.868Z" fill="#222533"></path>
</svg>
