<?xml version="1.0" encoding="UTF-8"?>
<svg xmlns="http://www.w3.org/2000/svg" width="416" height="800" viewBox="0 0 416 800" fill="none">
  <rect x="2.73541" y="2.4024" width="410.811" height="795.195" rx="26.4264" fill="white"></rect>
  <rect x="2.73541" y="2.4024" width="410.811" height="795.195" rx="26.4264" stroke="#E9EAEE" stroke-width="4.8048"></rect>
  <path d="M89.7752 351V317.126H95.2046L107.649 345.138H106.16L118.604 317.126H123.985V351H118.364V325.871H120.094L108.706 351H105.006L93.619 325.871H95.3968V351H89.7752ZM142.009 351.48C139.511 351.48 137.348 350.968 135.523 349.943C133.697 348.918 132.271 347.46 131.246 345.571C130.253 343.681 129.757 341.438 129.757 338.844C129.757 336.249 130.253 334.023 131.246 332.165C132.271 330.275 133.697 328.818 135.523 327.793C137.348 326.768 139.511 326.255 142.009 326.255C144.508 326.255 146.67 326.768 148.496 327.793C150.353 328.818 151.779 330.275 152.772 332.165C153.797 334.023 154.309 336.249 154.309 338.844C154.309 341.438 153.797 343.681 152.772 345.571C151.779 347.46 150.353 348.918 148.496 349.943C146.67 350.968 144.508 351.48 142.009 351.48ZM142.009 346.868C143.899 346.868 145.404 346.211 146.526 344.898C147.647 343.553 148.207 341.535 148.207 338.844C148.207 336.153 147.647 334.151 146.526 332.838C145.404 331.525 143.899 330.868 142.009 330.868C140.119 330.868 138.614 331.525 137.493 332.838C136.371 334.151 135.811 336.153 135.811 338.844C135.811 341.535 136.371 343.553 137.493 344.898C138.614 346.211 140.119 346.868 142.009 346.868ZM169.633 351.48C166.75 351.48 164.571 350.728 163.098 349.222C161.625 347.717 160.888 345.458 160.888 342.447V331.252H156.227V326.736H160.888V320.538L166.894 319V326.736H173.38V331.252H166.894V342.063C166.894 343.729 167.214 344.898 167.855 345.571C168.495 346.243 169.376 346.58 170.497 346.58C171.106 346.58 171.619 346.532 172.035 346.435C172.483 346.339 172.916 346.211 173.332 346.051V350.808C172.788 351.032 172.179 351.192 171.506 351.288C170.866 351.416 170.241 351.48 169.633 351.48ZM177.46 351V326.736H183.466V351H177.46ZM177.124 322.171V316.309H183.802V322.171H177.124ZM197.099 351L186.625 326.736H193.015L200.607 345.715H199.117L206.901 326.736H212.907L202.384 351H197.099ZM225.024 351.48C222.91 351.48 221.052 350.984 219.45 349.991C217.849 348.966 216.599 347.509 215.702 345.619C214.805 343.729 214.357 341.47 214.357 338.844C214.357 336.217 214.805 333.975 215.702 332.117C216.599 330.227 217.849 328.786 219.45 327.793C221.052 326.768 222.91 326.255 225.024 326.255C227.074 326.255 228.868 326.768 230.405 327.793C231.975 328.786 233.016 330.131 233.528 331.829H233L233.528 326.736H239.294C239.198 327.729 239.102 328.738 239.006 329.763C238.942 330.788 238.91 331.797 238.91 332.79V351H232.952L232.904 346.003H233.48C232.968 347.669 231.927 348.998 230.357 349.991C228.787 350.984 227.01 351.48 225.024 351.48ZM226.705 346.868C228.595 346.868 230.117 346.211 231.27 344.898C232.423 343.553 233 341.535 233 338.844C233 336.153 232.423 334.151 231.27 332.838C230.117 331.525 228.595 330.868 226.705 330.868C224.815 330.868 223.294 331.525 222.141 332.838C220.988 334.151 220.411 336.153 220.411 338.844C220.411 341.535 220.972 343.553 222.093 344.898C223.246 346.211 224.783 346.868 226.705 346.868ZM255.828 351.48C252.945 351.48 250.767 350.728 249.294 349.222C247.82 347.717 247.083 345.458 247.083 342.447V331.252H242.423V326.736H247.083V320.538L253.089 319V326.736H259.576V331.252H253.089V342.063C253.089 343.729 253.41 344.898 254.05 345.571C254.691 346.243 255.572 346.58 256.693 346.58C257.302 346.58 257.814 346.532 258.231 346.435C258.679 346.339 259.111 346.211 259.528 346.051V350.808C258.983 351.032 258.375 351.192 257.702 351.288C257.061 351.416 256.437 351.48 255.828 351.48ZM263.655 351V326.736H269.661V351H263.655ZM263.319 322.171V316.309H269.998V322.171H263.319ZM287.139 351.48C284.64 351.48 282.478 350.968 280.652 349.943C278.826 348.918 277.401 347.46 276.376 345.571C275.383 343.681 274.886 341.438 274.886 338.844C274.886 336.249 275.383 334.023 276.376 332.165C277.401 330.275 278.826 328.818 280.652 327.793C282.478 326.768 284.64 326.255 287.139 326.255C289.637 326.255 291.799 326.768 293.625 327.793C295.483 328.818 296.908 330.275 297.901 332.165C298.926 334.023 299.439 336.249 299.439 338.844C299.439 341.438 298.926 343.681 297.901 345.571C296.908 347.46 295.483 348.918 293.625 349.943C291.799 350.968 289.637 351.48 287.139 351.48ZM287.139 346.868C289.028 346.868 290.534 346.211 291.655 344.898C292.776 343.553 293.337 341.535 293.337 338.844C293.337 336.153 292.776 334.151 291.655 332.838C290.534 331.525 289.028 330.868 287.139 330.868C285.249 330.868 283.743 331.525 282.622 332.838C281.501 334.151 280.94 336.153 280.94 338.844C280.94 341.535 281.501 343.553 282.622 344.898C283.743 346.211 285.249 346.868 287.139 346.868ZM304.618 351V332.79C304.618 331.797 304.586 330.788 304.522 329.763C304.458 328.738 304.362 327.729 304.234 326.736H310.048L310.528 331.541H309.952C310.72 329.843 311.858 328.546 313.363 327.649C314.869 326.72 316.614 326.255 318.6 326.255C321.451 326.255 323.597 327.056 325.039 328.658C326.48 330.259 327.201 332.758 327.201 336.153V351H321.195V336.441C321.195 334.487 320.81 333.094 320.042 332.261C319.305 331.396 318.184 330.964 316.678 330.964C314.82 330.964 313.347 331.541 312.258 332.694C311.169 333.847 310.624 335.384 310.624 337.306V351H304.618ZM74.4775 418V384.126H89.3243C93.008 384.126 95.8429 384.911 97.8289 386.48C99.8148 388.018 100.808 390.164 100.808 392.919C100.808 394.969 100.199 396.699 98.982 398.108C97.7648 399.518 96.0831 400.462 93.937 400.943V400.222C96.4034 400.575 98.3093 401.471 99.6547 402.913C101.032 404.322 101.721 406.196 101.721 408.535C101.721 411.546 100.68 413.884 98.5976 415.55C96.5155 417.183 93.6166 418 89.9009 418H74.4775ZM80.4355 413.291H89.1802C91.2623 413.291 92.8799 412.907 94.0331 412.138C95.1862 411.337 95.7628 410.04 95.7628 408.246C95.7628 406.42 95.1862 405.123 94.0331 404.354C92.8799 403.554 91.2623 403.153 89.1802 403.153H80.4355V413.291ZM80.4355 398.492H88.2673C90.4775 398.492 92.1111 398.092 93.1682 397.291C94.2573 396.458 94.8018 395.241 94.8018 393.64C94.8018 392.038 94.2573 390.837 93.1682 390.036C92.1111 389.203 90.4775 388.787 88.2673 388.787H80.4355V398.492ZM118.126 418.48C115.627 418.48 113.465 417.968 111.639 416.943C109.813 415.918 108.388 414.46 107.363 412.571C106.37 410.681 105.874 408.438 105.874 405.844C105.874 403.249 106.37 401.023 107.363 399.165C108.388 397.275 109.813 395.818 111.639 394.793C113.465 393.768 115.627 393.255 118.126 393.255C120.624 393.255 122.786 393.768 124.612 394.793C126.47 395.818 127.896 397.275 128.889 399.165C129.914 401.023 130.426 403.249 130.426 405.844C130.426 408.438 129.914 410.681 128.889 412.571C127.896 414.46 126.47 415.918 124.612 416.943C122.786 417.968 120.624 418.48 118.126 418.48ZM118.126 413.868C120.016 413.868 121.521 413.211 122.642 411.898C123.763 410.553 124.324 408.535 124.324 405.844C124.324 403.153 123.763 401.151 122.642 399.838C121.521 398.525 120.016 397.868 118.126 397.868C116.236 397.868 114.73 398.525 113.609 399.838C112.488 401.151 111.928 403.153 111.928 405.844C111.928 408.535 112.488 410.553 113.609 411.898C114.73 413.211 116.236 413.868 118.126 413.868ZM146.56 418.48C144.062 418.48 141.9 417.968 140.074 416.943C138.248 415.918 136.823 414.46 135.798 412.571C134.805 410.681 134.308 408.438 134.308 405.844C134.308 403.249 134.805 401.023 135.798 399.165C136.823 397.275 138.248 395.818 140.074 394.793C141.9 393.768 144.062 393.255 146.56 393.255C149.059 393.255 151.221 393.768 153.047 394.793C154.905 395.818 156.33 397.275 157.323 399.165C158.348 401.023 158.861 403.249 158.861 405.844C158.861 408.438 158.348 410.681 157.323 412.571C156.33 414.46 154.905 415.918 153.047 416.943C151.221 417.968 149.059 418.48 146.56 418.48ZM146.56 413.868C148.45 413.868 149.956 413.211 151.077 411.898C152.198 410.553 152.759 408.535 152.759 405.844C152.759 403.153 152.198 401.151 151.077 399.838C149.956 398.525 148.45 397.868 146.56 397.868C144.671 397.868 143.165 398.525 142.044 399.838C140.923 401.151 140.362 403.153 140.362 405.844C140.362 408.535 140.923 410.553 142.044 411.898C143.165 413.211 144.671 413.868 146.56 413.868ZM172.689 418.48C170.607 418.48 168.685 418.24 166.923 417.76C165.193 417.247 163.736 416.543 162.551 415.646L164.232 411.61C165.45 412.442 166.795 413.083 168.268 413.532C169.742 413.98 171.231 414.204 172.737 414.204C174.338 414.204 175.524 413.932 176.292 413.387C177.093 412.843 177.494 412.106 177.494 411.177C177.494 410.44 177.237 409.864 176.725 409.447C176.244 408.999 175.46 408.663 174.371 408.438L169.566 407.526C167.516 407.077 165.946 406.308 164.857 405.219C163.8 404.13 163.271 402.705 163.271 400.943C163.271 399.437 163.672 398.108 164.473 396.955C165.305 395.802 166.475 394.905 167.98 394.264C169.518 393.592 171.311 393.255 173.362 393.255C175.155 393.255 176.837 393.495 178.407 393.976C180.008 394.456 181.354 395.177 182.443 396.138L180.713 400.03C179.72 399.229 178.583 398.605 177.301 398.156C176.02 397.708 174.771 397.483 173.554 397.483C171.888 397.483 170.671 397.788 169.902 398.396C169.133 398.973 168.749 399.726 168.749 400.655C168.749 401.359 168.973 401.952 169.422 402.432C169.902 402.881 170.639 403.217 171.632 403.441L176.437 404.354C178.583 404.771 180.2 405.508 181.289 406.565C182.411 407.59 182.971 408.999 182.971 410.793C182.971 412.394 182.539 413.772 181.674 414.925C180.809 416.078 179.608 416.959 178.07 417.568C176.533 418.176 174.739 418.48 172.689 418.48ZM198.255 418.48C195.372 418.48 193.194 417.728 191.72 416.222C190.247 414.717 189.51 412.458 189.51 409.447V398.252H184.85V393.736H189.51V387.538L195.516 386V393.736H202.003V398.252H195.516V409.063C195.516 410.729 195.836 411.898 196.477 412.571C197.118 413.243 197.999 413.58 199.12 413.58C199.728 413.58 200.241 413.532 200.657 413.435C201.106 413.339 201.538 413.211 201.955 413.051V417.808C201.41 418.032 200.801 418.192 200.129 418.288C199.488 418.416 198.864 418.48 198.255 418.48ZM205.503 400.366V393.736H212.23V400.366H205.503ZM205.503 418V411.321H212.23V418H205.503ZM231.76 418V384.126H244.06C247.936 384.126 251.203 384.799 253.862 386.144C256.553 387.457 258.587 389.379 259.964 391.91C261.341 394.408 262.03 397.451 262.03 401.039C262.03 404.595 261.341 407.638 259.964 410.168C258.587 412.699 256.553 414.637 253.862 415.982C251.203 417.327 247.936 418 244.06 418H231.76ZM237.958 412.859H243.676C247.776 412.859 250.819 411.882 252.805 409.928C254.791 407.974 255.784 405.011 255.784 401.039C255.784 397.035 254.791 394.072 252.805 392.15C250.819 390.196 247.776 389.219 243.676 389.219H237.958V412.859ZM277.248 418.48C275.134 418.48 273.276 417.984 271.674 416.991C270.073 415.966 268.823 414.509 267.926 412.619C267.03 410.729 266.581 408.47 266.581 405.844C266.581 403.217 267.03 400.975 267.926 399.117C268.823 397.227 270.073 395.786 271.674 394.793C273.276 393.768 275.134 393.255 277.248 393.255C279.298 393.255 281.092 393.768 282.629 394.793C284.199 395.786 285.24 397.131 285.752 398.829H285.224L285.752 393.736H291.518C291.422 394.729 291.326 395.738 291.23 396.763C291.166 397.788 291.134 398.797 291.134 399.79V418H285.176L285.128 413.003H285.704C285.192 414.669 284.151 415.998 282.581 416.991C281.012 417.984 279.234 418.48 277.248 418.48ZM278.929 413.868C280.819 413.868 282.341 413.211 283.494 411.898C284.647 410.553 285.224 408.535 285.224 405.844C285.224 403.153 284.647 401.151 283.494 399.838C282.341 398.525 280.819 397.868 278.929 397.868C277.04 397.868 275.518 398.525 274.365 399.838C273.212 401.151 272.635 403.153 272.635 405.844C272.635 408.535 273.196 410.553 274.317 411.898C275.47 413.211 277.008 413.868 278.929 413.868ZM297.674 418V393.736H303.68V418H297.674ZM297.338 389.171V383.309H304.016V389.171H297.338ZM310.202 418V382.637H316.208V418H310.202ZM322.25 428.907L320.856 424.15C322.362 423.83 323.627 423.461 324.652 423.045C325.677 422.629 326.526 422.084 327.199 421.411C327.871 420.739 328.432 419.874 328.88 418.817L330.082 415.982L329.937 418.336L319.367 393.736H325.757L333.349 412.667H331.955L339.595 393.736H345.649L334.598 419.345C333.861 421.075 333.06 422.501 332.196 423.622C331.331 424.775 330.402 425.688 329.409 426.36C328.416 427.065 327.327 427.61 326.142 427.994C324.956 428.378 323.659 428.683 322.25 428.907ZM77.0817 485V451.126H83.2799V485H77.0817ZM90.2555 485V466.79C90.2555 465.797 90.2234 464.788 90.1594 463.763C90.0953 462.738 89.9992 461.729 89.8711 460.736H95.6849L96.1654 465.541H95.5888C96.3576 463.843 97.4947 462.546 99.0002 461.649C100.506 460.72 102.251 460.255 104.237 460.255C107.088 460.255 109.234 461.056 110.676 462.658C112.117 464.259 112.838 466.758 112.838 470.153V485H106.832V470.441C106.832 468.487 106.448 467.094 105.679 466.261C104.942 465.396 103.821 464.964 102.316 464.964C100.458 464.964 98.9842 465.541 97.8951 466.694C96.806 467.847 96.2615 469.384 96.2615 471.306V485H90.2555ZM127.855 485.48C125.773 485.48 123.851 485.24 122.089 484.76C120.359 484.247 118.902 483.543 117.717 482.646L119.398 478.61C120.616 479.442 121.961 480.083 123.435 480.532C124.908 480.98 126.397 481.204 127.903 481.204C129.505 481.204 130.69 480.932 131.459 480.387C132.259 479.843 132.66 479.106 132.66 478.177C132.66 477.44 132.403 476.864 131.891 476.447C131.41 475.999 130.626 475.663 129.537 475.438L124.732 474.526C122.682 474.077 121.112 473.308 120.023 472.219C118.966 471.13 118.438 469.705 118.438 467.943C118.438 466.437 118.838 465.108 119.639 463.955C120.472 462.802 121.641 461.905 123.146 461.264C124.684 460.592 126.478 460.255 128.528 460.255C130.321 460.255 132.003 460.495 133.573 460.976C135.174 461.456 136.52 462.177 137.609 463.138L135.879 467.03C134.886 466.229 133.749 465.605 132.468 465.156C131.186 464.708 129.937 464.483 128.72 464.483C127.054 464.483 125.837 464.788 125.068 465.396C124.299 465.973 123.915 466.726 123.915 467.655C123.915 468.359 124.139 468.952 124.588 469.432C125.068 469.881 125.805 470.217 126.798 470.441L131.603 471.354C133.749 471.771 135.366 472.508 136.456 473.565C137.577 474.59 138.137 475.999 138.137 477.793C138.137 479.394 137.705 480.772 136.84 481.925C135.975 483.078 134.774 483.959 133.236 484.568C131.699 485.176 129.905 485.48 127.855 485.48ZM143.277 495.378V466.79C143.277 465.797 143.245 464.788 143.181 463.763C143.117 462.738 143.021 461.729 142.893 460.736H148.707L149.235 465.829H148.707C149.187 464.131 150.196 462.786 151.734 461.793C153.303 460.768 155.113 460.255 157.163 460.255C159.309 460.255 161.183 460.768 162.785 461.793C164.386 462.786 165.636 464.227 166.533 466.117C167.429 467.975 167.878 470.217 167.878 472.844C167.878 475.47 167.429 477.729 166.533 479.619C165.636 481.509 164.386 482.966 162.785 483.991C161.183 484.984 159.309 485.48 157.163 485.48C155.145 485.48 153.367 484.984 151.83 483.991C150.292 482.998 149.267 481.669 148.755 480.003H149.283V495.378H143.277ZM155.481 480.868C157.403 480.868 158.941 480.211 160.094 478.898C161.247 477.553 161.824 475.535 161.824 472.844C161.824 470.153 161.247 468.151 160.094 466.838C158.941 465.525 157.403 464.868 155.481 464.868C153.592 464.868 152.07 465.525 150.917 466.838C149.764 468.151 149.187 470.153 149.187 472.844C149.187 475.535 149.764 477.553 150.917 478.898C152.07 480.211 153.592 480.868 155.481 480.868ZM173.073 485V460.736H179.079V485H173.073ZM172.736 456.171V450.309H179.415V456.171H172.736ZM185.553 485V466.934C185.553 465.909 185.521 464.868 185.457 463.811C185.425 462.754 185.345 461.729 185.216 460.736H191.03L191.703 467.366H190.742C191.062 465.765 191.591 464.435 192.328 463.378C193.096 462.321 194.025 461.537 195.114 461.024C196.203 460.512 197.389 460.255 198.67 460.255C199.246 460.255 199.711 460.287 200.063 460.351C200.416 460.383 200.768 460.463 201.12 460.592L201.072 465.877C200.464 465.621 199.935 465.46 199.487 465.396C199.07 465.332 198.542 465.3 197.901 465.3C196.524 465.3 195.355 465.589 194.394 466.165C193.465 466.742 192.76 467.543 192.28 468.568C191.831 469.593 191.607 470.762 191.607 472.075V485H185.553ZM213.598 485.48C211.484 485.48 209.626 484.984 208.025 483.991C206.423 482.966 205.174 481.509 204.277 479.619C203.38 477.729 202.932 475.47 202.932 472.844C202.932 470.217 203.38 467.975 204.277 466.117C205.174 464.227 206.423 462.786 208.025 461.793C209.626 460.768 211.484 460.255 213.598 460.255C215.648 460.255 217.442 460.768 218.98 461.793C220.549 462.786 221.59 464.131 222.103 465.829H221.574L222.103 460.736H227.868C227.772 461.729 227.676 462.738 227.58 463.763C227.516 464.788 227.484 465.797 227.484 466.79V485H221.526L221.478 480.003H222.055C221.542 481.669 220.501 482.998 218.932 483.991C217.362 484.984 215.584 485.48 213.598 485.48ZM215.28 480.868C217.17 480.868 218.691 480.211 219.844 478.898C220.998 477.553 221.574 475.535 221.574 472.844C221.574 470.153 220.998 468.151 219.844 466.838C218.691 465.525 217.17 464.868 215.28 464.868C213.39 464.868 211.868 465.525 210.715 466.838C209.562 468.151 208.986 470.153 208.986 472.844C208.986 475.535 209.546 477.553 210.667 478.898C211.82 480.211 213.358 480.868 215.28 480.868ZM244.403 485.48C241.52 485.48 239.342 484.728 237.868 483.222C236.395 481.717 235.658 479.458 235.658 476.447V465.252H230.997V460.736H235.658V454.538L241.664 453V460.736H248.15V465.252H241.664V476.063C241.664 477.729 241.984 478.898 242.625 479.571C243.265 480.243 244.146 480.58 245.267 480.58C245.876 480.58 246.389 480.532 246.805 480.435C247.253 480.339 247.686 480.211 248.102 480.051V484.808C247.558 485.032 246.949 485.192 246.276 485.288C245.636 485.416 245.011 485.48 244.403 485.48ZM252.23 485V460.736H258.236V485H252.23ZM251.894 456.171V450.309H258.572V456.171H251.894ZM275.713 485.48C273.215 485.48 271.052 484.968 269.227 483.943C267.401 482.918 265.975 481.46 264.95 479.571C263.957 477.681 263.461 475.438 263.461 472.844C263.461 470.249 263.957 468.023 264.95 466.165C265.975 464.275 267.401 462.818 269.227 461.793C271.052 460.768 273.215 460.255 275.713 460.255C278.212 460.255 280.374 460.768 282.2 461.793C284.057 462.818 285.483 464.275 286.476 466.165C287.501 468.023 288.013 470.249 288.013 472.844C288.013 475.438 287.501 477.681 286.476 479.571C285.483 481.46 284.057 482.918 282.2 483.943C280.374 484.968 278.212 485.48 275.713 485.48ZM275.713 480.868C277.603 480.868 279.108 480.211 280.23 478.898C281.351 477.553 281.911 475.535 281.911 472.844C281.911 470.153 281.351 468.151 280.23 466.838C279.108 465.525 277.603 464.868 275.713 464.868C273.823 464.868 272.318 465.525 271.197 466.838C270.075 468.151 269.515 470.153 269.515 472.844C269.515 475.535 270.075 477.553 271.197 478.898C272.318 480.211 273.823 480.868 275.713 480.868ZM293.193 485V466.79C293.193 465.797 293.161 464.788 293.097 463.763C293.033 462.738 292.937 461.729 292.808 460.736H298.622L299.103 465.541H298.526C299.295 463.843 300.432 462.546 301.938 461.649C303.443 460.72 305.189 460.255 307.175 460.255C310.026 460.255 312.172 461.056 313.613 462.658C315.055 464.259 315.775 466.758 315.775 470.153V485H309.769V470.441C309.769 468.487 309.385 467.094 308.616 466.261C307.879 465.396 306.758 464.964 305.253 464.964C303.395 464.964 301.922 465.541 300.832 466.694C299.743 467.847 299.199 469.384 299.199 471.306V485H293.193ZM330.792 485.48C328.71 485.48 326.788 485.24 325.026 484.76C323.297 484.247 321.839 483.543 320.654 482.646L322.336 478.61C323.553 479.442 324.898 480.083 326.372 480.532C327.845 480.98 329.335 481.204 330.84 481.204C332.442 481.204 333.627 480.932 334.396 480.387C335.197 479.843 335.597 479.106 335.597 478.177C335.597 477.44 335.341 476.864 334.828 476.447C334.348 475.999 333.563 475.663 332.474 475.438L327.669 474.526C325.619 474.077 324.05 473.308 322.96 472.219C321.903 471.13 321.375 469.705 321.375 467.943C321.375 466.437 321.775 465.108 322.576 463.955C323.409 462.802 324.578 461.905 326.084 461.264C327.621 460.592 329.415 460.255 331.465 460.255C333.259 460.255 334.94 460.495 336.51 460.976C338.112 461.456 339.457 462.177 340.546 463.138L338.816 467.03C337.823 466.229 336.686 465.605 335.405 465.156C334.124 464.708 332.874 464.483 331.657 464.483C329.991 464.483 328.774 464.788 328.005 465.396C327.237 465.973 326.852 466.726 326.852 467.655C326.852 468.359 327.077 468.952 327.525 469.432C328.005 469.881 328.742 470.217 329.735 470.441L334.54 471.354C336.686 471.771 338.304 472.508 339.393 473.565C340.514 474.59 341.075 475.999 341.075 477.793C341.075 479.394 340.642 480.772 339.777 481.925C338.912 483.078 337.711 483.959 336.174 484.568C334.636 485.176 332.842 485.48 330.792 485.48Z" fill="#222533"></path>
</svg>
