<svg width="20" height="21" viewBox="0 0 20 21" fill="none" xmlns="http://www.w3.org/2000/svg">
<g clip-path="url(#clip0_6285_1322)">
<path d="M19.3776 6.93078C18.9425 5.88398 18.0601 4.75375 17.369 4.39648C17.8618 5.35109 18.2039 6.37626 18.383 7.43555L18.3848 7.45234C17.2527 4.63 15.333 3.49203 13.7652 1.01406C13.6842 0.887747 13.6056 0.759939 13.5294 0.630702C13.4901 0.56319 13.4533 0.494264 13.4191 0.424062C13.354 0.29814 13.3039 0.165051 13.2697 0.027499C13.2698 0.0211446 13.2675 0.0149904 13.2633 0.0102178C13.2591 0.00544517 13.2533 0.00239034 13.247 0.00163964C13.2408 0.000104494 13.2343 0.000104494 13.2281 0.00163964C13.2269 0.00163964 13.2248 0.00398339 13.2232 0.00453027C13.2216 0.00507714 13.2183 0.00734277 13.216 0.00835839L13.2198 0.00163964C10.705 1.47422 9.85164 4.20015 9.77312 5.56367C8.7688 5.63266 7.80858 6.00274 7.01773 6.62562C6.93524 6.55571 6.849 6.49035 6.75937 6.42984C6.5312 5.63133 6.52148 4.78621 6.73125 3.98266C5.80767 4.43003 4.98702 5.06427 4.32125 5.84523H4.31656C3.91977 5.34226 3.94766 3.68375 3.97039 3.33726C3.85302 3.3845 3.74097 3.44399 3.63609 3.51476C3.28581 3.76479 2.95834 4.04531 2.6575 4.35305C2.31474 4.70063 2.00167 5.07629 1.72156 5.47609V5.47758V5.47578C1.07796 6.38844 0.621392 7.41948 0.378203 8.50945L0.364844 8.57555C0.327896 8.78329 0.295077 8.99174 0.266406 9.20078C0.266406 9.20828 0.264844 9.21523 0.264063 9.22273C0.176381 9.67824 0.12207 10.1395 0.101562 10.603V10.6547C0.108281 18.3626 8.45656 23.1727 15.1284 19.3129C16.3982 18.5783 17.491 17.5737 18.3296 16.3701C19.1683 15.1665 19.7322 13.7934 19.9816 12.3478C19.9984 12.2187 20.012 12.0908 20.027 11.9603C20.2332 10.2559 20.01 8.52693 19.3776 6.93078ZM7.83766 14.7681C7.88445 14.7906 7.92836 14.8149 7.97641 14.8363L7.98336 14.8408C7.93443 14.8173 7.88586 14.7931 7.83766 14.7681ZM18.3855 7.45469V7.44508L18.3873 7.4557L18.3855 7.45469Z" fill="url(#paint0_linear_6285_1322)"/>
<path d="M19.3776 6.93078C18.9425 5.88398 18.0601 4.75375 17.369 4.39648C17.8618 5.35109 18.2039 6.37626 18.383 7.43555V7.44508L18.3848 7.4557C19.1565 9.66409 19.0448 12.0853 18.0732 14.2133C16.9257 16.6755 14.148 19.1991 9.80023 19.0764C5.10242 18.9434 0.965156 15.4574 0.191719 10.8916C0.0509375 10.1716 0.191719 9.80656 0.2625 9.22141C0.165906 9.6759 0.112026 10.1384 0.101562 10.603V10.6547C0.108281 18.3626 8.45656 23.1727 15.1284 19.3129C16.3982 18.5783 17.491 17.5737 18.3296 16.3701C19.1683 15.1665 19.7322 13.7934 19.9816 12.3478C19.9984 12.2187 20.012 12.0908 20.027 11.9603C20.2332 10.2559 20.01 8.52693 19.3776 6.93078Z" fill="url(#paint1_radial_6285_1322)"/>
<path d="M19.3776 6.93078C18.9425 5.88398 18.0601 4.75375 17.369 4.39648C17.8618 5.35109 18.2039 6.37626 18.383 7.43555V7.44508L18.3848 7.4557C19.1565 9.66409 19.0448 12.0853 18.0732 14.2133C16.9257 16.6755 14.148 19.1991 9.80023 19.0764C5.10242 18.9434 0.965156 15.4574 0.191719 10.8916C0.0509375 10.1716 0.191719 9.80656 0.2625 9.22141C0.165906 9.6759 0.112026 10.1384 0.101562 10.603V10.6547C0.108281 18.3626 8.45656 23.1727 15.1284 19.3129C16.3982 18.5783 17.491 17.5737 18.3296 16.3701C19.1683 15.1665 19.7322 13.7934 19.9816 12.3478C19.9984 12.2187 20.012 12.0908 20.027 11.9603C20.2332 10.2559 20.01 8.52693 19.3776 6.93078Z" fill="url(#paint2_radial_6285_1322)"/>
<path d="M14.5121 8.10756C14.5338 8.12279 14.554 8.13803 14.5744 8.15326C14.3228 7.70731 14.0098 7.299 13.6444 6.94037C10.5325 3.82795 12.8288 0.191855 13.2161 0.00716797L13.2199 0.00146484C10.7051 1.47404 9.85171 4.19998 9.77319 5.5635C9.88999 5.55545 10.0057 5.54561 10.1251 5.54561C11.0174 5.54726 11.8934 5.78518 12.664 6.23517C13.4345 6.68517 14.0722 7.3312 14.5121 8.10756Z" fill="url(#paint3_radial_6285_1322)"/>
<path d="M10.1314 8.72917C10.1148 8.97823 9.23487 9.83714 8.92722 9.83714C6.08011 9.83714 5.61792 11.5595 5.61792 11.5595C5.74401 13.0098 6.75464 14.2043 7.97628 14.8362C8.03206 14.8652 8.0887 14.8913 8.14526 14.9168C8.24209 14.9598 8.34012 14.9999 8.43925 15.0372C8.85851 15.1856 9.29762 15.2703 9.74198 15.2885C14.7323 15.5226 15.699 9.32104 12.0978 7.52144C12.9473 7.41087 13.8077 7.61977 14.5119 8.10761C14.072 7.33124 13.4343 6.68522 12.6638 6.23522C11.8932 5.78523 11.0172 5.54731 10.1249 5.54565C10.006 5.54565 9.88979 5.5555 9.773 5.56354C8.76867 5.63253 7.80845 6.00261 7.01761 6.6255C7.17026 6.75472 7.34261 6.92729 7.70558 7.28503C8.38495 7.9544 10.1275 8.64776 10.1314 8.72917Z" fill="url(#paint4_radial_6285_1322)"/>
<path d="M10.1314 8.72917C10.1148 8.97823 9.23487 9.83714 8.92722 9.83714C6.08011 9.83714 5.61792 11.5595 5.61792 11.5595C5.74401 13.0098 6.75464 14.2043 7.97628 14.8362C8.03206 14.8652 8.0887 14.8913 8.14526 14.9168C8.24209 14.9598 8.34012 14.9999 8.43925 15.0372C8.85851 15.1856 9.29762 15.2703 9.74198 15.2885C14.7323 15.5226 15.699 9.32104 12.0978 7.52144C12.9473 7.41087 13.8077 7.61977 14.5119 8.10761C14.072 7.33124 13.4343 6.68522 12.6638 6.23522C11.8932 5.78523 11.0172 5.54731 10.1249 5.54565C10.006 5.54565 9.88979 5.5555 9.773 5.56354C8.76867 5.63253 7.80845 6.00261 7.01761 6.6255C7.17026 6.75472 7.34261 6.92729 7.70558 7.28503C8.38495 7.9544 10.1275 8.64776 10.1314 8.72917Z" fill="url(#paint5_radial_6285_1322)"/>
<path d="M6.5509 6.29267C6.62066 6.33706 6.68955 6.3828 6.75754 6.42985C6.52936 5.63134 6.51965 4.78622 6.72941 3.98267C5.8058 4.43003 4.98513 5.06428 4.31934 5.84524C4.36816 5.84392 5.82059 5.81782 6.5509 6.29267Z" fill="url(#paint6_radial_6285_1322)"/>
<path d="M0.193126 10.8915C0.965783 15.4573 5.10383 18.9433 9.80164 19.0763C14.1495 19.1993 16.927 16.6754 18.0746 14.2132C19.0462 12.0852 19.1579 9.66401 18.3862 7.45563V7.44609C18.3862 7.43859 18.3846 7.43414 18.3862 7.43648L18.388 7.45328C18.7432 9.77234 17.5636 12.0191 15.7196 13.5384L15.7139 13.5513C12.121 16.4775 8.6825 15.3168 7.98656 14.843C7.93761 14.8196 7.88904 14.7954 7.84086 14.7704C5.74602 13.7691 4.88063 11.8605 5.0661 10.2237C4.56882 10.231 4.08009 10.094 3.65911 9.82922C3.23814 9.56442 2.903 9.18322 2.6943 8.7318C3.2442 8.39494 3.87121 8.20451 4.51557 8.17865C5.15993 8.15278 5.80018 8.29236 6.37531 8.58406C7.56104 9.12233 8.9103 9.17535 10.1346 8.7318C10.1308 8.65039 8.38828 7.9568 7.70883 7.28773C7.34586 6.92992 7.17359 6.75758 7.02094 6.6282C6.93845 6.55826 6.8522 6.49288 6.76258 6.43234C6.70313 6.3918 6.63625 6.34789 6.55594 6.29516C5.82563 5.82031 4.3732 5.84641 4.32516 5.84773H4.32055C3.92375 5.34477 3.95164 3.68625 3.97438 3.33984C3.85701 3.38705 3.74496 3.44652 3.64008 3.51727C3.2898 3.76729 2.96233 4.04781 2.66149 4.35555C2.31749 4.70216 2.00311 5.07695 1.72164 5.47602V5.4775V5.4757C1.07803 6.38836 0.621472 7.4194 0.378283 8.50937C0.373439 8.52977 0.0176577 10.0849 0.193126 10.8915Z" fill="url(#paint7_radial_6285_1322)"/>
<path d="M13.6447 6.94055C14.0102 7.29959 14.3233 7.70835 14.5747 8.15476C14.6266 8.19343 14.6767 8.23446 14.7248 8.27773C16.9948 10.3702 15.8054 13.3282 15.7168 13.5387C17.5608 12.0195 18.7393 9.77273 18.3852 7.45359C17.2526 4.63 15.3329 3.49203 13.7651 1.01406C13.6841 0.887747 13.6055 0.759939 13.5293 0.630702C13.49 0.56319 13.4532 0.494264 13.4189 0.424062C13.3539 0.29814 13.3038 0.165051 13.2696 0.027499C13.2696 0.0211446 13.2674 0.0149904 13.2632 0.0102178C13.259 0.00544517 13.2531 0.00239034 13.2468 0.00163964C13.2407 0.000104494 13.2342 0.000104494 13.228 0.00163964C13.2268 0.00163964 13.2247 0.00398339 13.2231 0.00453027C13.2215 0.00507714 13.2182 0.00734277 13.2159 0.00835839C12.8286 0.19203 10.5323 3.82812 13.6447 6.94055Z" fill="url(#paint8_radial_6285_1322)"/>
<path d="M14.7233 8.27643C14.6752 8.23316 14.6251 8.19213 14.5732 8.15346C14.5528 8.13823 14.5327 8.12299 14.511 8.10776C13.8067 7.61992 12.9464 7.41102 12.0968 7.52159C15.698 9.32221 14.7318 15.5228 9.74104 15.2887C9.29669 15.2704 8.85757 15.1857 8.43831 15.0374C8.33912 15.0002 8.24108 14.9601 8.14433 14.917C8.08769 14.8911 8.03112 14.8653 7.97534 14.8364L7.9823 14.8408C8.67823 15.3159 12.1157 16.4766 15.7096 13.5491L15.7153 13.5362C15.805 13.3269 16.9943 10.3682 14.7233 8.27643Z" fill="url(#paint9_radial_6285_1322)"/>
<path d="M5.61812 11.5594C5.61812 11.5594 6.0803 9.83707 8.92741 9.83707C9.23507 9.83707 10.1158 8.97817 10.1316 8.72911C8.90723 9.17264 7.55797 9.11958 6.37226 8.58129C5.79711 8.28958 5.15684 8.15002 4.51246 8.17589C3.86809 8.20177 3.24107 8.39222 2.69116 8.72911C2.89986 9.18053 3.235 9.56173 3.65598 9.82652C4.07695 10.0913 4.56569 10.2283 5.06296 10.221C4.87749 11.8581 5.74288 13.7667 7.83772 14.7677C7.88452 14.7902 7.92843 14.8145 7.97647 14.8359C6.75382 14.2043 5.74421 13.0097 5.61812 11.5594Z" fill="url(#paint10_radial_6285_1322)"/>
<path d="M19.3776 6.93078C18.9425 5.88398 18.0601 4.75375 17.369 4.39648C17.8618 5.35109 18.2039 6.37626 18.383 7.43555L18.3848 7.45234C17.2527 4.63 15.333 3.49203 13.7652 1.01406C13.6842 0.887747 13.6056 0.759939 13.5294 0.630702C13.4901 0.56319 13.4533 0.494264 13.4191 0.424062C13.354 0.29814 13.3039 0.165051 13.2697 0.027499C13.2698 0.0211446 13.2675 0.0149904 13.2633 0.0102178C13.2591 0.00544517 13.2533 0.00239034 13.247 0.00163964C13.2408 0.000104494 13.2343 0.000104494 13.2281 0.00163964C13.2269 0.00163964 13.2248 0.00398339 13.2232 0.00453027C13.2216 0.00507714 13.2183 0.00734277 13.216 0.00835839L13.2198 0.00163964C10.705 1.47422 9.85164 4.20015 9.77312 5.56367C9.88992 5.55562 10.0056 5.54578 10.125 5.54578C11.0173 5.54743 11.8933 5.78535 12.6639 6.23535C13.4345 6.68535 14.0721 7.33137 14.512 8.10773C13.8078 7.61989 12.9474 7.411 12.0979 7.52156C15.6991 9.32219 14.733 15.5227 9.74211 15.2887C9.29775 15.2704 8.85863 15.1857 8.43937 15.0373C8.34018 15.0002 8.24214 14.96 8.14539 14.917C8.08883 14.8911 8.03219 14.8653 7.97641 14.8363L7.98336 14.8408C7.93443 14.8173 7.88586 14.7931 7.83766 14.7681C7.88445 14.7906 7.92836 14.8149 7.97641 14.8363C6.75375 14.2045 5.74414 13.0099 5.61805 11.5596C5.61805 11.5596 6.08023 9.83727 8.92734 9.83727C9.235 9.83727 10.1157 8.97836 10.1315 8.7293C10.1276 8.64789 8.38508 7.9543 7.7057 7.28516C7.34273 6.92742 7.17039 6.75508 7.01773 6.62562C6.93524 6.55571 6.849 6.49035 6.75937 6.42984C6.5312 5.63133 6.52148 4.78621 6.73125 3.98266C5.80767 4.43003 4.98702 5.06427 4.32125 5.84523H4.31656C3.91977 5.34226 3.94766 3.68375 3.97039 3.33726C3.85302 3.3845 3.74097 3.44399 3.63609 3.51476C3.28581 3.76479 2.95834 4.04531 2.6575 4.35305C2.31474 4.70063 2.00167 5.07629 1.72156 5.47609V5.47758V5.47578C1.07796 6.38844 0.621392 7.41948 0.378203 8.50945L0.364844 8.57555C0.345938 8.66367 0.261484 9.11109 0.249297 9.20719C0.249297 9.19969 0.249297 9.21445 0.249297 9.20719C0.172022 9.66905 0.122687 10.1352 0.101562 10.603V10.6547C0.108281 18.3626 8.45656 23.1727 15.1284 19.3129C16.3982 18.5783 17.491 17.5737 18.3296 16.3701C19.1683 15.1665 19.7322 13.7934 19.9816 12.3478C19.9984 12.2187 20.012 12.0908 20.027 11.9603C20.2332 10.2559 20.01 8.52693 19.3776 6.93078Z" fill="url(#paint11_linear_6285_1322)"/>
</g>
<defs>
<linearGradient id="paint0_linear_6285_1322" x1="18.0523" y1="3.20085" x2="1.4312" y2="19.2371" gradientUnits="userSpaceOnUse">
<stop offset="0.048" stop-color="#FFF44F"/>
<stop offset="0.111" stop-color="#FFE847"/>
<stop offset="0.225" stop-color="#FFC830"/>
<stop offset="0.368" stop-color="#FF980E"/>
<stop offset="0.401" stop-color="#FF8B16"/>
<stop offset="0.462" stop-color="#FF672A"/>
<stop offset="0.534" stop-color="#FF3647"/>
<stop offset="0.705" stop-color="#E31587"/>
</linearGradient>
<radialGradient id="paint1_radial_6285_1322" cx="0" cy="0" r="1" gradientUnits="userSpaceOnUse" gradientTransform="translate(17.2846 2.29339) scale(20.8728 20.8728)">
<stop offset="0.129" stop-color="#FFBD4F"/>
<stop offset="0.186" stop-color="#FFAC31"/>
<stop offset="0.247" stop-color="#FF9D17"/>
<stop offset="0.283" stop-color="#FF980E"/>
<stop offset="0.403" stop-color="#FF563B"/>
<stop offset="0.467" stop-color="#FF3750"/>
<stop offset="0.71" stop-color="#F5156C"/>
<stop offset="0.782" stop-color="#EB0878"/>
<stop offset="0.86" stop-color="#E50080"/>
</radialGradient>
<radialGradient id="paint2_radial_6285_1322" cx="0" cy="0" r="1" gradientUnits="userSpaceOnUse" gradientTransform="translate(9.65748 10.8267) scale(20.8728 20.8728)">
<stop offset="0.3" stop-color="#960E18"/>
<stop offset="0.351" stop-color="#B11927" stop-opacity="0.74"/>
<stop offset="0.435" stop-color="#DB293D" stop-opacity="0.343"/>
<stop offset="0.497" stop-color="#F5334B" stop-opacity="0.094"/>
<stop offset="0.53" stop-color="#FF3750" stop-opacity="0"/>
</radialGradient>
<radialGradient id="paint3_radial_6285_1322" cx="0" cy="0" r="1" gradientUnits="userSpaceOnUse" gradientTransform="translate(12.174 -2.44363) scale(15.1214 15.1214)">
<stop offset="0.132" stop-color="#FFF44F"/>
<stop offset="0.252" stop-color="#FFDC3E"/>
<stop offset="0.506" stop-color="#FF9D12"/>
<stop offset="0.526" stop-color="#FF980E"/>
</radialGradient>
<radialGradient id="paint4_radial_6285_1322" cx="0" cy="0" r="1" gradientUnits="userSpaceOnUse" gradientTransform="translate(7.3486 16.2788) scale(9.93844)">
<stop offset="0.353" stop-color="#3A8EE6"/>
<stop offset="0.472" stop-color="#5C79F0"/>
<stop offset="0.669" stop-color="#9059FF"/>
<stop offset="1" stop-color="#C139E6"/>
</radialGradient>
<radialGradient id="paint5_radial_6285_1322" cx="0" cy="0" r="1" gradientTransform="matrix(5.12173 -1.23827 1.44905 5.99643 10.8011 9.11626)" gradientUnits="userSpaceOnUse">
<stop offset="0.206" stop-color="#9059FF" stop-opacity="0"/>
<stop offset="0.278" stop-color="#8C4FF3" stop-opacity="0.064"/>
<stop offset="0.747" stop-color="#7716A8" stop-opacity="0.45"/>
<stop offset="0.975" stop-color="#6E008B" stop-opacity="0.6"/>
</radialGradient>
<radialGradient id="paint6_radial_6285_1322" cx="0" cy="0" r="1" gradientUnits="userSpaceOnUse" gradientTransform="translate(9.39394 1.43934) scale(7.14971)">
<stop stop-color="#FFE226"/>
<stop offset="0.121" stop-color="#FFDB27"/>
<stop offset="0.295" stop-color="#FFC82A"/>
<stop offset="0.502" stop-color="#FFA930"/>
<stop offset="0.732" stop-color="#FF7E37"/>
<stop offset="0.792" stop-color="#FF7139"/>
</radialGradient>
<radialGradient id="paint7_radial_6285_1322" cx="0" cy="0" r="1" gradientUnits="userSpaceOnUse" gradientTransform="translate(15.0139 -3.09557) scale(30.5046)">
<stop offset="0.113" stop-color="#FFF44F"/>
<stop offset="0.456" stop-color="#FF980E"/>
<stop offset="0.622" stop-color="#FF5634"/>
<stop offset="0.716" stop-color="#FF3647"/>
<stop offset="0.904" stop-color="#E31587"/>
</radialGradient>
<radialGradient id="paint8_radial_6285_1322" cx="0" cy="0" r="1" gradientTransform="matrix(2.34629 22.2341 -14.5918 1.54184 12.4476 -1.39992)" gradientUnits="userSpaceOnUse">
<stop stop-color="#FFF44F"/>
<stop offset="0.06" stop-color="#FFE847"/>
<stop offset="0.168" stop-color="#FFC830"/>
<stop offset="0.304" stop-color="#FF980E"/>
<stop offset="0.356" stop-color="#FF8B16"/>
<stop offset="0.455" stop-color="#FF672A"/>
<stop offset="0.57" stop-color="#FF3647"/>
<stop offset="0.737" stop-color="#E31587"/>
</radialGradient>
<radialGradient id="paint9_radial_6285_1322" cx="0" cy="0" r="1" gradientUnits="userSpaceOnUse" gradientTransform="translate(9.22549 4.08756) scale(19.0445)">
<stop offset="0.137" stop-color="#FFF44F"/>
<stop offset="0.48" stop-color="#FF980E"/>
<stop offset="0.592" stop-color="#FF5634"/>
<stop offset="0.655" stop-color="#FF3647"/>
<stop offset="0.904" stop-color="#E31587"/>
</radialGradient>
<radialGradient id="paint10_radial_6285_1322" cx="0" cy="0" r="1" gradientUnits="userSpaceOnUse" gradientTransform="translate(14.2528 5.20206) scale(20.8441)">
<stop offset="0.094" stop-color="#FFF44F"/>
<stop offset="0.231" stop-color="#FFE141"/>
<stop offset="0.509" stop-color="#FFAF1E"/>
<stop offset="0.626" stop-color="#FF980E"/>
</radialGradient>
<linearGradient id="paint11_linear_6285_1322" x1="17.8526" y1="3.11509" x2="3.70972" y2="17.2577" gradientUnits="userSpaceOnUse">
<stop offset="0.167" stop-color="#FFF44F" stop-opacity="0.8"/>
<stop offset="0.266" stop-color="#FFF44F" stop-opacity="0.634"/>
<stop offset="0.489" stop-color="#FFF44F" stop-opacity="0.217"/>
<stop offset="0.6" stop-color="#FFF44F" stop-opacity="0"/>
</linearGradient>
<clipPath id="clip0_6285_1322">
<rect width="20" height="20.7031" fill="white"/>
</clipPath>
</defs>
</svg>
