<svg width="20" height="20" viewBox="0 0 20 20" fill="none" xmlns="http://www.w3.org/2000/svg">
<g clip-path="url(#clip0_6285_1316)">
<path d="M10.0003 15.5637C13.0734 15.5637 15.5645 13.0724 15.5645 9.99935C15.5645 6.92631 13.0734 4.43506 10.0003 4.43506C6.92729 4.43506 4.43604 6.92631 4.43604 9.99935C4.43604 13.0724 6.92721 15.5637 10.0003 15.5637" fill="white"/>
<path d="M2.80378 7.26529C2.38868 6.54628 1.90076 5.79167 1.34003 5.00146C0.462196 6.52157 2.98185e-05 8.246 1.44285e-09 10.0014C-2.98156e-05 11.7567 0.462078 13.4812 1.33986 15.0013C2.21765 16.5215 3.48017 17.7837 5.0005 18.6612C6.52082 19.5386 8.24537 20.0004 10.0007 20C10.9211 18.7091 11.546 17.7784 11.8754 17.2078C12.5081 16.1119 13.3264 14.5428 14.3303 12.5007V12.4995C13.8918 13.2599 13.2607 13.8914 12.5006 14.3306C11.7405 14.7697 10.8782 15.001 10.0004 15.0011C9.12255 15.0012 8.26017 14.7702 7.49994 14.3313C6.73972 13.8924 6.10846 13.2611 5.66964 12.5008C4.3062 9.95803 3.35092 8.21279 2.80378 7.26529Z" fill="#229342"/>
<path d="M10.0006 19.9995C11.3138 19.9997 12.6142 19.7412 13.8276 19.2387C15.0409 18.7363 16.1433 17.9997 17.0719 17.0711C18.0005 16.1424 18.737 15.0399 19.2394 13.8266C19.7418 12.6133 20.0002 11.3128 20 9.99957C19.9996 8.24418 19.5371 6.51982 18.6591 4.9998C16.7647 4.81309 15.3666 4.71973 14.4649 4.71973C13.4424 4.71973 11.954 4.81309 9.99987 4.9998L9.99878 5.00059C10.8766 5.00015 11.7391 5.23088 12.4995 5.66956C13.2599 6.10823 13.8913 6.7394 14.3303 7.49957C14.7694 8.25974 15.0005 9.12212 15.0005 9.99997C15.0005 10.8778 14.7693 11.7402 14.3303 12.5004L10.0006 19.9995Z" fill="#FBC116"/>
<path d="M10.0001 13.9592C12.1863 13.9592 13.9586 12.1869 13.9586 10.0006C13.9586 7.81426 12.1863 6.04199 10 6.04199C7.81385 6.04199 6.0415 7.81434 6.0415 10.0006C6.0415 12.1868 7.81385 13.9592 10.0001 13.9592Z" fill="#1A73E8"/>
<path d="M10.0003 5.00034H18.6595C17.782 3.47999 16.5198 2.21746 14.9996 1.3397C13.4794 0.461934 11.7549 -0.000118753 9.99957 2.28936e-08C8.24418 0.000118798 6.51977 0.462405 4.99972 1.34037C3.47967 2.21834 2.21757 3.48104 1.34033 5.00151L5.66994 12.5007L5.67111 12.5014C5.23186 11.7413 5.00047 10.879 5.00021 10.0012C4.99995 9.12335 5.23083 8.26092 5.66964 7.50062C6.10845 6.74033 6.73971 6.10897 7.49994 5.67006C8.26017 5.23114 9.12257 5.00013 10.0004 5.00026L10.0003 5.00034Z" fill="#E33B2E"/>
</g>
<defs>
<clipPath id="clip0_6285_1316">
<rect width="20" height="20" fill="white"/>
</clipPath>
</defs>
</svg>
