<?xml version="1.0" encoding="UTF-8"?>
<svg id="Layer_1" data-name="Layer 1" xmlns="http://www.w3.org/2000/svg" viewBox="0 0 841.89 294.26">
  <defs>
    <style>
      .cls-1 {
        fill: #0564f3;
      }

      .cls-2 {
        fill: #fff;
      }

      .cls-3 {
        fill: #0fb1fe;
      }
    </style>
  </defs>
  <g>
    <path class="cls-3" d="M141.91,109.11v132.8c0,2.96,2.4,5.35,5.35,5.35h20.83V85.15c0-4.01-4.85-6.02-7.69-3.18l-12.39,12.39c-3.91,3.91-6.11,9.22-6.11,14.76Z"/>
    <path class="cls-3" d="M81.13,169.89v70.7c0,3.68,2.99,6.67,6.67,6.67h32.63v-114.45c0-4.01-4.85-6.02-7.69-3.18l-25.5,25.5c-3.91,3.91-6.11,9.22-6.11,14.76Z"/>
    <path class="cls-1" d="M189.57,31.69v45.98h30.11c2.47,0,4.47-2,4.47-4.47v-10.69c0-4.14-1.64-8.11-4.57-11.04l-22.78-22.78c-2.67-2.67-7.23-.78-7.23,3Z"/>
    <g>
      <path class="cls-3" d="M263.31,181.06c.88-1.04,1.56-2.23,2.03-3.59.47-1.35.71-2.75.71-4.19,0-1.35-.24-2.71-.71-4.06-.47-1.35-1.16-2.56-2.06-3.62-.9-1.06-1.99-1.93-3.28-2.61-1.29-.67-2.74-1.01-4.36-1.01h-14.35v22.6h14.35c1.62,0,3.09-.33,4.4-.98,1.31-.65,2.4-1.5,3.28-2.54Z"/>
      <path class="cls-1" d="M325.51,153.57c-1.84-6.4-4.4-12.37-7.7-17.91-3.3-5.54-7.29-10.54-11.96-15.01-4.67-4.46-9.82-8.3-15.45-11.5-5.63-3.2-11.7-5.67-18.21-7.41-6.5-1.73-13.25-2.6-20.25-2.6h-57.76c-1.53,0-2.68.43-3.45,1.3-.77.87-1.15,2-1.15,3.4v139.75c0,1.73.47,2.86,1.4,3.4.93.54,2,.8,3.2.8h20.92v-104.16c0-.95.25-1.7.74-2.27.5-.56,1.24-.85,2.23-.85h43.24c3.11,0,6.05.43,8.8,1.29,2.75.86,5.28,2.04,7.58,3.55,2.3,1.51,4.37,3.31,6.23,5.41,1.85,2.1,3.42,4.36,4.7,6.8,1.29,2.44,2.27,5,2.94,7.68.68,2.68,1.02,5.4,1.02,8.15,0,4.06-.73,8.03-2.2,11.91-1.47,3.88-3.55,7.33-6.26,10.36-2.71,3.02-5.96,5.47-9.75,7.34-3.79,1.87-7.98,2.83-12.59,2.88h-20.51v41.5l21.85-.41c3.08-.42,6.12-.97,9.11-1.75,6.53-1.7,12.62-4.12,18.25-7.25,5.63-3.13,10.77-6.94,15.4-11.4,4.63-4.47,8.62-9.46,11.96-14.96,3.33-5.5,5.9-11.44,7.7-17.81,1.8-6.37,2.7-13.08,2.7-20.15s-.92-13.71-2.75-20.1Z"/>
    </g>
  </g>
  <g>
    <g>
      <path class="cls-3" d="M359.74,101.83c0-.6.16-1.08.47-1.44s.79-.54,1.41-.54h27.39c1.97,0,3.83.27,5.57.82s3.34,1.29,4.8,2.25c1.46.96,2.77,2.1,3.94,3.43,1.17,1.33,2.16,2.76,2.98,4.31.82,1.54,1.44,3.16,1.87,4.87.43,1.7.64,3.42.64,5.16,0,2.57-.46,5.09-1.39,7.54-.93,2.46-2.25,4.64-3.97,6.56s-3.77,3.47-6.17,4.65-5.06,1.79-7.97,1.82h-12.99v20.4c0,1.23-.66,1.84-1.97,1.84h-12.73c-.57,0-1.03-.15-1.37-.45s-.51-.76-.51-1.39v-59.83ZM392.02,120.6c0-.86-.15-1.71-.45-2.57-.3-.86-.74-1.62-1.31-2.29-.57-.67-1.26-1.22-2.08-1.65-.82-.43-1.74-.64-2.77-.64h-9.08v14.32h9.08c1.03,0,1.96-.21,2.79-.62.83-.41,1.52-.95,2.08-1.61.56-.65.99-1.41,1.29-2.27.3-.86.45-1.74.45-2.66Z"/>
      <path class="cls-3" d="M414.65,112.24c0-.54.1-1.01.3-1.41.2-.4.46-.73.79-.99.33-.26.7-.45,1.11-.58.41-.13.82-.19,1.22-.19h6.47c.71,0,1.29.21,1.71.64.43.43.79.97,1.09,1.63.3.66.56,1.39.79,2.19.23.8.5,1.57.82,2.31.86-.94,1.71-1.87,2.55-2.79s1.75-1.73,2.72-2.44c.97-.71,2.04-1.29,3.19-1.74,1.16-.44,2.48-.66,3.96-.66s2.92.12,4.14.34,2.36.56,3.45,1.01c1.09.44,2.16,1.01,3.24,1.69,1.07.69,2.23,1.48,3.49,2.4,1.23.72,1.84,1.56,1.84,2.53,0,.63-.24,1.36-.73,2.19l-3.9,6.64c-.77,1.12-1.73,1.67-2.87,1.67-.57,0-1.21-.16-1.93-.47-1.23-1.2-2.48-2.09-3.75-2.68-1.27-.58-2.72-.88-4.35-.88-1.11,0-2.09.16-2.93.47-.84.31-1.61.76-2.29,1.33-.69.57-1.33,1.26-1.93,2.06-.6.8-1.2,1.69-1.8,2.66v31.03c0,1.08-.26,1.91-.79,2.47-.53.56-1.41.83-2.64.83h-9.64c-2.23,0-3.34-1.1-3.34-3.3v-47.96Z"/>
      <path class="cls-3" d="M457.59,136.33c0-2.63.34-5.16,1.01-7.59.67-2.43,1.61-4.68,2.83-6.75,1.21-2.07,2.67-3.96,4.37-5.66,1.7-1.7,3.6-3.15,5.68-4.35s4.33-2.13,6.75-2.79c2.41-.66,4.94-.99,7.56-.99,3.88,0,7.54.72,10.95,2.16,3.42,1.44,6.39,3.43,8.92,5.96,2.53,2.53,4.53,5.5,6,8.91,1.47,3.42,2.21,7.11,2.21,11.08,0,2.63-.34,5.15-1.01,7.57-.67,2.41-1.62,4.66-2.83,6.75-1.21,2.09-2.67,3.98-4.37,5.68-1.7,1.7-3.6,3.16-5.68,4.37s-4.32,2.15-6.71,2.81c-2.39.66-4.88.99-7.48.99s-5.15-.33-7.56-.99c-2.42-.66-4.67-1.59-6.75-2.81s-3.98-2.67-5.68-4.37c-1.7-1.7-3.16-3.59-4.37-5.68-1.21-2.09-2.16-4.33-2.83-6.75-.67-2.41-1.01-4.94-1.01-7.57ZM473.24,136.33c0,1.89.29,3.65.88,5.29.58,1.64,1.41,3.07,2.48,4.27s2.37,2.15,3.9,2.85c1.53.7,3.25,1.05,5.16,1.05s3.54-.35,5.04-1.05,2.77-1.65,3.81-2.85c1.04-1.2,1.84-2.62,2.4-4.27.56-1.64.83-3.41.83-5.29s-.28-3.57-.83-5.23c-.56-1.66-1.36-3.11-2.4-4.37-1.04-1.26-2.31-2.25-3.81-2.98-1.5-.73-3.18-1.09-5.04-1.09s-3.64.36-5.16,1.09c-1.53.73-2.83,1.72-3.9,2.98-1.07,1.26-1.9,2.72-2.48,4.37-.59,1.66-.88,3.4-.88,5.23Z"/>
      <path class="cls-3" d="M573.83,125.25c-1.34-3.41-3.21-6.39-5.59-8.91-2.39-2.53-5.23-4.52-8.53-5.96-3.3-1.44-6.91-2.16-10.82-2.16-2.23,0-4.11.29-5.66.86-1.54.57-2.87,1.29-3.99,2.16-1.12.87-2.08,1.84-2.9,2.91-.81,1.07-1.62,2.12-2.42,3.15l-1.8-5.19c-.14-.46-.29-.88-.45-1.26-.16-.39-.35-.73-.58-1.03-.23-.3-.52-.54-.88-.71-.36-.17-.81-.26-1.35-.26h-6.47c-.37,0-.76.04-1.16.13-.4.09-.79.29-1.16.6-.31.31-.58.66-.79,1.03-.21.37-.32.84-.32,1.41v56.79h16.42v-11.66c.77.86,1.56,1.71,2.36,2.57.8.86,1.72,1.64,2.76,2.36,1.04.71,2.24,1.29,3.58,1.73,1.34.44,2.94.67,4.8.67,3.91,0,7.52-.73,10.82-2.19,3.3-1.46,6.14-3.45,8.53-5.98,2.38-2.53,4.25-5.51,5.59-8.94,1.34-3.43,2.01-7.11,2.01-11.06s-.67-7.67-2.01-11.08ZM559.22,141.65c-.6,1.66-1.44,3.09-2.53,4.31-1.09,1.21-2.39,2.18-3.9,2.89s-3.18,1.07-5.01,1.07-3.61-.36-5.27-1.07c-1.66-.71-3.1-1.68-4.33-2.89-1.23-1.21-2.2-2.65-2.91-4.31-.71-1.66-1.07-3.43-1.07-5.32v-.64c.09-1.77.51-3.44,1.26-5.01.76-1.57,1.74-2.93,2.96-4.09,1.21-1.16,2.63-2.07,4.24-2.74,1.61-.67,3.32-1.01,5.12-1.01s3.5.36,5.01,1.07,2.81,1.69,3.9,2.91c1.08,1.23,1.93,2.66,2.53,4.31.6,1.64.9,3.38.9,5.21s-.3,3.66-.9,5.32Z"/>
    </g>
    <g>
      <path class="cls-1" d="M415.84,209.32c0,3.03-.39,5.91-1.16,8.63-.77,2.73-1.87,5.27-3.3,7.63-1.43,2.36-3.14,4.49-5.12,6.41s-4.19,3.54-6.6,4.89-5.02,2.38-7.82,3.11c-2.8.73-5.7,1.09-8.7,1.09h-21.13c-.51,0-.97-.12-1.37-.34s-.6-.71-.6-1.46v-59.88c0-.6.16-1.08.49-1.46.33-.37.82-.56,1.48-.56h21.13c3,0,5.89.37,8.68,1.12,2.79.74,5.39,1.8,7.8,3.17s4.62,3.02,6.62,4.93,3.71,4.06,5.12,6.43c1.42,2.37,2.51,4.93,3.3,7.67.79,2.74,1.18,5.62,1.18,8.62ZM376.62,192.77v32.96h3.6c.66,0,1.3-.02,1.93-.06s1.26-.09,1.89-.15c2.14-.17,4.14-.69,6-1.57,1.86-.87,3.48-2.02,4.86-3.43s2.47-3.08,3.26-4.99,1.18-4,1.18-6.26c0-2.4-.45-4.61-1.35-6.62-.9-2.01-2.12-3.76-3.66-5.23-1.54-1.47-3.35-2.61-5.42-3.43-2.07-.82-4.28-1.22-6.62-1.22h-5.66Z"/>
      <path class="cls-1" d="M465.73,234.56c-2.51,2.32-5.34,4.12-8.49,5.42-3.14,1.3-6.47,1.95-9.99,1.95-3.92,0-7.62-.71-11.1-2.14-3.49-1.43-6.54-3.41-9.17-5.94-2.63-2.53-4.71-5.51-6.26-8.94s-2.31-7.16-2.31-11.19c0-2.51.31-4.95.92-7.31.61-2.36,1.48-4.56,2.61-6.62,1.13-2.06,2.5-3.95,4.12-5.68,1.61-1.73,3.42-3.21,5.42-4.44,2-1.23,4.17-2.19,6.51-2.87s4.81-1.03,7.41-1.03c2.37,0,4.67.31,6.9.94,2.23.63,4.32,1.52,6.28,2.66,1.96,1.14,3.75,2.51,5.38,4.12,1.63,1.6,3.03,3.35,4.2,5.25,1.17,1.9,2.08,3.93,2.72,6.09.64,2.16.97,4.38.97,6.66,0,1.49-.02,2.7-.06,3.64-.04.94-.26,1.69-.66,2.25s-1.06.94-1.99,1.16c-.93.21-2.29.32-4.09.32h-30.86c.29,1.83.86,3.36,1.74,4.59s1.88,2.21,3.02,2.93,2.36,1.25,3.64,1.57,2.5.47,3.64.47c1.03,0,2.09-.11,3.17-.32,1.08-.21,2.13-.5,3.15-.86s1.94-.77,2.79-1.24c.84-.47,1.52-.96,2.04-1.48.46-.37.85-.65,1.18-.83s.68-.28,1.05-.28.75.13,1.14.39c.39.26.82.63,1.31,1.11l4.54,5.14c.31.37.51.71.6,1.01.09.3.13.61.13.92,0,.57-.16,1.07-.47,1.48-.31.42-.69.78-1.11,1.09ZM445.11,198.86c-1.11,0-2.19.22-3.24.66-1.04.44-2.02,1.04-2.94,1.78s-1.74,1.59-2.46,2.53c-.73.94-1.32,1.9-1.78,2.87h21.9c-.6-1.11-1.25-2.14-1.95-3.09-.7-.94-1.5-1.77-2.4-2.48-.9-.71-1.93-1.27-3.09-1.67-1.16-.4-2.51-.6-4.05-.6Z"/>
      <path class="cls-1" d="M483.21,224.15c.77.77,1.61,1.42,2.51,1.95.9.53,1.77.96,2.59,1.29.83.33,1.56.56,2.19.71s1.06.21,1.29.21c.54,0,1.24-.02,2.08-.06s1.65-.17,2.42-.39c.77-.22,1.44-.56,1.99-1.05.56-.49.84-1.17.84-2.06,0-.8-.16-1.44-.47-1.91-.31-.47-.77-.87-1.37-1.2s-1.34-.62-2.21-.88-1.85-.56-2.94-.9c-3.43-.91-6.26-2.02-8.49-3.3-2.23-1.29-3.99-2.72-5.29-4.31-1.3-1.59-2.21-3.29-2.72-5.12s-.77-3.76-.77-5.79c0-2.37.47-4.53,1.42-6.47.94-1.95,2.29-3.61,4.03-4.99,1.74-1.39,3.83-2.46,6.26-3.22,2.43-.76,5.13-1.14,8.1-1.14,1.8,0,3.49.15,5.06.45,1.57.3,3.07.77,4.5,1.42,1.43.64,2.82,1.47,4.18,2.48,1.36,1.01,2.71,2.22,4.05,3.62.48.57.74,1.11.75,1.61.01.5-.31,1.03-.97,1.6-1.11.92-2.18,1.82-3.19,2.7s-2.06,1.87-3.15,2.96c-.34.29-.69.47-1.03.54s-.67.06-.99-.02c-.31-.08-.61-.23-.9-.43-.29-.2-.54-.44-.77-.73-1-1.11-2.14-1.86-3.43-2.25s-2.49-.58-3.6-.58c-1.4,0-2.51.24-3.34.73-.83.49-1.21,1.23-1.16,2.23.06.74.34,1.32.84,1.74.5.41,1.11.75,1.84,1.01.73.26,1.5.47,2.31.62.81.16,1.56.34,2.25.54,2.57.83,4.93,1.73,7.07,2.7,2.14.97,4,2.16,5.57,3.58s2.79,3.11,3.67,5.08c.87,1.97,1.31,4.37,1.31,7.2s-.56,5.36-1.69,7.59-2.68,4.1-4.65,5.61c-1.97,1.52-4.31,2.67-7.01,3.47-2.7.8-5.61,1.2-8.72,1.2-1.77,0-3.57-.16-5.4-.47-1.83-.31-3.6-.82-5.32-1.52-1.71-.7-3.34-1.6-4.89-2.7-1.54-1.1-2.91-2.44-4.12-4.01-.31-.4-.55-.82-.71-1.26-.16-.44-.23-.88-.21-1.31.01-.43.1-.82.26-1.18.16-.36.41-.67.75-.92l5.53-5.53c.69-.57,1.29-.77,1.82-.6.53.17,1.21.66,2.04,1.46Z"/>
      <path class="cls-1" d="M518.92,189.98c0-.91.26-1.7.77-2.36s1.31-.99,2.4-.99h9.82c.34,0,.71.08,1.11.24s.77.39,1.11.69c.34.3.64.65.88,1.05.24.4.36.86.36,1.37v47.79c0,1.08-.3,1.91-.9,2.47-.6.56-1.46.83-2.57.83h-9.82c-2.12,0-3.17-1.1-3.17-3.3v-47.79Z"/>
      <path class="cls-1" d="M579.95,239.19c.2-.57.33-1.2.39-1.89s.09-1.4.09-2.14v-.58c0-.13,0-.24-.02-.32-.01-.08-.02-.19-.02-.32v-.58c-.83.89-1.67,1.76-2.53,2.61s-1.81,1.62-2.85,2.29-2.22,1.21-3.54,1.63c-1.31.41-2.84.62-4.59.62-3.86,0-7.43-.66-10.72-1.97-3.29-1.31-6.13-3.15-8.53-5.51-2.4-2.36-4.27-5.18-5.61-8.47s-2.01-6.9-2.01-10.84.67-7.58,2.01-10.99,3.22-6.39,5.61-8.92c2.4-2.53,5.24-4.51,8.53-5.96,3.29-1.44,6.86-2.16,10.72-2.16,1.77,0,3.39.2,4.84.6s2.79.95,4.01,1.65c1.21.7,2.32,1.52,3.32,2.47,1,.94,1.93,1.94,2.79,3l1.2-3.81c.17-.49.33-.93.47-1.33.14-.4.33-.73.56-1.01.23-.27.52-.48.88-.62.36-.14.82-.21,1.39-.21h6.39c.4,0,.8.07,1.2.21s.76.34,1.09.6c.33.26.59.59.79.99.2.4.3.86.3,1.37v43.63c0,4.46-.73,8.43-2.19,11.92-1.46,3.49-3.45,6.43-5.98,8.83-2.53,2.4-5.52,4.23-8.98,5.49-3.46,1.26-7.17,1.89-11.14,1.89-1.54,0-3.2-.14-4.97-.41-1.77-.27-3.54-.68-5.29-1.22-1.76-.54-3.46-1.24-5.1-2.08-1.64-.84-3.09-1.82-4.35-2.94-.43-.31-.79-.71-1.09-1.18-.3-.47-.45-1-.45-1.57,0-.71.27-1.47.81-2.27l4.07-5.62c.4-.43.77-.75,1.11-.96.34-.21.71-.32,1.11-.32.63,0,1.41.34,2.36,1.03.71.69,1.54,1.24,2.47,1.65.93.41,1.89.74,2.87.99.99.24,1.96.4,2.91.47.96.07,1.82.11,2.59.11,1.29,0,2.63-.17,4.03-.51,1.4-.34,2.71-.85,3.92-1.52s2.29-1.49,3.22-2.47c.93-.97,1.56-2.08,1.91-3.34ZM555.44,213.73c0,1.91.29,3.69.88,5.34.59,1.64,1.42,3.06,2.51,4.26s2.39,2.14,3.92,2.83c1.53.69,3.22,1.03,5.08,1.03s3.55-.32,5.16-.96c1.61-.64,3.02-1.53,4.22-2.68,1.2-1.14,2.16-2.48,2.89-4.03.73-1.54,1.14-3.22,1.22-5.01v-1.42c-.09-1.74-.49-3.39-1.22-4.95-.73-1.56-1.69-2.93-2.89-4.12-1.2-1.18-2.61-2.13-4.22-2.83-1.61-.7-3.34-1.05-5.16-1.05s-3.55.37-5.08,1.09c-1.53.73-2.84,1.71-3.92,2.94-1.09,1.23-1.92,2.67-2.51,4.33-.59,1.66-.88,3.4-.88,5.23Z"/>
      <path class="cls-1" d="M602.37,187.41c.37-.31.76-.51,1.18-.6.41-.08.81-.13,1.18-.13h6.47c.51,0,.96.1,1.33.28.37.19.69.44.94.75.26.31.46.67.62,1.07.16.4.31.81.45,1.24l.9,3.76c.43-.88,1.12-1.79,2.08-2.73.96-.94,2.14-1.79,3.56-2.56s3.05-1.4,4.91-1.9c1.86-.5,3.93-.75,6.21-.75,3.26,0,6.17.63,8.72,1.88,2.56,1.25,4.73,2.96,6.51,5.13,1.79,2.17,3.14,4.7,4.07,7.59.93,2.9,1.39,5.99,1.39,9.27v28.07c0,1.08-.24,1.91-.71,2.47-.47.56-1.22.83-2.25.83h-9.9c-1.23,0-2.07-.21-2.53-.62-.46-.41-.69-1.22-.69-2.42v-27.9c0-1.23-.28-2.39-.84-3.49-.56-1.1-1.29-2.07-2.21-2.91-.91-.84-1.95-1.51-3.11-2-1.16-.48-2.34-.73-3.54-.73-1.03,0-2.08.23-3.15.69-1.07.46-2.06,1.09-2.96,1.91-.9.82-1.66,1.77-2.27,2.87-.61,1.1-.96,2.29-1.05,3.58v27.86c0,.49-.09.97-.28,1.46-.19.49-.47.86-.84,1.12-.37.23-.72.39-1.05.47-.33.09-.71.13-1.14.13h-9.69c-1.23,0-2.12-.3-2.66-.9-.54-.6-.81-1.4-.81-2.4v-47.93c0-.54.12-1.04.36-1.5.24-.46.58-.81,1.01-1.07l-.26.13Z"/>
      <path class="cls-1" d="M703.65,234.56c-2.51,2.32-5.34,4.12-8.49,5.42-3.14,1.3-6.47,1.95-9.99,1.95-3.92,0-7.62-.71-11.1-2.14-3.49-1.43-6.54-3.41-9.17-5.94-2.63-2.53-4.71-5.51-6.26-8.94s-2.31-7.16-2.31-11.19c0-2.51.31-4.95.92-7.31.61-2.36,1.48-4.56,2.61-6.62,1.13-2.06,2.5-3.95,4.12-5.68,1.61-1.73,3.42-3.21,5.42-4.44,2-1.23,4.17-2.19,6.51-2.87s4.81-1.03,7.41-1.03c2.37,0,4.67.31,6.9.94,2.23.63,4.32,1.52,6.28,2.66,1.96,1.14,3.75,2.51,5.38,4.12,1.63,1.6,3.03,3.35,4.2,5.25,1.17,1.9,2.08,3.93,2.72,6.09.64,2.16.97,4.38.97,6.66,0,1.49-.02,2.7-.06,3.64-.04.94-.26,1.69-.66,2.25s-1.06.94-1.99,1.16c-.93.21-2.29.32-4.09.32h-30.86c.29,1.83.86,3.36,1.74,4.59s1.88,2.21,3.02,2.93,2.36,1.25,3.64,1.57,2.5.47,3.64.47c1.03,0,2.09-.11,3.17-.32,1.08-.21,2.13-.5,3.15-.86s1.94-.77,2.79-1.24c.84-.47,1.52-.96,2.04-1.48.46-.37.85-.65,1.18-.83s.68-.28,1.05-.28.75.13,1.14.39c.39.26.82.63,1.31,1.11l4.54,5.14c.31.37.51.71.6,1.01.09.3.13.61.13.92,0,.57-.16,1.07-.47,1.48-.31.42-.69.78-1.11,1.09ZM683.03,198.86c-1.11,0-2.19.22-3.24.66-1.04.44-2.02,1.04-2.94,1.78s-1.74,1.59-2.46,2.53c-.73.94-1.32,1.9-1.78,2.87h21.9c-.6-1.11-1.25-2.14-1.95-3.09-.7-.94-1.5-1.77-2.4-2.48-.9-.71-1.93-1.27-3.09-1.67-1.16-.4-2.51-.6-4.05-.6Z"/>
      <path class="cls-1" d="M713.59,189.81c0-.54.1-1.01.3-1.41.2-.4.46-.73.79-.99.33-.26.7-.45,1.11-.58.41-.13.82-.19,1.22-.19h6.47c.71,0,1.29.21,1.71.64.43.43.79.97,1.09,1.63.3.66.56,1.39.79,2.19.23.8.5,1.57.81,2.31.86-.94,1.71-1.87,2.55-2.79.84-.91,1.75-1.73,2.72-2.44s2.04-1.29,3.19-1.74c1.16-.44,2.48-.66,3.96-.66s2.92.12,4.14.34,2.37.56,3.45,1.01c1.08.44,2.16,1.01,3.24,1.69,1.07.69,2.24,1.48,3.49,2.4,1.23.72,1.84,1.56,1.84,2.53,0,.63-.24,1.36-.73,2.19l-3.9,6.64c-.77,1.12-1.73,1.67-2.87,1.67-.57,0-1.21-.16-1.93-.47-1.23-1.2-2.48-2.09-3.75-2.68-1.27-.58-2.72-.88-4.35-.88-1.11,0-2.09.16-2.94.47-.84.31-1.61.76-2.29,1.33-.69.57-1.33,1.26-1.93,2.06-.6.8-1.2,1.69-1.8,2.66v31.03c0,1.08-.26,1.91-.79,2.47-.53.56-1.41.83-2.64.83h-9.64c-2.23,0-3.34-1.1-3.34-3.3v-47.96Z"/>
    </g>
    <rect class="cls-1" x="518.97" y="164.99" width="16.41" height="16.41" rx="3.23" ry="3.23"/>
    <g>
      <rect class="cls-3" x="633.02" y="117.31" width="123.47" height="53.81" rx="11.37" ry="11.37"/>
      <g>
        <path class="cls-2" d="M677.03,140.65c-.04.5-.15,1.11-.31,1.83s-.41,1.34-.72,1.87c-.32.52-.77,1.08-1.35,1.65-.59.57-1.29,1.04-2.12,1.4s-1.86.66-3.11.9-2.65.36-4.22.36h-4.01v9.02h-7.3v-28.86h10.91c2.19,0,4.09.23,5.68.7s2.8,1.03,3.63,1.69c.83.66,1.48,1.49,1.96,2.48s.77,1.86.88,2.61c.1.75.16,1.61.16,2.57,0,.69-.02,1.29-.07,1.78ZM664.97,134.76h-3.79v8.21h3.79c3.16,0,4.73-1.37,4.73-4.11s-1.58-4.1-4.73-4.1Z"/>
        <path class="cls-2" d="M697.33,157.67l-8.25-10.91v10.91h-7.3v-28.86h11.05c2.11,0,3.94.22,5.5.65,1.56.44,2.76.98,3.58,1.62s1.49,1.44,1.98,2.37c.5.93.8,1.77.92,2.52.12.75.18,1.58.18,2.48s-.11,1.82-.32,2.66c-.21.84-.58,1.72-1.11,2.64-.53.92-1.35,1.68-2.48,2.28-1.13.6-2.5.95-4.13,1.04l9.29,10.6h-8.93ZM692.74,134.76h-3.65v7.3h3.65c3.25,0,4.87-1.2,4.87-3.61s-1.62-3.7-4.87-3.7Z"/>
        <path class="cls-2" d="M736.31,147.77c-.23,1.34-.65,2.67-1.29,3.99-.63,1.32-1.46,2.43-2.48,3.31-1.02.89-2.38,1.61-4.06,2.16-1.68.56-3.64.84-5.86.84s-4.18-.28-5.86-.84c-1.68-.55-3.03-1.28-4.04-2.16-1.01-.89-1.82-1.99-2.43-3.31-.62-1.32-1.04-2.66-1.26-4.01-.22-1.35-.34-2.86-.34-4.51s.11-3.15.34-4.51c.23-1.35.65-2.69,1.29-4.01.63-1.32,1.45-2.43,2.46-3.31,1.01-.89,2.34-1.61,4.01-2.16,1.67-.56,3.62-.84,5.84-.84s4.18.28,5.86.84c1.68.55,3.04,1.28,4.06,2.16,1.02.89,1.85,1.99,2.48,3.31.63,1.32,1.06,2.67,1.29,4.04.22,1.37.34,2.88.34,4.53s-.11,3.15-.34,4.49ZM727.9,136.61c-.87-1.53-2.63-2.3-5.27-2.3-1.38,0-2.52.22-3.43.68-.9.45-1.57,1.11-2.01,1.98s-.73,1.79-.88,2.75c-.15.96-.23,2.13-.23,3.52s.08,2.55.23,3.52c.15.96.45,1.87.9,2.73.45.86,1.12,1.51,2.01,1.94s2.02.65,3.41.65,2.57-.22,3.47-.65,1.57-1.09,2.01-1.96c.44-.87.73-1.77.88-2.71.15-.93.22-2.09.22-3.47,0-2.92-.43-5.14-1.31-6.67Z"/>
      </g>
    </g>
  </g>
</svg>