<svg width="24" height="24" viewBox="0 0 24 24" fill="none" xmlns="http://www.w3.org/2000/svg">
<g clip-path="url(#clip0_380_1744)">
<path d="M18.3762 0.000488281H5.62622C2.51962 0.000488281 0.0012207 2.51889 0.0012207 5.62549V18.3755C0.0012207 21.4821 2.51962 24.0005 5.62622 24.0005H18.3762C21.4828 24.0005 24.0012 21.4821 24.0012 18.3755V5.62549C24.0012 2.51889 21.4828 0.000488281 18.3762 0.000488281Z" fill="url(#paint0_radial_380_1744)"/>
<path d="M18.3762 0.000488281H5.62622C2.51962 0.000488281 0.0012207 2.51889 0.0012207 5.62549V18.3755C0.0012207 21.4821 2.51962 24.0005 5.62622 24.0005H18.3762C21.4828 24.0005 24.0012 21.4821 24.0012 18.3755V5.62549C24.0012 2.51889 21.4828 0.000488281 18.3762 0.000488281Z" fill="url(#paint1_radial_380_1744)"/>
<path d="M12.0028 2.62549C9.45673 2.62549 9.13714 2.63664 8.1372 2.68211C7.13914 2.72786 6.45786 2.88583 5.8618 3.11768C5.24511 3.35711 4.72208 3.67746 4.20102 4.19871C3.67948 4.71986 3.35914 5.24289 3.11895 5.8593C2.88645 6.45555 2.7283 7.13711 2.68339 8.13471C2.63867 9.13474 2.62695 9.45443 2.62695 12.0006C2.62695 14.5467 2.6382 14.8653 2.68358 15.8652C2.72952 16.8633 2.88748 17.5446 3.11914 18.1406C3.35877 18.7573 3.67911 19.2804 4.20036 19.8014C4.72133 20.323 5.24436 20.6441 5.86058 20.8835C6.45711 21.1153 7.13848 21.2733 8.13636 21.319C9.13639 21.3645 9.4557 21.3757 12.0017 21.3757C14.548 21.3757 14.8666 21.3645 15.8665 21.319C16.8646 21.2733 17.5466 21.1153 18.1431 20.8835C18.7595 20.6441 19.2818 20.323 19.8027 19.8014C20.3242 19.2804 20.6445 18.7573 20.8848 18.1409C21.1152 17.5446 21.2735 16.8631 21.3203 15.8654C21.3652 14.8655 21.377 14.5467 21.377 12.0006C21.377 9.45443 21.3652 9.13493 21.3203 8.13489C21.2735 7.13683 21.1152 6.45564 20.8848 5.85958C20.6445 5.24289 20.3242 4.71986 19.8027 4.19871C19.2813 3.67727 18.7597 3.35693 18.1426 3.11777C17.5449 2.88583 16.8633 2.72777 15.8652 2.68211C14.8652 2.63664 14.5468 2.62549 11.9999 2.62549H12.0028ZM11.1618 4.31496C11.4114 4.31458 11.69 4.31496 12.0028 4.31496C14.506 4.31496 14.8026 4.32396 15.7911 4.36886C16.7052 4.41068 17.2013 4.56339 17.5318 4.69174C17.9693 4.86161 18.2812 5.06477 18.6092 5.39299C18.9373 5.72111 19.1404 6.03358 19.3107 6.47111C19.439 6.80111 19.592 7.29724 19.6336 8.2113C19.6785 9.19961 19.6882 9.49643 19.6882 11.9984C19.6882 14.5004 19.6785 14.7973 19.6336 15.7856C19.5918 16.6996 19.439 17.1957 19.3107 17.5258C19.1408 17.9634 18.9373 18.2749 18.6092 18.6028C18.281 18.931 17.9695 19.134 17.5318 19.304C17.2017 19.4329 16.7052 19.5852 15.7911 19.6271C14.8028 19.672 14.506 19.6817 12.0028 19.6817C9.49948 19.6817 9.20276 19.672 8.21455 19.6271C7.30048 19.5849 6.80436 19.4321 6.47361 19.3038C6.03617 19.1338 5.72361 18.9308 5.39548 18.6026C5.06736 18.2745 4.8643 17.9628 4.69395 17.5251C4.56561 17.195 4.4127 16.6989 4.37108 15.7848C4.32617 14.7965 4.31717 14.4997 4.31717 11.9961C4.31717 9.49249 4.32617 9.19727 4.37108 8.20896C4.41289 7.29489 4.56561 6.79877 4.69395 6.4683C4.86392 6.03077 5.06736 5.7183 5.39558 5.39018C5.7238 5.06205 6.03617 4.85889 6.4737 4.68864C6.80417 4.55974 7.30048 4.40739 8.21455 4.36539C9.07939 4.3263 9.41455 4.31458 11.1618 4.31261V4.31496ZM17.0072 5.87158C16.3861 5.87158 15.8822 6.37502 15.8822 6.99621C15.8822 7.6173 16.3861 8.12121 17.0072 8.12121C17.6283 8.12121 18.1322 7.6173 18.1322 6.99621C18.1322 6.37511 17.6283 5.87121 17.0072 5.87121V5.87158ZM12.0028 7.18605C9.34405 7.18605 7.18836 9.34174 7.18836 12.0006C7.18836 14.6594 9.34405 16.8141 12.0028 16.8141C14.6616 16.8141 16.8166 14.6594 16.8166 12.0006C16.8166 9.34183 14.6615 7.18605 12.0026 7.18605H12.0028ZM12.0028 8.87552C13.7286 8.87552 15.1279 10.2746 15.1279 12.0006C15.1279 13.7264 13.7286 15.1256 12.0028 15.1256C10.277 15.1256 8.87783 13.7264 8.87783 12.0006C8.87783 10.2746 10.2769 8.87552 12.0028 8.87552Z" fill="white"/>
</g>
<defs>
<radialGradient id="paint0_radial_380_1744" cx="0" cy="0" r="1" gradientUnits="userSpaceOnUse" gradientTransform="translate(6.37622 25.849) rotate(-90) scale(23.7858 22.1227)">
<stop stop-color="#FFDD55"/>
<stop offset="0.1" stop-color="#FFDD55"/>
<stop offset="0.5" stop-color="#FF543E"/>
<stop offset="1" stop-color="#C837AB"/>
</radialGradient>
<radialGradient id="paint1_radial_380_1744" cx="0" cy="0" r="1" gradientUnits="userSpaceOnUse" gradientTransform="translate(-4.01887 1.72933) rotate(78.681) scale(10.6324 43.827)">
<stop stop-color="#3771C8"/>
<stop offset="0.128" stop-color="#3771C8"/>
<stop offset="1" stop-color="#6600FF" stop-opacity="0"/>
</radialGradient>
<clipPath id="clip0_380_1744">
<rect width="24" height="24" fill="white"/>
</clipPath>
</defs>
</svg>
