<svg width="24" height="24" viewBox="0 0 24 24" fill="none" xmlns="http://www.w3.org/2000/svg">
<g clip-path="url(#clip0_380_1749)">
<path d="M21.7507 0.562587H2.25073C1.80829 0.558084 1.38213 0.729282 1.06577 1.03862C0.749403 1.34795 0.568672 1.77016 0.563232 2.21259V21.7913C0.569656 22.2331 0.750819 22.6544 1.06708 22.9629C1.38333 23.2714 1.80893 23.4421 2.25073 23.4376H21.7507C22.1932 23.4411 22.6191 23.2693 22.9353 22.9598C23.2515 22.6503 23.4323 22.2282 23.4382 21.7857V2.20696C23.4303 1.76583 23.2487 1.34564 22.9327 1.03772C22.6167 0.729808 22.1919 0.559058 21.7507 0.562587Z" fill="#0076B2"/>
<path d="M3.95115 9.13721H7.34678V20.0628H3.95115V9.13721ZM5.6499 3.69971C6.03937 3.69971 6.42008 3.81522 6.74388 4.03163C7.06768 4.24804 7.32001 4.55563 7.46897 4.91548C7.61792 5.27533 7.6568 5.67128 7.58069 6.05323C7.50457 6.43518 7.31688 6.78598 7.04135 7.06124C6.76583 7.3365 6.41486 7.52385 6.03284 7.59961C5.65081 7.67536 5.2549 7.6361 4.8952 7.48681C4.53549 7.33751 4.22814 7.08488 4.01204 6.76087C3.79593 6.43687 3.68078 6.05604 3.68115 5.66658C3.68165 5.14476 3.88929 4.64448 4.25845 4.27568C4.62761 3.90687 5.12808 3.69971 5.6499 3.69971ZM9.47678 9.13721H12.7318V10.6372H12.7768C13.2305 9.77846 14.3368 8.87283 15.9887 8.87283C19.4274 8.86533 20.0649 11.1285 20.0649 14.0628V20.0628H16.6693V14.7472C16.6693 13.4816 16.6468 11.8522 14.9049 11.8522C13.163 11.8522 12.8668 13.2322 12.8668 14.6647V20.0628H9.47678V9.13721Z" fill="white"/>
</g>
<defs>
<clipPath id="clip0_380_1749">
<rect width="24" height="24" fill="white"/>
</clipPath>
</defs>
</svg>
