<svg width="24" height="18" viewBox="0 0 24 18" fill="none" xmlns="http://www.w3.org/2000/svg">
<g clip-path="url(#clip0_380_1756)">
<path d="M23.47 3.15153C23.3323 2.63903 23.0638 2.1718 22.6911 1.79637C22.3185 1.42094 21.8547 1.1504 21.346 1.0117C19.4835 0.5 11.9878 0.5 11.9878 0.5C11.9878 0.5 4.49177 0.515489 2.62933 1.02719C2.1206 1.1659 1.65681 1.43645 1.28415 1.8119C0.911497 2.18735 0.642976 2.6546 0.505331 3.16711C-0.0580132 6.50081 -0.276545 11.5806 0.520799 14.7809C0.658459 15.2934 0.926986 15.7607 1.29964 16.1361C1.6723 16.5115 2.13608 16.7821 2.6448 16.9208C4.50724 17.4325 12.0031 17.4325 12.0031 17.4325C12.0031 17.4325 19.4989 17.4325 21.3612 16.9208C21.87 16.7821 22.3338 16.5116 22.7064 16.1361C23.0791 15.7607 23.3477 15.2935 23.4853 14.7809C24.0795 11.4425 24.2626 6.36585 23.47 3.15153Z" fill="#FF0000"/>
<path d="M9.60205 12.5946L15.8203 8.96626L9.60205 5.33789V12.5946Z" fill="white"/>
</g>
<defs>
<clipPath id="clip0_380_1756">
<rect width="24" height="17" fill="white" transform="translate(0 0.5)"/>
</clipPath>
</defs>
</svg>
