<svg width="56" height="56" viewBox="0 0 56 56" fill="none" xmlns="http://www.w3.org/2000/svg">
<rect width="56" height="56" rx="12" fill="#0564F3" fill-opacity="0.1"/>
<rect x="0.5" y="0.5" width="55" height="55" rx="11.5" stroke="#0564F3" stroke-opacity="0.5"/>
<path d="M28.2726 30.1762C30.2637 30.1762 32.0997 29.6135 33.5728 28.665C34.7064 27.935 36.1981 28.0609 37.196 28.9671C39.8733 31.3991 41.5518 34.9104 41.5461 38.813L41.5437 40.4208C41.5404 42.083 40.1924 43.4285 38.5302 43.4285H18.0159C16.3537 43.4285 15.0057 42.0822 15.0025 40.4208L15 38.813C14.9943 34.9112 16.6728 31.3999 19.3501 28.9671C20.348 28.0601 21.8397 27.9342 22.9733 28.665C24.4464 29.6135 26.2824 30.1762 28.2735 30.1762H28.2726Z" fill="url(#paint0_linear_446_1339)"/>
<path d="M28.2725 27.4948C32.3935 27.4948 35.7343 24.154 35.7343 20.033C35.7343 15.912 32.3935 12.5713 28.2725 12.5713C24.1515 12.5713 20.8108 15.912 20.8108 20.033C20.8108 24.154 24.1515 27.4948 28.2725 27.4948Z" fill="url(#paint1_linear_446_1339)"/>
<defs>
<linearGradient id="paint0_linear_446_1339" x1="28.2731" y1="3.84443" x2="28.2731" y2="43.0731" gradientUnits="userSpaceOnUse">
<stop stop-color="#13C5FC"/>
<stop offset="1" stop-color="#0564F3"/>
</linearGradient>
<linearGradient id="paint1_linear_446_1339" x1="28.2725" y1="-11.2745" x2="28.2725" y2="27.1467" gradientUnits="userSpaceOnUse">
<stop stop-color="#13C5FC"/>
<stop offset="1" stop-color="#0564F3"/>
</linearGradient>
</defs>
</svg>
