<svg width="20" height="20" viewBox="0 0 20 20" fill="none" xmlns="http://www.w3.org/2000/svg">
<g clip-path="url(#clip0_163_177)">
<path d="M19.8594 10.3789C20.0469 10.1641 20.0469 9.83984 19.8594 9.62499L18.1289 7.62499C18.0234 7.5039 17.9727 7.33984 17.9922 7.17968L18.2969 4.55468C18.332 4.25781 18.1328 3.98437 17.8398 3.92187L15.1367 3.36328C14.9766 3.32812 14.8398 3.23046 14.7539 3.08984L13.3672 0.730464C13.2148 0.472651 12.8984 0.374995 12.625 0.499995L10.2422 1.60156C10.0898 1.67187 9.91016 1.67187 9.75781 1.60156L7.375 0.499995C7.10547 0.374995 6.78125 0.476558 6.63281 0.73437L5.26562 3.08593C5.18359 3.22656 5.04297 3.32812 4.88281 3.36328L2.16406 3.92187C1.87109 3.98046 1.67188 4.25781 1.70703 4.55468L2.01172 7.17968C2.03125 7.33984 1.98047 7.49999 1.875 7.62499L0.140625 9.62499C-0.046875 9.83984 -0.046875 10.1641 0.140625 10.3789L1.875 12.4023C1.98047 12.5234 2.02734 12.6836 2.01172 12.8437L1.70703 15.4687C1.67188 15.7656 1.87109 16.0391 2.16406 16.1016L4.89062 16.6602C5.05078 16.6914 5.19141 16.793 5.27344 16.9336L6.63672 19.2656C6.78516 19.5234 7.10937 19.625 7.37891 19.5L9.76172 18.3984C9.91406 18.3281 10.0937 18.3281 10.2461 18.3984L12.6328 19.5C12.9023 19.6211 13.2188 19.5234 13.3672 19.2695L14.7539 16.9297C14.8359 16.7891 14.9727 16.6914 15.1328 16.6562L17.8359 16.0977C18.1289 16.0391 18.3281 15.7617 18.293 15.4648L17.9883 12.8398C17.9688 12.6797 18.0195 12.5195 18.125 12.3984L19.8594 10.3789ZM13.9648 8.32031L9.07812 13.207C8.82422 13.4609 8.41016 13.4609 8.15625 13.207L6.03516 11.0859C5.78125 10.832 5.78125 10.418 6.03516 10.1641L6.63281 9.5664C6.88672 9.31249 7.30078 9.31249 7.55859 9.5664L8.62109 10.6289L12.4453 6.80468C12.6992 6.55078 13.1133 6.55078 13.3711 6.80468L13.9727 7.40234C14.2227 7.64843 14.2227 8.06249 13.9648 8.32031Z" fill="url(#paint0_linear_163_177)"/>
</g>
<defs>
<linearGradient id="paint0_linear_163_177" x1="10.0621" y1="-0.350005" x2="9.94223" y2="19.8758" gradientUnits="userSpaceOnUse">
<stop stop-color="#0FC8FF"/>
<stop offset="1" stop-color="#4760FF"/>
</linearGradient>
<clipPath id="clip0_163_177">
<rect width="20" height="20" fill="white"/>
</clipPath>
</defs>
</svg>
