<svg width="64" height="64" viewBox="0 0 64 64" fill="none" xmlns="http://www.w3.org/2000/svg">
<rect width="64" height="64" rx="12" fill="white"/>
<rect x="0.5" y="0.5" width="63" height="63" rx="11.5" stroke="#0564F3" stroke-opacity="0.5"/>
<path d="M13.2658 38.3189C13.2658 38.5894 13.0458 38.8095 12.7753 38.8095H10.8735C10.6029 38.8095 10.3829 38.5894 10.3829 38.3189C10.3829 38.0484 10.603 37.8284 10.8735 37.8284H12.7753C13.0459 37.8284 13.2658 38.0484 13.2658 38.3189ZM16.7027 42.9116H10.9582C10.6877 42.9116 10.4678 43.1316 10.4678 43.4021C10.4678 43.6726 10.6878 43.8927 10.9582 43.8927H16.7027C16.9732 43.8927 17.1931 43.6726 17.1931 43.4021C17.1931 43.1316 16.9731 42.9116 16.7027 42.9116ZM14.9882 48.1587C14.9882 48.4292 15.2083 48.6493 15.4787 48.6493H18.7684C19.039 48.6493 19.2589 48.4292 19.2589 48.1587C19.2589 47.8882 19.0388 47.6682 18.7684 47.6682H15.4787C15.2082 47.6682 14.9882 47.8882 14.9882 48.1587ZM6.34992 34.4786H9.8823C10.1529 34.4786 10.3728 34.2586 10.3728 33.9881C10.3728 33.7176 10.1528 33.4976 9.8823 33.4976H6.34992C6.07933 33.4976 5.85938 33.7176 5.85938 33.9881C5.85938 34.2586 6.07944 34.4786 6.34992 34.4786ZM35.9983 38.322C35.6305 38.322 35.3312 38.6212 35.3312 38.9891C35.3312 39.3569 35.6304 39.656 35.9983 39.656C36.3662 39.656 36.6654 39.3568 36.6654 38.9891C36.6654 38.6213 36.3662 38.322 35.9983 38.322ZM44.5937 38.9891C44.5937 43.7285 40.7378 47.5843 35.9983 47.5843C31.2589 47.5843 27.403 43.7285 27.403 38.9891C27.403 34.2496 31.2589 30.3937 35.9983 30.3937C40.7378 30.3937 44.5937 34.2495 44.5937 38.9891ZM35.3421 31.4596C35.3421 31.8219 35.636 32.1158 35.9983 32.1158C36.3607 32.1158 36.6546 31.8219 36.6546 31.4596V31.1246C36.6546 30.7621 36.3607 30.4683 35.9983 30.4683C35.636 30.4683 35.3421 30.7621 35.3421 31.1246V31.4596ZM29.125 38.9891C29.125 38.6267 28.8311 38.3328 28.4687 38.3328H28.1338C27.7715 38.3328 27.4776 38.6267 27.4776 38.9891C27.4776 39.3514 27.7715 39.6453 28.1338 39.6453H28.4687C28.8311 39.6453 29.125 39.3514 29.125 38.9891ZM31.138 43.8492C30.8819 43.593 30.4661 43.593 30.2101 43.8492L29.9732 44.0861C29.7168 44.3424 29.7168 44.7579 29.9732 45.0142C30.1012 45.1423 30.2692 45.2064 30.4371 45.2064C30.605 45.2064 30.773 45.1423 30.9011 45.0142L31.138 44.7773C31.3944 44.521 31.3944 44.1055 31.138 43.8492ZM31.138 33.2009L30.9011 32.964C30.645 32.7078 30.2292 32.7078 29.9732 32.964C29.7168 33.2203 29.7168 33.6358 29.9732 33.8921L30.2101 34.129C30.3382 34.2571 30.5062 34.3211 30.674 34.3211C30.8419 34.3211 31.0099 34.2571 31.138 34.129C31.3944 33.8727 31.3944 33.4572 31.138 33.2009ZM36.6546 46.5186C36.6546 46.1563 36.3607 45.8624 35.9983 45.8624C35.636 45.8624 35.3421 46.1563 35.3421 46.5186V46.8537C35.3421 47.2161 35.636 47.5099 35.9983 47.5099C36.3607 47.5099 36.6546 47.2161 36.6546 46.8537V46.5186ZM40.0639 34.9235C39.8077 34.6672 39.392 34.6672 39.136 34.9235L36.853 37.2064C36.5937 37.0816 36.3047 37.0096 35.9983 37.0096C34.9069 37.0096 34.0187 37.8976 34.0187 38.9892C34.0187 40.0807 34.9068 40.9686 35.9983 40.9686C37.0899 40.9686 37.9779 40.0806 37.9779 38.9892C37.9779 38.6828 37.9059 38.3936 37.7811 38.1345L40.0639 35.8516C40.3203 35.5954 40.3203 35.1799 40.0639 34.9236V34.9235ZM42.0233 44.0861L41.7864 43.8492C41.5303 43.593 41.1145 43.593 40.8585 43.8492C40.6021 44.1055 40.6021 44.521 40.8585 44.7773L41.0954 45.0142C41.2235 45.1423 41.3915 45.2064 41.5594 45.2064C41.7273 45.2064 41.8953 45.1423 42.0233 45.0142C42.2797 44.7579 42.2797 44.3424 42.0233 44.0861ZM42.8715 38.9891C42.8715 39.3514 43.1654 39.6453 43.5278 39.6453H43.8628C44.2252 39.6453 44.5191 39.3514 44.5191 38.9891C44.5191 38.6267 44.2252 38.3328 43.8628 38.3328H43.5278C43.1654 38.3328 42.8715 38.6267 42.8715 38.9891ZM42.0233 32.9639C41.7672 32.7077 41.3515 32.7077 41.0954 32.9639L40.8585 33.2008C40.6021 33.4571 40.6021 33.8726 40.8585 34.1289C40.9866 34.2569 41.1546 34.321 41.3225 34.321C41.4904 34.321 41.6584 34.2569 41.7864 34.1289L42.0233 33.892C42.2797 33.6357 42.2797 33.2202 42.0233 32.9639ZM48.3467 36.4138L49.8736 36.7148V41.2632L48.3467 41.5642C48.1315 41.6066 47.9517 41.7538 47.8676 41.9566L46.4886 45.281C46.4044 45.4838 46.4273 45.7155 46.5497 45.8979L47.4177 47.1921L44.2015 50.4082L42.9074 49.5404C42.7251 49.4181 42.4934 49.395 42.2904 49.4792L38.966 50.8581C38.7632 50.9422 38.6161 51.122 38.5735 51.3373L38.2724 52.8641H33.7242L33.4231 51.3373C33.3805 51.1219 33.2334 50.9421 33.0306 50.8581L29.7062 49.4792C29.6254 49.4456 29.5398 49.4291 29.4548 49.4291C29.3264 49.4291 29.1989 49.4667 29.0892 49.5404L27.7951 50.4082L24.579 47.1921L25.4469 45.8979C25.5692 45.7155 25.5922 45.4838 25.508 45.281L24.129 41.9566C24.0449 41.7538 23.8651 41.6066 23.6499 41.5642L22.123 41.2632V36.7148L23.6499 36.4138C23.8651 36.3714 24.0449 36.2242 24.129 36.0214L25.508 32.697C25.5923 32.4941 25.5693 32.2626 25.4469 32.0801L24.579 30.7859L27.7951 27.5698L29.0892 28.4376C29.2715 28.56 29.5032 28.583 29.7062 28.4988L33.0306 27.1199C33.2334 27.0358 33.3805 26.856 33.4231 26.6407L33.7242 25.1139H38.2724L38.5735 26.6407C38.6161 26.8561 38.7632 27.0359 38.966 27.1199L42.2904 28.4988C42.4933 28.5831 42.7251 28.5599 42.9074 28.4376L44.2015 27.5698L47.4177 30.7859L46.5497 32.0801C46.4274 32.2625 46.4045 32.4941 46.4886 32.697L47.8676 36.0214C47.9517 36.2242 48.1315 36.3714 48.3467 36.4138ZM45.9062 38.9891C45.9062 33.5259 41.4615 29.0812 35.9983 29.0812C30.5351 29.0812 26.0905 33.5259 26.0905 38.9891C26.0905 44.4522 30.5351 48.8968 35.9983 48.8968C41.4615 48.8968 45.9062 44.4522 45.9062 38.9891ZM58.1405 29.8413C58.1405 33.9578 55.1862 37.4558 51.1861 38.1906V36.1754C51.1861 35.8619 50.9644 35.5922 50.6569 35.5315L48.9454 35.1941L47.8356 32.519L48.8082 31.0689C48.9829 30.8086 48.9489 30.461 48.7272 30.2394L44.748 26.2602C44.5266 26.0387 44.179 26.0047 43.9185 26.1792L42.4684 27.1516L39.7933 26.042L39.4558 24.3305C39.3951 24.0229 39.1253 23.8012 38.8119 23.8012H33.1846C32.8712 23.8012 32.6015 24.0229 32.5408 24.3305L32.2032 26.0421L29.5281 27.1517L28.078 26.1793C27.8177 26.0048 27.4701 26.0386 27.2484 26.2603L23.2694 30.2395C23.0478 30.4612 23.0139 30.8087 23.1884 31.069L24.1609 32.5191L23.0512 35.1942L21.3397 35.5316C21.0321 35.5923 20.8104 35.862 20.8104 36.1755V38.3329H17.7996C17.5291 38.3329 17.3092 38.1129 17.3092 37.8424C17.3092 37.5719 17.5292 37.3518 17.7996 37.3518C17.8152 37.3518 17.8305 37.3513 17.8459 37.3502C18.7856 37.2838 19.5216 36.4938 19.5216 35.5517C19.5216 34.5575 18.7128 33.7487 17.7187 33.7487H14.2222C13.9516 33.7487 13.7315 33.5286 13.7315 33.2581C13.7315 32.9877 13.9517 32.7676 14.2222 32.7676H15.3448C16.339 32.7676 17.1479 31.9588 17.1479 30.9645C17.1479 29.9703 16.3389 29.1615 15.3448 29.1615H8.62908C8.35859 29.1615 8.13864 28.9414 8.13864 28.6709C8.13864 28.4005 8.3587 28.1804 8.62908 28.1804H14.4268C14.6216 28.1804 14.8065 28.0938 14.931 27.9442C16.2499 26.3607 17.7772 25.8422 19.5999 26.3586C19.826 26.4226 20.0681 26.3612 20.2361 26.198C20.4042 26.0347 20.4724 25.7941 20.4151 25.5668C20.0366 24.066 20.3018 22.4113 21.1427 21.0269C21.9564 19.6873 23.2246 18.7299 24.622 18.3999C26.4786 17.9613 28.5324 18.5054 29.9807 19.8202C30.1656 19.9882 30.4303 20.0367 30.6628 19.9447C30.8953 19.8528 31.0554 19.6369 31.0758 19.3877C31.4745 14.5051 35.7693 10.8127 40.6615 11.1592C45.5483 11.5048 49.2862 15.7644 48.9939 20.6546C48.9831 20.8351 49.0473 21.0122 49.1713 21.1438C49.2954 21.2753 49.4682 21.35 49.649 21.35C54.3313 21.35 58.1406 25.1594 58.1406 29.8416L58.1405 29.8413ZM47.3733 18.1881C46.5033 14.9414 43.6778 12.6973 40.1749 12.471C39.8117 12.4459 39.501 12.7218 39.4778 13.0836C39.4543 13.4453 39.7287 13.7574 40.0904 13.7807C43.0226 13.9702 45.3837 15.8336 46.1055 18.5278C46.1842 18.8211 46.4493 19.0144 46.739 19.0144C46.7953 19.0144 46.8525 19.0072 46.9093 18.9919C47.2595 18.8982 47.4673 18.5383 47.3734 18.1882L47.3733 18.1881Z" fill="url(#paint0_linear_446_1322)"/>
<path d="M13.2658 38.3189C13.2658 38.5894 13.0458 38.8095 12.7753 38.8095H10.8735C10.6029 38.8095 10.3829 38.5894 10.3829 38.3189C10.3829 38.0484 10.603 37.8284 10.8735 37.8284H12.7753C13.0459 37.8284 13.2658 38.0484 13.2658 38.3189ZM16.7027 42.9116H10.9582C10.6877 42.9116 10.4678 43.1316 10.4678 43.4021C10.4678 43.6726 10.6878 43.8927 10.9582 43.8927H16.7027C16.9732 43.8927 17.1931 43.6726 17.1931 43.4021C17.1931 43.1316 16.9731 42.9116 16.7027 42.9116ZM14.9882 48.1587C14.9882 48.4292 15.2083 48.6493 15.4787 48.6493H18.7684C19.039 48.6493 19.2589 48.4292 19.2589 48.1587C19.2589 47.8882 19.0388 47.6682 18.7684 47.6682H15.4787C15.2082 47.6682 14.9882 47.8882 14.9882 48.1587ZM6.34992 34.4786H9.8823C10.1529 34.4786 10.3728 34.2586 10.3728 33.9881C10.3728 33.7176 10.1528 33.4976 9.8823 33.4976H6.34992C6.07933 33.4976 5.85938 33.7176 5.85938 33.9881C5.85938 34.2586 6.07944 34.4786 6.34992 34.4786ZM35.9983 38.322C35.6305 38.322 35.3312 38.6212 35.3312 38.9891C35.3312 39.3569 35.6304 39.656 35.9983 39.656C36.3662 39.656 36.6654 39.3568 36.6654 38.9891C36.6654 38.6213 36.3662 38.322 35.9983 38.322ZM44.5937 38.9891C44.5937 43.7285 40.7378 47.5843 35.9983 47.5843C31.2589 47.5843 27.403 43.7285 27.403 38.9891C27.403 34.2496 31.2589 30.3937 35.9983 30.3937C40.7378 30.3937 44.5937 34.2495 44.5937 38.9891ZM35.3421 31.4596C35.3421 31.8219 35.636 32.1158 35.9983 32.1158C36.3607 32.1158 36.6546 31.8219 36.6546 31.4596V31.1246C36.6546 30.7621 36.3607 30.4683 35.9983 30.4683C35.636 30.4683 35.3421 30.7621 35.3421 31.1246V31.4596ZM29.125 38.9891C29.125 38.6267 28.8311 38.3328 28.4687 38.3328H28.1338C27.7715 38.3328 27.4776 38.6267 27.4776 38.9891C27.4776 39.3514 27.7715 39.6453 28.1338 39.6453H28.4687C28.8311 39.6453 29.125 39.3514 29.125 38.9891ZM31.138 43.8492C30.8819 43.593 30.4661 43.593 30.2101 43.8492L29.9732 44.0861C29.7168 44.3424 29.7168 44.7579 29.9732 45.0142C30.1012 45.1423 30.2692 45.2064 30.4371 45.2064C30.605 45.2064 30.773 45.1423 30.9011 45.0142L31.138 44.7773C31.3944 44.521 31.3944 44.1055 31.138 43.8492ZM31.138 33.2009L30.9011 32.964C30.645 32.7078 30.2292 32.7078 29.9732 32.964C29.7168 33.2203 29.7168 33.6358 29.9732 33.8921L30.2101 34.129C30.3382 34.2571 30.5062 34.3211 30.674 34.3211C30.8419 34.3211 31.0099 34.2571 31.138 34.129C31.3944 33.8727 31.3944 33.4572 31.138 33.2009ZM36.6546 46.5186C36.6546 46.1563 36.3607 45.8624 35.9983 45.8624C35.636 45.8624 35.3421 46.1563 35.3421 46.5186V46.8537C35.3421 47.2161 35.636 47.5099 35.9983 47.5099C36.3607 47.5099 36.6546 47.2161 36.6546 46.8537V46.5186ZM40.0639 34.9235C39.8077 34.6672 39.392 34.6672 39.136 34.9235L36.853 37.2064C36.5937 37.0816 36.3047 37.0096 35.9983 37.0096C34.9069 37.0096 34.0187 37.8976 34.0187 38.9892C34.0187 40.0807 34.9068 40.9686 35.9983 40.9686C37.0899 40.9686 37.9779 40.0806 37.9779 38.9892C37.9779 38.6828 37.9059 38.3936 37.7811 38.1345L40.0639 35.8516C40.3203 35.5954 40.3203 35.1799 40.0639 34.9236V34.9235ZM42.0233 44.0861L41.7864 43.8492C41.5303 43.593 41.1145 43.593 40.8585 43.8492C40.6021 44.1055 40.6021 44.521 40.8585 44.7773L41.0954 45.0142C41.2235 45.1423 41.3915 45.2064 41.5594 45.2064C41.7273 45.2064 41.8953 45.1423 42.0233 45.0142C42.2797 44.7579 42.2797 44.3424 42.0233 44.0861ZM42.8715 38.9891C42.8715 39.3514 43.1654 39.6453 43.5278 39.6453H43.8628C44.2252 39.6453 44.5191 39.3514 44.5191 38.9891C44.5191 38.6267 44.2252 38.3328 43.8628 38.3328H43.5278C43.1654 38.3328 42.8715 38.6267 42.8715 38.9891ZM42.0233 32.9639C41.7672 32.7077 41.3515 32.7077 41.0954 32.9639L40.8585 33.2008C40.6021 33.4571 40.6021 33.8726 40.8585 34.1289C40.9866 34.2569 41.1546 34.321 41.3225 34.321C41.4904 34.321 41.6584 34.2569 41.7864 34.1289L42.0233 33.892C42.2797 33.6357 42.2797 33.2202 42.0233 32.9639ZM48.3467 36.4138L49.8736 36.7148V41.2632L48.3467 41.5642C48.1315 41.6066 47.9517 41.7538 47.8676 41.9566L46.4886 45.281C46.4044 45.4838 46.4273 45.7155 46.5497 45.8979L47.4177 47.1921L44.2015 50.4082L42.9074 49.5404C42.7251 49.4181 42.4934 49.395 42.2904 49.4792L38.966 50.8581C38.7632 50.9422 38.6161 51.122 38.5735 51.3373L38.2724 52.8641H33.7242L33.4231 51.3373C33.3805 51.1219 33.2334 50.9421 33.0306 50.8581L29.7062 49.4792C29.6254 49.4456 29.5398 49.4291 29.4548 49.4291C29.3264 49.4291 29.1989 49.4667 29.0892 49.5404L27.7951 50.4082L24.579 47.1921L25.4469 45.8979C25.5692 45.7155 25.5922 45.4838 25.508 45.281L24.129 41.9566C24.0449 41.7538 23.8651 41.6066 23.6499 41.5642L22.123 41.2632V36.7148L23.6499 36.4138C23.8651 36.3714 24.0449 36.2242 24.129 36.0214L25.508 32.697C25.5923 32.4941 25.5693 32.2626 25.4469 32.0801L24.579 30.7859L27.7951 27.5698L29.0892 28.4376C29.2715 28.56 29.5032 28.583 29.7062 28.4988L33.0306 27.1199C33.2334 27.0358 33.3805 26.856 33.4231 26.6407L33.7242 25.1139H38.2724L38.5735 26.6407C38.6161 26.8561 38.7632 27.0359 38.966 27.1199L42.2904 28.4988C42.4933 28.5831 42.7251 28.5599 42.9074 28.4376L44.2015 27.5698L47.4177 30.7859L46.5497 32.0801C46.4274 32.2625 46.4045 32.4941 46.4886 32.697L47.8676 36.0214C47.9517 36.2242 48.1315 36.3714 48.3467 36.4138ZM45.9062 38.9891C45.9062 33.5259 41.4615 29.0812 35.9983 29.0812C30.5351 29.0812 26.0905 33.5259 26.0905 38.9891C26.0905 44.4522 30.5351 48.8968 35.9983 48.8968C41.4615 48.8968 45.9062 44.4522 45.9062 38.9891ZM58.1405 29.8413C58.1405 33.9578 55.1862 37.4558 51.1861 38.1906V36.1754C51.1861 35.8619 50.9644 35.5922 50.6569 35.5315L48.9454 35.1941L47.8356 32.519L48.8082 31.0689C48.9829 30.8086 48.9489 30.461 48.7272 30.2394L44.748 26.2602C44.5266 26.0387 44.179 26.0047 43.9185 26.1792L42.4684 27.1516L39.7933 26.042L39.4558 24.3305C39.3951 24.0229 39.1253 23.8012 38.8119 23.8012H33.1846C32.8712 23.8012 32.6015 24.0229 32.5408 24.3305L32.2032 26.0421L29.5281 27.1517L28.078 26.1793C27.8177 26.0048 27.4701 26.0386 27.2484 26.2603L23.2694 30.2395C23.0478 30.4612 23.0139 30.8087 23.1884 31.069L24.1609 32.5191L23.0512 35.1942L21.3397 35.5316C21.0321 35.5923 20.8104 35.862 20.8104 36.1755V38.3329H17.7996C17.5291 38.3329 17.3092 38.1129 17.3092 37.8424C17.3092 37.5719 17.5292 37.3518 17.7996 37.3518C17.8152 37.3518 17.8305 37.3513 17.8459 37.3502C18.7856 37.2838 19.5216 36.4938 19.5216 35.5517C19.5216 34.5575 18.7128 33.7487 17.7187 33.7487H14.2222C13.9516 33.7487 13.7315 33.5286 13.7315 33.2581C13.7315 32.9877 13.9517 32.7676 14.2222 32.7676H15.3448C16.339 32.7676 17.1479 31.9588 17.1479 30.9645C17.1479 29.9703 16.3389 29.1615 15.3448 29.1615H8.62908C8.35859 29.1615 8.13864 28.9414 8.13864 28.6709C8.13864 28.4005 8.3587 28.1804 8.62908 28.1804H14.4268C14.6216 28.1804 14.8065 28.0938 14.931 27.9442C16.2499 26.3607 17.7772 25.8422 19.5999 26.3586C19.826 26.4226 20.0681 26.3612 20.2361 26.198C20.4042 26.0347 20.4724 25.7941 20.4151 25.5668C20.0366 24.066 20.3018 22.4113 21.1427 21.0269C21.9564 19.6873 23.2246 18.7299 24.622 18.3999C26.4786 17.9613 28.5324 18.5054 29.9807 19.8202C30.1656 19.9882 30.4303 20.0367 30.6628 19.9447C30.8953 19.8528 31.0554 19.6369 31.0758 19.3877C31.4745 14.5051 35.7693 10.8127 40.6615 11.1592C45.5483 11.5048 49.2862 15.7644 48.9939 20.6546C48.9831 20.8351 49.0473 21.0122 49.1713 21.1438C49.2954 21.2753 49.4682 21.35 49.649 21.35C54.3313 21.35 58.1406 25.1594 58.1406 29.8416L58.1405 29.8413ZM47.3733 18.1881C46.5033 14.9414 43.6778 12.6973 40.1749 12.471C39.8117 12.4459 39.501 12.7218 39.4778 13.0836C39.4543 13.4453 39.7287 13.7574 40.0904 13.7807C43.0226 13.9702 45.3837 15.8336 46.1055 18.5278C46.1842 18.8211 46.4493 19.0144 46.739 19.0144C46.7953 19.0144 46.8525 19.0072 46.9093 18.9919C47.2595 18.8982 47.4673 18.5383 47.3734 18.1882L47.3733 18.1881Z" fill="url(#paint1_linear_446_1322)"/>
<defs>
<linearGradient id="paint0_linear_446_1322" x1="32" y1="11.1367" x2="32" y2="52.8641" gradientUnits="userSpaceOnUse">
<stop stop-color="#FD444B"/>
<stop offset="1" stop-color="#F57F83"/>
</linearGradient>
<linearGradient id="paint1_linear_446_1322" x1="32" y1="-55.5383" x2="32" y2="51.8908" gradientUnits="userSpaceOnUse">
<stop stop-color="#13C5FC"/>
<stop offset="1" stop-color="#0564F3"/>
</linearGradient>
</defs>
</svg>
