<svg width="64" height="64" viewBox="0 0 64 64" fill="none" xmlns="http://www.w3.org/2000/svg">
<rect width="64" height="64" rx="12" fill="white"/>
<rect x="0.5" y="0.5" width="63" height="63" rx="11.5" stroke="#0564F3" stroke-opacity="0.5"/>
<path d="M22.5662 46.8241C22.5662 43.8512 20.1486 41.4336 17.1757 41.4336C14.2027 41.4336 11.7851 43.8512 11.7851 46.8241V49.5194C11.7851 51.0052 10.4858 52.3045 9 52.3045V54.9998H14.4804C18.9392 54.9998 22.5662 51.2829 22.5662 46.8241Z" fill="url(#paint0_linear_446_1300)"/>
<path d="M22.5662 46.8241C22.5662 43.8512 20.1486 41.4336 17.1757 41.4336C14.2027 41.4336 11.7851 43.8512 11.7851 46.8241V49.5194C11.7851 51.0052 10.4858 52.3045 9 52.3045V54.9998H14.4804C18.9392 54.9998 22.5662 51.2829 22.5662 46.8241Z" fill="url(#paint1_linear_446_1300)"/>
<path d="M31.5561 20.2845C30.8369 20.478 30.4095 21.2145 30.6033 21.9349C30.789 22.6279 31.5002 23.0838 32.2537 22.8877C32.9778 22.6929 33.3982 21.9528 33.2065 21.2373C33.0118 20.5144 32.2675 20.0927 31.5561 20.2845Z" fill="url(#paint2_linear_446_1300)"/>
<path d="M31.5561 20.2845C30.8369 20.478 30.4095 21.2145 30.6033 21.9349C30.789 22.6279 31.5002 23.0838 32.2537 22.8877C32.9778 22.6929 33.3982 21.9528 33.2065 21.2373C33.0118 20.5144 32.2675 20.0927 31.5561 20.2845Z" fill="url(#paint3_linear_446_1300)"/>
<path d="M23.9323 30.5117C24.6474 30.7014 25.3874 30.2852 25.5826 29.5589C25.7772 28.8328 25.3441 28.1002 24.6311 27.9086H24.6297C24.2474 27.8054 24.1441 27.8831 23.8738 27.9713C23.8891 28.7835 23.8997 29.6261 23.9054 30.4985C23.9153 30.5014 23.9222 30.5091 23.9323 30.5117Z" fill="url(#paint4_linear_446_1300)"/>
<path d="M23.9323 30.5117C24.6474 30.7014 25.3874 30.2852 25.5826 29.5589C25.7772 28.8328 25.3441 28.1002 24.6311 27.9086H24.6297C24.2474 27.8054 24.1441 27.8831 23.8738 27.9713C23.8891 28.7835 23.8997 29.6261 23.9054 30.4985C23.9153 30.5014 23.9222 30.5091 23.9323 30.5117Z" fill="url(#paint5_linear_446_1300)"/>
<path d="M38.7866 42.064C38.5917 41.3393 37.8479 40.9204 37.1363 41.1124C36.4047 41.3092 35.9933 42.0557 36.1835 42.7628C36.3757 43.48 37.1073 43.9038 37.8338 43.7156C38.553 43.5221 38.9804 42.7856 38.7866 42.0652V42.064Z" fill="url(#paint6_linear_446_1300)"/>
<path d="M38.7866 42.064C38.5917 41.3393 37.8479 40.9204 37.1363 41.1124C36.4047 41.3092 35.9933 42.0557 36.1835 42.7628C36.3757 43.48 37.1073 43.9038 37.8338 43.7156C38.553 43.5221 38.9804 42.7856 38.7866 42.0652V42.064Z" fill="url(#paint7_linear_446_1300)"/>
<path d="M43.2717 25.3302C43.7968 24.8038 43.7968 23.9483 43.2717 23.4232C42.7462 22.8978 41.8923 22.8956 41.3646 23.4232C40.8395 23.9483 40.8395 24.8051 41.366 25.3302C41.8898 25.854 42.7452 25.854 43.2717 25.3302Z" fill="url(#paint8_linear_446_1300)"/>
<path d="M43.2717 25.3302C43.7968 24.8038 43.7968 23.9483 43.2717 23.4232C42.7462 22.8978 41.8923 22.8956 41.3646 23.4232C40.8395 23.9483 40.8395 24.8051 41.366 25.3302C41.8898 25.854 42.7452 25.854 43.2717 25.3302Z" fill="url(#paint9_linear_446_1300)"/>
<path d="M34.774 11.7144C30.3469 11.874 26.2831 13.624 23.0439 15.8458C23.407 18.3172 23.6635 21.3933 23.8001 25.1977C24.3046 25.1375 24.8207 25.1694 25.326 25.3053C27.4857 25.8828 28.7658 28.0967 28.1858 30.2563C27.6969 32.083 26.0467 33.2542 24.2876 33.2542C24.1582 33.2542 24.0292 33.2154 23.8997 33.2029C23.8834 35.3584 23.8346 37.4911 23.7416 39.5278C25.1219 40.1012 26.2007 40.8652 26.9052 41.8547C28.3318 43.8591 27.9515 46.2095 27.8015 46.8833C27.3017 49.1216 28.6214 51.4002 30.8823 51.8356C32.1603 52.0805 33.4447 52.2015 34.72 52.2015C45.8037 52.2015 55.0897 43.1984 54.9994 31.8382C54.9049 20.3166 44.9345 11.3316 34.774 11.7144ZM39.4578 21.5177C41.037 19.941 43.6007 19.941 45.1773 21.5177C46.754 23.0943 46.754 25.6593 45.1773 27.2359V27.2372C43.6009 28.8111 41.0357 28.8113 39.4591 27.2372C37.8838 25.6592 37.8838 23.0943 39.4578 21.5177ZM28.0002 22.631C27.4265 20.5005 28.6776 18.2643 30.8586 17.6813C33.0024 17.1062 35.2305 18.3854 35.8096 20.5397C36.3884 22.695 35.1112 24.9125 32.9511 25.4907C30.7966 26.0681 28.5791 24.7963 28.0002 22.631ZM38.5313 46.3187C36.3772 46.8957 34.158 45.6128 33.5803 43.4602C33.0015 41.305 34.2787 39.0875 36.4387 38.5093C38.6079 37.9322 40.8134 39.2138 41.3897 41.3691C41.9702 43.5276 40.6867 45.7423 38.5313 46.3187ZM49.0135 35.8363C48.4362 37.9959 46.2171 39.2741 44.0626 38.6947C41.9087 38.1181 40.6229 35.9075 41.2042 33.7438C41.7875 31.5644 44.0198 30.3132 46.1551 30.8854C48.3095 31.4631 49.5914 33.6846 49.0135 35.8363Z" fill="url(#paint10_linear_446_1300)"/>
<path d="M34.774 11.7144C30.3469 11.874 26.2831 13.624 23.0439 15.8458C23.407 18.3172 23.6635 21.3933 23.8001 25.1977C24.3046 25.1375 24.8207 25.1694 25.326 25.3053C27.4857 25.8828 28.7658 28.0967 28.1858 30.2563C27.6969 32.083 26.0467 33.2542 24.2876 33.2542C24.1582 33.2542 24.0292 33.2154 23.8997 33.2029C23.8834 35.3584 23.8346 37.4911 23.7416 39.5278C25.1219 40.1012 26.2007 40.8652 26.9052 41.8547C28.3318 43.8591 27.9515 46.2095 27.8015 46.8833C27.3017 49.1216 28.6214 51.4002 30.8823 51.8356C32.1603 52.0805 33.4447 52.2015 34.72 52.2015C45.8037 52.2015 55.0897 43.1984 54.9994 31.8382C54.9049 20.3166 44.9345 11.3316 34.774 11.7144ZM39.4578 21.5177C41.037 19.941 43.6007 19.941 45.1773 21.5177C46.754 23.0943 46.754 25.6593 45.1773 27.2359V27.2372C43.6009 28.8111 41.0357 28.8113 39.4591 27.2372C37.8838 25.6592 37.8838 23.0943 39.4578 21.5177ZM28.0002 22.631C27.4265 20.5005 28.6776 18.2643 30.8586 17.6813C33.0024 17.1062 35.2305 18.3854 35.8096 20.5397C36.3884 22.695 35.1112 24.9125 32.9511 25.4907C30.7966 26.0681 28.5791 24.7963 28.0002 22.631ZM38.5313 46.3187C36.3772 46.8957 34.158 45.6128 33.5803 43.4602C33.0015 41.305 34.2787 39.0875 36.4387 38.5093C38.6079 37.9322 40.8134 39.2138 41.3897 41.3691C41.9702 43.5276 40.6867 45.7423 38.5313 46.3187ZM49.0135 35.8363C48.4362 37.9959 46.2171 39.2741 44.0626 38.6947C41.9087 38.1181 40.6229 35.9075 41.2042 33.7438C41.7875 31.5644 44.0198 30.3132 46.1551 30.8854C48.3095 31.4631 49.5914 33.6846 49.0135 35.8363Z" fill="url(#paint11_linear_446_1300)"/>
<path d="M45.4575 33.4887C44.7516 33.2984 44.0041 33.7097 43.8071 34.4415C43.6125 35.1676 44.0457 35.9002 44.7587 36.0919C45.4966 36.2825 46.2192 35.85 46.4104 35.1391C46.6024 34.4219 46.1747 33.6809 45.4575 33.4887Z" fill="url(#paint12_linear_446_1300)"/>
<path d="M45.4575 33.4887C44.7516 33.2984 44.0041 33.7097 43.8071 34.4415C43.6125 35.1676 44.0457 35.9002 44.7587 36.0919C45.4966 36.2825 46.2192 35.85 46.4104 35.1391C46.6024 34.4219 46.1747 33.6809 45.4575 33.4887Z" fill="url(#paint13_linear_446_1300)"/>
<path d="M21.2024 33.3478C21.2061 32.8969 21.2186 32.453 21.2186 32.0001C21.2186 21.5494 20.5171 9.00049 17.1757 9.00049C13.8343 9.00049 13.1328 21.5494 13.1328 32.0001C13.1328 32.453 13.1453 32.8969 13.1491 33.3478H21.2024Z" fill="url(#paint14_linear_446_1300)"/>
<path d="M21.2024 33.3478C21.2061 32.8969 21.2186 32.453 21.2186 32.0001C21.2186 21.5494 20.5171 9.00049 17.1757 9.00049C13.8343 9.00049 13.1328 21.5494 13.1328 32.0001C13.1328 32.453 13.1453 32.8969 13.1491 33.3478H21.2024Z" fill="url(#paint15_linear_446_1300)"/>
<path d="M17.1756 38.7382C18.5799 38.7382 19.8818 39.1301 21.0336 39.7623C21.0919 38.5528 21.1363 37.3071 21.1674 36.043H13.1838C13.2149 37.3071 13.2593 38.5528 13.3176 39.7623C14.4695 39.13 15.7714 38.7382 17.1756 38.7382Z" fill="url(#paint16_linear_446_1300)"/>
<path d="M17.1756 38.7382C18.5799 38.7382 19.8818 39.1301 21.0336 39.7623C21.0919 38.5528 21.1363 37.3071 21.1674 36.043H13.1838C13.2149 37.3071 13.2593 38.5528 13.3176 39.7623C14.4695 39.13 15.7714 38.7382 17.1756 38.7382Z" fill="url(#paint17_linear_446_1300)"/>
<defs>
<linearGradient id="paint0_linear_446_1300" x1="15.7831" y1="41.4336" x2="15.7831" y2="54.9998" gradientUnits="userSpaceOnUse">
<stop stop-color="#FF90D1"/>
<stop offset="1" stop-color="#FB1C9E"/>
</linearGradient>
<linearGradient id="paint1_linear_446_1300" x1="15.7831" y1="19.7566" x2="15.7831" y2="54.6834" gradientUnits="userSpaceOnUse">
<stop stop-color="#13C5FC"/>
<stop offset="1" stop-color="#0564F3"/>
</linearGradient>
<linearGradient id="paint2_linear_446_1300" x1="31.9047" y1="20.2383" x2="31.9047" y2="22.9334" gradientUnits="userSpaceOnUse">
<stop stop-color="#FF90D1"/>
<stop offset="1" stop-color="#FB1C9E"/>
</linearGradient>
<linearGradient id="paint3_linear_446_1300" x1="31.9047" y1="15.9318" x2="31.9047" y2="22.8706" gradientUnits="userSpaceOnUse">
<stop stop-color="#13C5FC"/>
<stop offset="1" stop-color="#0564F3"/>
</linearGradient>
<linearGradient id="paint4_linear_446_1300" x1="24.7515" y1="27.8594" x2="24.7515" y2="30.5574" gradientUnits="userSpaceOnUse">
<stop stop-color="#FF90D1"/>
<stop offset="1" stop-color="#FB1C9E"/>
</linearGradient>
<linearGradient id="paint5_linear_446_1300" x1="24.7515" y1="23.5482" x2="24.7515" y2="30.4945" gradientUnits="userSpaceOnUse">
<stop stop-color="#13C5FC"/>
<stop offset="1" stop-color="#0564F3"/>
</linearGradient>
<linearGradient id="paint6_linear_446_1300" x1="37.4853" y1="41.0659" x2="37.4853" y2="43.7602" gradientUnits="userSpaceOnUse">
<stop stop-color="#FF90D1"/>
<stop offset="1" stop-color="#FB1C9E"/>
</linearGradient>
<linearGradient id="paint7_linear_446_1300" x1="37.4853" y1="36.7608" x2="37.4853" y2="43.6974" gradientUnits="userSpaceOnUse">
<stop stop-color="#13C5FC"/>
<stop offset="1" stop-color="#0564F3"/>
</linearGradient>
<linearGradient id="paint8_linear_446_1300" x1="42.3182" y1="23.0283" x2="42.3182" y2="25.723" gradientUnits="userSpaceOnUse">
<stop stop-color="#FF90D1"/>
<stop offset="1" stop-color="#FB1C9E"/>
</linearGradient>
<linearGradient id="paint9_linear_446_1300" x1="42.3182" y1="18.7225" x2="42.3182" y2="25.6602" gradientUnits="userSpaceOnUse">
<stop stop-color="#13C5FC"/>
<stop offset="1" stop-color="#0564F3"/>
</linearGradient>
<linearGradient id="paint10_linear_446_1300" x1="39.022" y1="11.7026" x2="39.022" y2="52.2015" gradientUnits="userSpaceOnUse">
<stop stop-color="#FF90D1"/>
<stop offset="1" stop-color="#FB1C9E"/>
</linearGradient>
<linearGradient id="paint11_linear_446_1300" x1="39.022" y1="-53.0092" x2="39.022" y2="51.2568" gradientUnits="userSpaceOnUse">
<stop stop-color="#13C5FC"/>
<stop offset="1" stop-color="#0564F3"/>
</linearGradient>
<linearGradient id="paint12_linear_446_1300" x1="45.1084" y1="33.4424" x2="45.1084" y2="36.1369" gradientUnits="userSpaceOnUse">
<stop stop-color="#FF90D1"/>
<stop offset="1" stop-color="#FB1C9E"/>
</linearGradient>
<linearGradient id="paint13_linear_446_1300" x1="45.1084" y1="29.1368" x2="45.1084" y2="36.0741" gradientUnits="userSpaceOnUse">
<stop stop-color="#13C5FC"/>
<stop offset="1" stop-color="#0564F3"/>
</linearGradient>
<linearGradient id="paint14_linear_446_1300" x1="17.1757" y1="9.00049" x2="17.1757" y2="33.3478" gradientUnits="userSpaceOnUse">
<stop stop-color="#FF90D1"/>
<stop offset="1" stop-color="#FB1C9E"/>
</linearGradient>
<linearGradient id="paint15_linear_446_1300" x1="17.1757" y1="-29.9033" x2="17.1757" y2="32.7798" gradientUnits="userSpaceOnUse">
<stop stop-color="#13C5FC"/>
<stop offset="1" stop-color="#0564F3"/>
</linearGradient>
<linearGradient id="paint16_linear_446_1300" x1="17.1756" y1="36.043" x2="17.1756" y2="39.7623" gradientUnits="userSpaceOnUse">
<stop stop-color="#FF90D1"/>
<stop offset="1" stop-color="#FB1C9E"/>
</linearGradient>
<linearGradient id="paint17_linear_446_1300" x1="17.1756" y1="30.1" x2="17.1756" y2="39.6755" gradientUnits="userSpaceOnUse">
<stop stop-color="#13C5FC"/>
<stop offset="1" stop-color="#0564F3"/>
</linearGradient>
</defs>
</svg>
