<svg width="56" height="56" viewBox="0 0 56 56" fill="none" xmlns="http://www.w3.org/2000/svg">
<rect width="56" height="56" rx="12" fill="white"/>
<rect x="0.5" y="0.5" width="55" height="55" rx="11.5" stroke="#0564F3" stroke-opacity="0.5"/>
<g clip-path="url(#clip0_446_1327)">
<path d="M20.1399 20.6416L17.3675 20.8558C16.5961 20.9154 15.909 21.3197 15.4824 21.965L12.2851 26.8007C11.9616 27.2901 11.9101 27.9025 12.1475 28.439C12.3848 28.9755 12.8726 29.3494 13.4523 29.4392L15.9907 29.8323C16.5845 26.6811 18.006 23.5376 20.1399 20.6416Z" fill="black"/>
<path d="M20.1399 20.6416L17.3675 20.8558C16.5961 20.9154 15.909 21.3197 15.4824 21.965L12.2851 26.8007C11.9616 27.2901 11.9101 27.9025 12.1475 28.439C12.3848 28.9755 12.8726 29.3494 13.4523 29.4392L15.9907 29.8323C16.5845 26.6811 18.006 23.5376 20.1399 20.6416Z" fill="url(#paint0_linear_446_1327)"/>
<path d="M26.1675 40.009L26.5607 42.5474C26.6505 43.1271 27.0243 43.6149 27.5608 43.8522C27.784 43.951 28.0202 43.9997 28.2553 43.9997C28.5855 43.9997 28.9133 43.9035 29.1991 43.7146L34.035 40.5173C34.6803 40.0906 35.0846 39.4035 35.1441 38.6322L35.3583 35.8599C32.4622 37.9938 29.3188 39.4153 26.1675 40.009Z" fill="black"/>
<path d="M26.1675 40.009L26.5607 42.5474C26.6505 43.1271 27.0243 43.6149 27.5608 43.8522C27.784 43.951 28.0202 43.9997 28.2553 43.9997C28.5855 43.9997 28.9133 43.9035 29.1991 43.7146L34.035 40.5173C34.6803 40.0906 35.0846 39.4035 35.1441 38.6322L35.3583 35.8599C32.4622 37.9938 29.3188 39.4153 26.1675 40.009Z" fill="url(#paint1_linear_446_1327)"/>
<path d="M25.2129 38.2497C25.301 38.2497 25.3896 38.2425 25.4781 38.2277C26.7983 38.007 28.0708 37.6351 29.2847 37.1484L18.8516 26.7153C18.3649 27.9291 17.993 29.2016 17.7722 30.5219C17.6852 31.0424 17.8598 31.5725 18.2329 31.9457L24.0543 37.7671C24.3641 38.0768 24.7821 38.2497 25.2129 38.2497Z" fill="black"/>
<path d="M25.2129 38.2497C25.301 38.2497 25.3896 38.2425 25.4781 38.2277C26.7983 38.007 28.0708 37.6351 29.2847 37.1484L18.8516 26.7153C18.3649 27.9291 17.993 29.2016 17.7722 30.5219C17.6852 31.0424 17.8598 31.5725 18.2329 31.9457L24.0543 37.7671C24.3641 38.0768 24.7821 38.2497 25.2129 38.2497Z" fill="url(#paint2_linear_446_1327)"/>
<path d="M41.4483 26.1876C44.0013 21.2517 44.0959 16.0358 43.9624 13.5896C43.9168 12.7514 43.2485 12.0831 42.4103 12.0374C42.012 12.0157 41.5399 12 41.0078 12C38.2725 12 33.9443 12.4143 29.8122 14.5516C26.5284 16.2502 22.2224 19.9902 19.6819 24.9053C19.7119 24.9287 19.7412 24.9536 19.7688 24.9812L31.0187 36.2311C31.0464 36.2587 31.0712 36.288 31.0946 36.318C36.0097 33.7775 39.7497 29.4714 41.4483 26.1876ZM30.6059 18.7649C32.4334 16.9374 35.4072 16.9372 37.2349 18.7649C38.1202 19.6503 38.6078 20.8274 38.6078 22.0795C38.6078 23.3315 38.1202 24.5087 37.2349 25.394C36.3212 26.3077 35.1206 26.7646 33.9204 26.7648C32.7198 26.7648 31.5198 26.3079 30.6059 25.394C29.7205 24.5087 29.2329 23.3315 29.2329 22.0795C29.2329 20.8274 29.7205 19.6503 30.6059 18.7649Z" fill="black"/>
<path d="M41.4483 26.1876C44.0013 21.2517 44.0959 16.0358 43.9624 13.5896C43.9168 12.7514 43.2485 12.0831 42.4103 12.0374C42.012 12.0157 41.5399 12 41.0078 12C38.2725 12 33.9443 12.4143 29.8122 14.5516C26.5284 16.2502 22.2224 19.9902 19.6819 24.9053C19.7119 24.9287 19.7412 24.9536 19.7688 24.9812L31.0187 36.2311C31.0464 36.2587 31.0712 36.288 31.0946 36.318C36.0097 33.7775 39.7497 29.4714 41.4483 26.1876ZM30.6059 18.7649C32.4334 16.9374 35.4072 16.9372 37.2349 18.7649C38.1202 19.6503 38.6078 20.8274 38.6078 22.0795C38.6078 23.3315 38.1202 24.5087 37.2349 25.394C36.3212 26.3077 35.1206 26.7646 33.9204 26.7648C32.7198 26.7648 31.5198 26.3079 30.6059 25.394C29.7205 24.5087 29.2329 23.3315 29.2329 22.0795C29.2329 20.8274 29.7205 19.6503 30.6059 18.7649Z" fill="url(#paint3_linear_446_1327)"/>
<path d="M31.9319 24.0684C33.0285 25.165 34.8128 25.1651 35.9094 24.0684C36.4406 23.5372 36.7332 22.8309 36.7332 22.0797C36.7332 21.3284 36.4406 20.6222 35.9094 20.091C35.3612 19.5427 34.6409 19.2686 33.9207 19.2686C33.2005 19.2686 32.4802 19.5427 31.932 20.091C31.4008 20.6222 31.1082 21.3284 31.1082 22.0797C31.1082 22.8309 31.4007 23.5372 31.9319 24.0684Z" fill="black"/>
<path d="M31.9319 24.0684C33.0285 25.165 34.8128 25.1651 35.9094 24.0684C36.4406 23.5372 36.7332 22.8309 36.7332 22.0797C36.7332 21.3284 36.4406 20.6222 35.9094 20.091C35.3612 19.5427 34.6409 19.2686 33.9207 19.2686C33.2005 19.2686 32.4802 19.5427 31.932 20.091C31.4008 20.6222 31.1082 21.3284 31.1082 22.0797C31.1082 22.8309 31.4007 23.5372 31.9319 24.0684Z" fill="url(#paint4_linear_446_1327)"/>
<path d="M12.9566 38.3709C13.1965 38.3709 13.4364 38.2794 13.6194 38.0963L16.6803 35.0355C17.0464 34.6693 17.0464 34.0758 16.6803 33.7097C16.3142 33.3435 15.7206 33.3435 15.3544 33.7097L12.2936 36.7705C11.9275 37.1366 11.9275 37.7302 12.2936 38.0963C12.4767 38.2793 12.7166 38.3709 12.9566 38.3709Z" fill="black"/>
<path d="M12.9566 38.3709C13.1965 38.3709 13.4364 38.2794 13.6194 38.0963L16.6803 35.0355C17.0464 34.6693 17.0464 34.0758 16.6803 33.7097C16.3142 33.3435 15.7206 33.3435 15.3544 33.7097L12.2936 36.7705C11.9275 37.1366 11.9275 37.7302 12.2936 38.0963C12.4767 38.2793 12.7166 38.3709 12.9566 38.3709Z" fill="url(#paint5_linear_446_1327)"/>
<path d="M19.4853 36.5148C19.1193 36.1487 18.5257 36.1487 18.1595 36.5148L12.2748 42.3995C11.9087 42.7656 11.9087 43.3592 12.2748 43.7253C12.4579 43.9084 12.6978 43.9999 12.9378 43.9999C13.1777 43.9999 13.4177 43.9084 13.6007 43.7253L19.4853 37.8406C19.8515 37.4745 19.8515 36.881 19.4853 36.5148Z" fill="black"/>
<path d="M19.4853 36.5148C19.1193 36.1487 18.5257 36.1487 18.1595 36.5148L12.2748 42.3995C11.9087 42.7656 11.9087 43.3592 12.2748 43.7253C12.4579 43.9084 12.6978 43.9999 12.9378 43.9999C13.1777 43.9999 13.4177 43.9084 13.6007 43.7253L19.4853 37.8406C19.8515 37.4745 19.8515 36.881 19.4853 36.5148Z" fill="url(#paint6_linear_446_1327)"/>
<path d="M20.9645 39.32L17.9037 42.3808C17.5376 42.7469 17.5376 43.3405 17.9037 43.7066C18.0868 43.8897 18.3267 43.9813 18.5666 43.9813C18.8065 43.9813 19.0465 43.8898 19.2295 43.7066L22.2903 40.6458C22.6564 40.2797 22.6564 39.6861 22.2903 39.32C21.9242 38.9539 21.3306 38.9539 20.9645 39.32Z" fill="black"/>
<path d="M20.9645 39.32L17.9037 42.3808C17.5376 42.7469 17.5376 43.3405 17.9037 43.7066C18.0868 43.8897 18.3267 43.9813 18.5666 43.9813C18.8065 43.9813 19.0465 43.8898 19.2295 43.7066L22.2903 40.6458C22.6564 40.2797 22.6564 39.6861 22.2903 39.32C21.9242 38.9539 21.3306 38.9539 20.9645 39.32Z" fill="url(#paint7_linear_446_1327)"/>
</g>
<defs>
<linearGradient id="paint0_linear_446_1327" x1="16.0699" y1="5.95599" x2="16.0699" y2="29.618" gradientUnits="userSpaceOnUse">
<stop stop-color="#13C5FC"/>
<stop offset="1" stop-color="#0564F3"/>
</linearGradient>
<linearGradient id="paint1_linear_446_1327" x1="30.7629" y1="22.8534" x2="30.7629" y2="43.8099" gradientUnits="userSpaceOnUse">
<stop stop-color="#13C5FC"/>
<stop offset="1" stop-color="#0564F3"/>
</linearGradient>
<linearGradient id="paint2_linear_446_1327" x1="23.5175" y1="8.28484" x2="23.5175" y2="37.9807" gradientUnits="userSpaceOnUse">
<stop stop-color="#13C5FC"/>
<stop offset="1" stop-color="#0564F3"/>
</linearGradient>
<linearGradient id="paint3_linear_446_1327" x1="31.8409" y1="-26.857" x2="31.8409" y2="35.7507" gradientUnits="userSpaceOnUse">
<stop stop-color="#13C5FC"/>
<stop offset="1" stop-color="#0564F3"/>
</linearGradient>
<linearGradient id="paint4_linear_446_1327" x1="33.9207" y1="10.2848" x2="33.9207" y2="24.7597" gradientUnits="userSpaceOnUse">
<stop stop-color="#13C5FC"/>
<stop offset="1" stop-color="#0564F3"/>
</linearGradient>
<linearGradient id="paint5_linear_446_1327" x1="14.4869" y1="25.5482" x2="14.4869" y2="38.2558" gradientUnits="userSpaceOnUse">
<stop stop-color="#13C5FC"/>
<stop offset="1" stop-color="#0564F3"/>
</linearGradient>
<linearGradient id="paint6_linear_446_1327" x1="15.8801" y1="23.8413" x2="15.8801" y2="43.8189" gradientUnits="userSpaceOnUse">
<stop stop-color="#13C5FC"/>
<stop offset="1" stop-color="#0564F3"/>
</linearGradient>
<linearGradient id="paint7_linear_446_1327" x1="20.097" y1="31.1586" x2="20.097" y2="43.8661" gradientUnits="userSpaceOnUse">
<stop stop-color="#13C5FC"/>
<stop offset="1" stop-color="#0564F3"/>
</linearGradient>
<clipPath id="clip0_446_1327">
<rect width="32" height="32" fill="white" transform="translate(12 12)"/>
</clipPath>
</defs>
</svg>
