<svg width="64" height="64" viewBox="0 0 64 64" fill="none" xmlns="http://www.w3.org/2000/svg">
<rect width="64" height="64" rx="12" fill="white"/>
<rect x="0.5" y="0.5" width="63" height="63" rx="11.5" stroke="#0564F3" stroke-opacity="0.5"/>
<path d="M49.7662 22.5216L45.6055 26.6822C46.2522 28.331 46.6077 30.1247 46.6077 32C46.6077 40.0548 40.0547 46.6077 32 46.6077C23.9453 46.6077 17.3923 40.0548 17.3923 32C17.3923 23.9452 23.9452 17.3923 32 17.3923C33.9241 17.3923 35.7621 17.767 37.446 18.4461L41.5951 14.2969C39.9595 13.4073 38.1879 12.7373 36.3199 12.3275L35.6295 9H28.3705L27.6845 12.3264C25.3278 12.843 23.1235 13.772 21.1534 15.0361L18.303 13.1701L13.1701 18.3031L15.0385 21.1497C13.7747 23.1183 12.8455 25.3207 12.3283 27.6758L9 28.3705V35.6295L12.3273 36.3198C12.8441 38.6749 13.7727 40.8776 15.036 42.8466L13.17 45.697L18.3029 50.83L21.1495 48.9616C23.1181 50.2253 25.3206 51.1545 27.6756 51.6718L28.3705 55H35.6295L36.3199 51.6726C38.6766 51.1556 40.8805 50.226 42.8504 48.9614L45.697 50.8298L50.8299 45.6969L48.9591 42.8539C50.2249 40.8831 51.1553 38.6778 51.6727 36.3197L55 35.6295V28.3705L51.6736 27.6845C51.2736 25.8592 50.6251 24.126 49.7662 22.5216Z" fill="url(#paint0_linear_446_1314)"/>
<path d="M49.7662 22.5216L45.6055 26.6822C46.2522 28.331 46.6077 30.1247 46.6077 32C46.6077 40.0548 40.0547 46.6077 32 46.6077C23.9453 46.6077 17.3923 40.0548 17.3923 32C17.3923 23.9452 23.9452 17.3923 32 17.3923C33.9241 17.3923 35.7621 17.767 37.446 18.4461L41.5951 14.2969C39.9595 13.4073 38.1879 12.7373 36.3199 12.3275L35.6295 9H28.3705L27.6845 12.3264C25.3278 12.843 23.1235 13.772 21.1534 15.0361L18.303 13.1701L13.1701 18.3031L15.0385 21.1497C13.7747 23.1183 12.8455 25.3207 12.3283 27.6758L9 28.3705V35.6295L12.3273 36.3198C12.8441 38.6749 13.7727 40.8776 15.036 42.8466L13.17 45.697L18.3029 50.83L21.1495 48.9616C23.1181 50.2253 25.3206 51.1545 27.6756 51.6718L28.3705 55H35.6295L36.3199 51.6726C38.6766 51.1556 40.8805 50.226 42.8504 48.9614L45.697 50.8298L50.8299 45.6969L48.9591 42.8539C50.2249 40.8831 51.1553 38.6778 51.6727 36.3197L55 35.6295V28.3705L51.6736 27.6845C51.2736 25.8592 50.6251 24.126 49.7662 22.5216Z" fill="url(#paint1_linear_446_1314)"/>
<path d="M31.9998 40.9798C27.0402 40.9798 23.0198 36.9592 23.0198 31.9998C23.0198 27.0403 27.0403 23.0198 31.9998 23.0198C32.2807 23.0198 32.5585 23.0334 32.8329 23.0586L35.3298 20.5617C34.2726 20.2533 33.1553 20.0874 31.9998 20.0874C25.4313 20.0874 20.0874 25.4313 20.0874 31.9998C20.0874 38.5683 25.4313 43.9122 31.9998 43.9122C38.5683 43.9122 43.9122 38.5683 43.9122 31.9998C43.9122 30.8952 43.7604 29.8254 43.4777 28.8095L40.955 31.3322C40.9712 31.5525 40.9798 31.7752 40.9798 31.9997C40.9798 36.9593 36.9593 40.9798 31.9998 40.9798Z" fill="url(#paint2_linear_446_1314)"/>
<path d="M31.9998 40.9798C27.0402 40.9798 23.0198 36.9592 23.0198 31.9998C23.0198 27.0403 27.0403 23.0198 31.9998 23.0198C32.2807 23.0198 32.5585 23.0334 32.8329 23.0586L35.3298 20.5617C34.2726 20.2533 33.1553 20.0874 31.9998 20.0874C25.4313 20.0874 20.0874 25.4313 20.0874 31.9998C20.0874 38.5683 25.4313 43.9122 31.9998 43.9122C38.5683 43.9122 43.9122 38.5683 43.9122 31.9998C43.9122 30.8952 43.7604 29.8254 43.4777 28.8095L40.955 31.3322C40.9712 31.5525 40.9798 31.7752 40.9798 31.9997C40.9798 36.9593 36.9593 40.9798 31.9998 40.9798Z" fill="url(#paint3_linear_446_1314)"/>
<path d="M31.9782 25.5179C28.3822 25.5179 25.467 28.433 25.467 32.0291C25.467 32.9903 25.677 33.9021 26.0509 34.7233L29.3222 31.452H32.6377V34.7675L29.3974 38.0078C30.1889 38.3499 31.0611 38.5404 31.9781 38.5404C35.5741 38.5404 38.4894 35.6252 38.4894 32.0292C38.4894 31.4437 38.4108 30.8768 38.2659 30.3371L54.9999 13.5213L50.5685 9L33.7988 25.7778C33.2208 25.6097 32.6104 25.5179 31.9782 25.5179Z" fill="url(#paint4_linear_446_1314)"/>
<path d="M31.9782 25.5179C28.3822 25.5179 25.467 28.433 25.467 32.0291C25.467 32.9903 25.677 33.9021 26.0509 34.7233L29.3222 31.452H32.6377V34.7675L29.3974 38.0078C30.1889 38.3499 31.0611 38.5404 31.9781 38.5404C35.5741 38.5404 38.4894 35.6252 38.4894 32.0292C38.4894 31.4437 38.4108 30.8768 38.2659 30.3371L54.9999 13.5213L50.5685 9L33.7988 25.7778C33.2208 25.6097 32.6104 25.5179 31.9782 25.5179Z" fill="url(#paint5_linear_446_1314)"/>
<defs>
<linearGradient id="paint0_linear_446_1314" x1="32" y1="9" x2="32" y2="55" gradientUnits="userSpaceOnUse">
<stop stop-color="#EAC313"/>
<stop offset="1" stop-color="#F4F876"/>
</linearGradient>
<linearGradient id="paint1_linear_446_1314" x1="32" y1="-64.502" x2="32" y2="53.927" gradientUnits="userSpaceOnUse">
<stop stop-color="#13C5FC"/>
<stop offset="1" stop-color="#0564F3"/>
</linearGradient>
<linearGradient id="paint2_linear_446_1314" x1="31.9998" y1="20.0874" x2="31.9998" y2="43.9122" gradientUnits="userSpaceOnUse">
<stop stop-color="#EAC313"/>
<stop offset="1" stop-color="#F4F876"/>
</linearGradient>
<linearGradient id="paint3_linear_446_1314" x1="31.9998" y1="-17.9815" x2="31.9998" y2="43.3564" gradientUnits="userSpaceOnUse">
<stop stop-color="#13C5FC"/>
<stop offset="1" stop-color="#0564F3"/>
</linearGradient>
<linearGradient id="paint4_linear_446_1314" x1="40.2335" y1="9" x2="40.2335" y2="38.5404" gradientUnits="userSpaceOnUse">
<stop stop-color="#EAC313"/>
<stop offset="1" stop-color="#F4F876"/>
</linearGradient>
<linearGradient id="paint5_linear_446_1314" x1="40.2335" y1="-38.2017" x2="40.2335" y2="37.8513" gradientUnits="userSpaceOnUse">
<stop stop-color="#13C5FC"/>
<stop offset="1" stop-color="#0564F3"/>
</linearGradient>
</defs>
</svg>
