<svg width="64" height="64" viewBox="0 0 64 64" fill="none" xmlns="http://www.w3.org/2000/svg">
<rect width="64" height="64" rx="12" fill="white"/>
<rect x="0.5" y="0.5" width="63" height="63" rx="11.5" stroke="#0564F3" stroke-opacity="0.5"/>
<path d="M47.7808 39.68C53.0927 37.4985 54.3541 29.7589 51.4859 25.2725C51.3728 25.3266 51.2481 25.3514 51.123 25.3448C50.9979 25.3382 50.8765 25.3004 50.7698 25.2347C50.6631 25.1691 50.5746 25.0777 50.5123 24.969C50.45 24.8603 50.416 24.7377 50.4134 24.6125C50.3384 21.305 48.4784 18.62 46.2509 18.62C44.9759 18.62 43.7908 19.4825 42.9883 20.9975C42.8928 21.1697 42.7334 21.2976 42.5446 21.3535C42.3557 21.4094 42.1525 21.389 41.9785 21.2966C41.8046 21.2043 41.6738 21.0473 41.6144 20.8595C41.555 20.6717 41.5717 20.4681 41.6608 20.2925C42.3095 18.9777 43.4165 17.9454 44.7733 17.39C43.9558 13.655 41.2409 11 38.1359 11C35.9009 11 32.7508 11.9525 32.7508 14.06C32.7471 14.2564 32.6665 14.4436 32.5262 14.5812C32.386 14.7188 32.1973 14.7959 32.0008 14.7959C31.8043 14.7959 31.6157 14.7188 31.4755 14.5812C31.3352 14.4435 31.2546 14.2564 31.2508 14.06C31.2508 11.9525 28.1008 11 25.8658 11C22.7608 11 20.0458 13.655 19.2283 17.39C19.9756 17.4572 23.5673 20.3643 22.0259 21.3126C21.8496 21.4034 21.6446 21.4213 21.4551 21.3624C21.2657 21.3034 21.107 21.1724 21.0133 20.9975C20.2108 19.4825 19.0258 18.62 17.7508 18.62C15.5233 18.62 13.6633 21.305 13.5883 24.6125C13.5859 24.8093 13.5056 24.9971 13.3651 25.1349C13.2245 25.2726 13.0351 25.3491 12.8383 25.3475C12.7264 25.349 12.6157 25.3233 12.5158 25.2725C10.1784 28.9834 10.5478 34.8696 13.8059 38.06C14.4945 38.7561 15.3156 39.307 16.2209 39.68C16.3122 39.7167 16.3954 39.771 16.4656 39.8399C16.5359 39.9088 16.5918 39.991 16.6301 40.0816C16.6685 40.1723 16.6885 40.2696 16.6891 40.368C16.6896 40.4664 16.6707 40.564 16.6334 40.655C16.0362 41.7592 14.769 40.572 14.0234 40.1826C14.2508 45.455 17.9545 49.0063 20.916 43.9699C21.0171 43.8022 21.1798 43.6807 21.3693 43.6312C21.5588 43.5817 21.7602 43.6083 21.9304 43.7051C22.1006 43.802 22.2263 43.9616 22.2805 44.1498C22.3348 44.338 22.3134 44.5399 22.2209 44.7125C21.5988 45.8989 20.6346 46.8709 19.4534 47.5026C20.4959 50.8175 23.0084 53 25.8659 53C28.0634 53 31.2509 51.8075 31.2509 49.94C31.2547 49.7437 31.3354 49.5566 31.4756 49.4191C31.6159 49.2816 31.8045 49.2045 32.0009 49.2045C32.1973 49.2046 32.3859 49.2816 32.5261 49.4191C32.6663 49.5567 32.747 49.7437 32.7509 49.9401C32.7509 51.8075 35.9384 53.0001 38.1359 53.0001C40.9934 53.0001 43.5059 50.8176 44.5484 47.5026C43.9743 47.3594 40.6287 44.5776 42.0658 43.6926C42.151 43.6438 42.245 43.6123 42.3424 43.5998C42.4397 43.5874 42.5386 43.5942 42.6333 43.62C42.7281 43.6458 42.8168 43.6899 42.8945 43.75C42.9721 43.8101 43.0372 43.8849 43.0859 43.9701C46.0401 48.9992 49.7565 45.4595 49.9782 40.1825C49.2482 40.5781 47.9543 41.7549 47.3684 40.6552C47.331 40.5641 47.3121 40.4666 47.3126 40.3681C47.3131 40.2697 47.3332 40.1724 47.3715 40.0817C47.4099 39.991 47.4658 39.9089 47.536 39.8399C47.6063 39.771 47.6895 39.7166 47.7808 39.68ZM43.1233 22.94C43.1681 22.8528 43.2296 22.7753 43.3044 22.7118C43.3791 22.6484 43.4657 22.6004 43.559 22.5704C43.6523 22.5405 43.7507 22.5292 43.8484 22.5373C43.9461 22.5454 44.0412 22.5726 44.1283 22.6175C45.2288 23.3041 43.719 24.6955 43.341 25.43L45.9583 26.39C46.1424 26.4598 46.2916 26.5992 46.3738 26.7781C46.4559 26.957 46.4644 27.161 46.3975 27.3461C46.3305 27.5312 46.1935 27.6825 46.0159 27.7674C45.8383 27.8524 45.6344 27.864 45.4483 27.8L42.3509 26.6675C41.6654 27.2765 39.9248 29.4885 39.1034 28.3626C38.9949 28.1952 38.957 27.9918 38.9977 27.7965C39.0384 27.6013 39.1546 27.4301 39.3209 27.32C40.9449 26.2124 42.2548 24.7035 43.1233 22.94ZM33.9958 14.72C36.4184 10.6515 41.8006 12.4524 42.2758 17.1351C42.2886 17.2329 42.282 17.3322 42.2563 17.4274C42.2306 17.5225 42.1864 17.6117 42.1262 17.6898C42.0659 17.7678 41.9909 17.8332 41.9053 17.8821C41.8197 17.931 41.7253 17.9626 41.6275 17.9749C41.5297 17.9873 41.4304 17.9802 41.3353 17.954C41.2403 17.9279 41.1513 17.8832 41.0736 17.8226C40.9958 17.762 40.9308 17.6866 40.8823 17.6008C40.8338 17.5149 40.8027 17.4204 40.7908 17.3225C40.5433 15.395 39.2308 13.94 37.7233 13.94C37.2148 13.9627 36.7211 14.1189 36.292 14.3927C35.8628 14.6665 35.5133 15.0484 35.2783 15.5C35.1731 15.6662 35.0068 15.7843 34.8152 15.8291C34.6237 15.8739 34.4223 15.8418 34.2542 15.7396C34.0862 15.6373 33.9649 15.4733 33.9166 15.2826C33.8683 15.0919 33.8968 14.8899 33.9958 14.72ZM22.3708 17.975C22.2732 17.9626 22.179 17.9309 22.0936 17.8819C22.0082 17.8328 21.9334 17.7674 21.8734 17.6893C21.8135 17.6112 21.7696 17.522 21.7442 17.4269C21.7189 17.3318 21.7127 17.2326 21.7258 17.135C22.0708 14.4125 23.9833 12.44 26.2783 12.44C27.0441 12.464 27.7904 12.6869 28.4439 13.0866C29.0974 13.4864 29.6357 14.0493 30.0058 14.72C30.0578 14.8042 30.0925 14.8979 30.1081 14.9956C30.1237 15.0933 30.1198 15.1931 30.0967 15.2893C30.0735 15.3855 30.0316 15.4762 29.9733 15.5561C29.915 15.6361 29.8415 15.7037 29.7569 15.7551C29.6724 15.8065 29.5785 15.8407 29.4807 15.8557C29.3829 15.8707 29.2831 15.8662 29.1871 15.8425C29.091 15.8188 29.0006 15.7763 28.921 15.7176C28.8414 15.6588 28.7743 15.5848 28.7233 15.5C27.0082 12.6116 23.5676 14.0789 23.2109 17.3225C23.1994 17.4209 23.1685 17.5159 23.1199 17.6022C23.0713 17.6885 23.0059 17.7642 22.9277 17.8249C22.8495 17.8857 22.76 17.9302 22.6644 17.956C22.5688 17.9818 22.469 17.9882 22.3708 17.975ZM18.0433 26.39L20.6608 25.43C20.2817 24.6927 18.7736 23.3072 19.8733 22.6175C19.9604 22.5726 20.0556 22.5454 20.1533 22.5373C20.251 22.5292 20.3493 22.5405 20.4427 22.5704C20.536 22.6004 20.6225 22.6484 20.6973 22.7118C20.772 22.7753 20.8336 22.8528 20.8783 22.94C21.7469 24.7035 23.0568 26.2124 24.6808 27.32C24.8471 27.4301 24.9633 27.6013 25.004 27.7965C25.0447 27.9917 25.0067 28.1951 24.8983 28.3625C24.0842 29.4908 22.3305 27.2735 21.6508 26.6676C21.5954 26.6723 18.2435 27.9585 18.2983 27.845C18.1236 27.8419 17.9554 27.7781 17.8226 27.6645C17.6898 27.551 17.6007 27.3947 17.5706 27.2226C17.5404 27.0505 17.5711 26.8733 17.6574 26.7214C17.7437 26.5694 17.8801 26.4523 18.0433 26.39ZM16.8508 35.9C13.3055 34.8919 12.7123 29.4348 15.0359 27.035C15.1695 26.888 15.3558 26.7998 15.5542 26.7897C15.7527 26.7797 15.947 26.8487 16.0947 26.9815C16.2424 27.1143 16.3315 27.3003 16.3425 27.4986C16.3535 27.697 16.2855 27.8916 16.1534 28.04C15.6864 28.5974 15.3635 29.261 15.2131 29.9724C15.0627 30.6838 15.0894 31.4213 15.2909 32.12C15.4031 32.6235 15.6272 33.0953 15.9466 33.5004C16.266 33.9054 16.6724 34.2334 17.1359 34.46C17.2945 34.5272 17.4252 34.647 17.506 34.7992C17.5867 34.9515 17.6125 35.1269 17.579 35.2959C17.5455 35.4649 17.4549 35.6173 17.3223 35.7273C17.1896 35.8373 17.0232 35.8983 16.8508 35.9ZM20.8783 41.615C20.8346 41.7031 20.7737 41.7817 20.6993 41.8461C20.6248 41.9105 20.5384 41.9595 20.4449 41.9902C20.3514 42.0209 20.2527 42.0327 20.1546 42.025C20.0565 42.0172 19.9609 41.99 19.8733 41.945C18.7726 41.2577 20.2794 39.8656 20.6607 39.1249L18.0433 38.1724C17.8602 38.1019 17.7121 37.9625 17.6306 37.784C17.5492 37.6055 17.5409 37.4021 17.6077 37.2176C17.6744 37.0331 17.8108 36.8821 17.9876 36.797C18.1644 36.7119 18.3675 36.6995 18.5533 36.7624L21.6508 37.8874C22.336 37.275 24.093 35.0746 24.8983 36.1998C25.006 36.3674 25.0436 36.5706 25.0029 36.7656C24.9622 36.9607 24.8466 37.1319 24.6808 37.2425C23.0587 38.3491 21.7491 39.855 20.8783 41.615ZM29.5783 48.9275C27.1744 52.87 22.0809 50.69 22.0558 46.1524C22.0509 45.9535 22.1252 45.7607 22.2623 45.6166C22.3994 45.4724 22.5882 45.3886 22.7872 45.3837C22.9861 45.3787 23.1788 45.453 23.323 45.5901C23.4671 45.7273 23.5509 45.9161 23.5559 46.115C23.6009 47.975 24.7934 49.49 26.2109 49.49C26.6449 49.4696 27.0659 49.3355 27.4318 49.1012C27.7977 48.8669 28.0957 48.5406 28.2959 48.155C28.4004 47.9893 28.5657 47.8712 28.7563 47.826C28.9469 47.7808 29.1476 47.812 29.3155 47.9131C29.4833 48.0142 29.6048 48.177 29.6539 48.3667C29.7031 48.5563 29.6759 48.7576 29.5783 48.9275ZM31.1983 41.195C31.1158 41.3531 30.98 41.4769 30.8149 41.5445C30.6499 41.6121 30.4663 41.6191 30.2965 41.5643C30.1268 41.5095 29.9819 41.3964 29.8876 41.2451C29.7932 41.0938 29.7554 40.9139 29.7808 40.7374L31.1159 32.75H27.5684C27.4498 32.7483 27.3333 32.7188 27.2282 32.664C27.1231 32.6091 27.0323 32.5305 26.9631 32.4342C26.8938 32.338 26.8481 32.2269 26.8294 32.1098C26.8108 31.9928 26.8199 31.873 26.8559 31.76L29.8109 22.9025C29.8612 22.7535 29.957 22.6241 30.0849 22.5326C30.2128 22.4411 30.3661 22.3921 30.5234 22.3925H34.9559C35.0696 22.3926 35.1818 22.4186 35.2841 22.4685C35.3863 22.5184 35.4758 22.5909 35.5459 22.6805C35.616 22.7701 35.6648 22.8744 35.6886 22.9857C35.7124 23.0969 35.7106 23.2121 35.6834 23.3225L34.4384 28.295H36.4334C36.5616 28.2954 36.6875 28.3287 36.7991 28.3918C36.9108 28.4548 37.0043 28.5454 37.0709 28.655C37.1382 28.7634 37.1763 28.8873 37.1816 29.0148C37.1868 29.1423 37.159 29.2689 37.1009 29.3825L31.1983 41.195ZM41.9458 46.1525C41.8858 48.86 40.0558 50.99 37.7908 50.99C37.0988 50.9683 36.4242 50.7667 35.8338 50.405C35.2433 50.0434 34.7572 49.5341 34.4233 48.9275C34.3716 48.8436 34.3372 48.7502 34.322 48.6527C34.3069 48.5553 34.3113 48.4559 34.335 48.3602C34.3588 48.2645 34.4014 48.1745 34.4603 48.0955C34.5193 48.0165 34.5934 47.95 34.6783 47.9C34.8488 47.7991 35.0521 47.7692 35.2443 47.817C35.4366 47.8647 35.6024 47.9861 35.7058 48.155C35.906 48.5406 36.204 48.8669 36.5699 49.1012C36.9358 49.3355 37.3568 49.4696 37.7908 49.49C39.2083 49.49 40.4008 47.975 40.4458 46.115C40.4537 45.9181 40.5387 45.7322 40.6825 45.5975C40.8263 45.4627 41.0173 45.39 41.2143 45.3949C41.4113 45.3998 41.5985 45.482 41.7353 45.6238C41.8722 45.7655 41.9478 45.9555 41.9458 46.1525ZM45.9583 38.1725L43.3408 39.125C43.7883 39.8777 45.4792 41.7173 43.7908 42.0275C43.652 42.0288 43.5157 41.9907 43.3975 41.9177C43.2794 41.8447 43.1844 41.7398 43.1233 41.615C42.2525 39.8551 40.9429 38.3492 39.3208 37.2425C39.1552 37.132 39.0395 36.9608 38.9988 36.7658C38.9581 36.5708 38.9957 36.3676 39.1033 36.2C39.9221 35.0774 41.6679 37.2759 42.3509 37.8874L45.4484 36.7625C45.6342 36.6999 45.8371 36.7125 46.0136 36.7977C46.1902 36.8828 46.3264 37.0337 46.3931 37.2181C46.4598 37.4024 46.4516 37.6055 46.3704 37.7839C46.2891 37.9623 46.1412 38.1018 45.9583 38.1725ZM46.4534 35.435C46.1011 34.4026 47.5533 34.3752 47.9833 33.59C48.5813 32.7817 48.8927 31.797 48.8682 30.7918C48.8438 29.7866 48.4849 28.8183 47.8483 28.04C47.7171 27.8915 47.6499 27.6972 47.6612 27.4994C47.6726 27.3015 47.7616 27.1162 47.909 26.9837C48.0563 26.8512 48.25 26.7822 48.4479 26.7918C48.6459 26.8015 48.832 26.8888 48.9658 27.035C49.5947 27.782 50.0325 28.6706 50.2415 29.6244C50.4506 30.5782 50.4246 31.5685 50.1658 32.51C49.9935 33.2369 49.6583 33.9151 49.1853 34.4933C48.7123 35.0715 48.1141 35.5346 47.4358 35.8475C47.2506 35.9206 47.0442 35.9184 46.8606 35.8413C46.677 35.7643 46.5308 35.6184 46.4534 35.435ZM33.4783 29.795H35.2183L32.0833 36.065L32.7433 32.12C32.7586 32.0123 32.7511 31.9026 32.7214 31.798C32.6917 31.6934 32.6404 31.5961 32.5708 31.5125C32.5001 31.4306 32.4126 31.3648 32.3143 31.3195C32.216 31.2742 32.1091 31.2505 32.0008 31.25H28.6108L31.0633 23.8925H33.9958L32.7508 28.865C32.7236 28.9754 32.7217 29.0906 32.7455 29.2019C32.7693 29.3131 32.8181 29.4175 32.8882 29.5071C32.9583 29.5967 33.0479 29.6692 33.1501 29.719C33.2523 29.7689 33.3646 29.7949 33.4783 29.795Z" fill="url(#paint0_linear_446_1295)"/>
<path d="M47.7808 39.68C53.0927 37.4985 54.3541 29.7589 51.4859 25.2725C51.3728 25.3266 51.2481 25.3514 51.123 25.3448C50.9979 25.3382 50.8765 25.3004 50.7698 25.2347C50.6631 25.1691 50.5746 25.0777 50.5123 24.969C50.45 24.8603 50.416 24.7377 50.4134 24.6125C50.3384 21.305 48.4784 18.62 46.2509 18.62C44.9759 18.62 43.7908 19.4825 42.9883 20.9975C42.8928 21.1697 42.7334 21.2976 42.5446 21.3535C42.3557 21.4094 42.1525 21.389 41.9785 21.2966C41.8046 21.2043 41.6738 21.0473 41.6144 20.8595C41.555 20.6717 41.5717 20.4681 41.6608 20.2925C42.3095 18.9777 43.4165 17.9454 44.7733 17.39C43.9558 13.655 41.2409 11 38.1359 11C35.9009 11 32.7508 11.9525 32.7508 14.06C32.7471 14.2564 32.6665 14.4436 32.5262 14.5812C32.386 14.7188 32.1973 14.7959 32.0008 14.7959C31.8043 14.7959 31.6157 14.7188 31.4755 14.5812C31.3352 14.4435 31.2546 14.2564 31.2508 14.06C31.2508 11.9525 28.1008 11 25.8658 11C22.7608 11 20.0458 13.655 19.2283 17.39C19.9756 17.4572 23.5673 20.3643 22.0259 21.3126C21.8496 21.4034 21.6446 21.4213 21.4551 21.3624C21.2657 21.3034 21.107 21.1724 21.0133 20.9975C20.2108 19.4825 19.0258 18.62 17.7508 18.62C15.5233 18.62 13.6633 21.305 13.5883 24.6125C13.5859 24.8093 13.5056 24.9971 13.3651 25.1349C13.2245 25.2726 13.0351 25.3491 12.8383 25.3475C12.7264 25.349 12.6157 25.3233 12.5158 25.2725C10.1784 28.9834 10.5478 34.8696 13.8059 38.06C14.4945 38.7561 15.3156 39.307 16.2209 39.68C16.3122 39.7167 16.3954 39.771 16.4656 39.8399C16.5359 39.9088 16.5918 39.991 16.6301 40.0816C16.6685 40.1723 16.6885 40.2696 16.6891 40.368C16.6896 40.4664 16.6707 40.564 16.6334 40.655C16.0362 41.7592 14.769 40.572 14.0234 40.1826C14.2508 45.455 17.9545 49.0063 20.916 43.9699C21.0171 43.8022 21.1798 43.6807 21.3693 43.6312C21.5588 43.5817 21.7602 43.6083 21.9304 43.7051C22.1006 43.802 22.2263 43.9616 22.2805 44.1498C22.3348 44.338 22.3134 44.5399 22.2209 44.7125C21.5988 45.8989 20.6346 46.8709 19.4534 47.5026C20.4959 50.8175 23.0084 53 25.8659 53C28.0634 53 31.2509 51.8075 31.2509 49.94C31.2547 49.7437 31.3354 49.5566 31.4756 49.4191C31.6159 49.2816 31.8045 49.2045 32.0009 49.2045C32.1973 49.2046 32.3859 49.2816 32.5261 49.4191C32.6663 49.5567 32.747 49.7437 32.7509 49.9401C32.7509 51.8075 35.9384 53.0001 38.1359 53.0001C40.9934 53.0001 43.5059 50.8176 44.5484 47.5026C43.9743 47.3594 40.6287 44.5776 42.0658 43.6926C42.151 43.6438 42.245 43.6123 42.3424 43.5998C42.4397 43.5874 42.5386 43.5942 42.6333 43.62C42.7281 43.6458 42.8168 43.6899 42.8945 43.75C42.9721 43.8101 43.0372 43.8849 43.0859 43.9701C46.0401 48.9992 49.7565 45.4595 49.9782 40.1825C49.2482 40.5781 47.9543 41.7549 47.3684 40.6552C47.331 40.5641 47.3121 40.4666 47.3126 40.3681C47.3131 40.2697 47.3332 40.1724 47.3715 40.0817C47.4099 39.991 47.4658 39.9089 47.536 39.8399C47.6063 39.771 47.6895 39.7166 47.7808 39.68ZM43.1233 22.94C43.1681 22.8528 43.2296 22.7753 43.3044 22.7118C43.3791 22.6484 43.4657 22.6004 43.559 22.5704C43.6523 22.5405 43.7507 22.5292 43.8484 22.5373C43.9461 22.5454 44.0412 22.5726 44.1283 22.6175C45.2288 23.3041 43.719 24.6955 43.341 25.43L45.9583 26.39C46.1424 26.4598 46.2916 26.5992 46.3738 26.7781C46.4559 26.957 46.4644 27.161 46.3975 27.3461C46.3305 27.5312 46.1935 27.6825 46.0159 27.7674C45.8383 27.8524 45.6344 27.864 45.4483 27.8L42.3509 26.6675C41.6654 27.2765 39.9248 29.4885 39.1034 28.3626C38.9949 28.1952 38.957 27.9918 38.9977 27.7965C39.0384 27.6013 39.1546 27.4301 39.3209 27.32C40.9449 26.2124 42.2548 24.7035 43.1233 22.94ZM33.9958 14.72C36.4184 10.6515 41.8006 12.4524 42.2758 17.1351C42.2886 17.2329 42.282 17.3322 42.2563 17.4274C42.2306 17.5225 42.1864 17.6117 42.1262 17.6898C42.0659 17.7678 41.9909 17.8332 41.9053 17.8821C41.8197 17.931 41.7253 17.9626 41.6275 17.9749C41.5297 17.9873 41.4304 17.9802 41.3353 17.954C41.2403 17.9279 41.1513 17.8832 41.0736 17.8226C40.9958 17.762 40.9308 17.6866 40.8823 17.6008C40.8338 17.5149 40.8027 17.4204 40.7908 17.3225C40.5433 15.395 39.2308 13.94 37.7233 13.94C37.2148 13.9627 36.7211 14.1189 36.292 14.3927C35.8628 14.6665 35.5133 15.0484 35.2783 15.5C35.1731 15.6662 35.0068 15.7843 34.8152 15.8291C34.6237 15.8739 34.4223 15.8418 34.2542 15.7396C34.0862 15.6373 33.9649 15.4733 33.9166 15.2826C33.8683 15.0919 33.8968 14.8899 33.9958 14.72ZM22.3708 17.975C22.2732 17.9626 22.179 17.9309 22.0936 17.8819C22.0082 17.8328 21.9334 17.7674 21.8734 17.6893C21.8135 17.6112 21.7696 17.522 21.7442 17.4269C21.7189 17.3318 21.7127 17.2326 21.7258 17.135C22.0708 14.4125 23.9833 12.44 26.2783 12.44C27.0441 12.464 27.7904 12.6869 28.4439 13.0866C29.0974 13.4864 29.6357 14.0493 30.0058 14.72C30.0578 14.8042 30.0925 14.8979 30.1081 14.9956C30.1237 15.0933 30.1198 15.1931 30.0967 15.2893C30.0735 15.3855 30.0316 15.4762 29.9733 15.5561C29.915 15.6361 29.8415 15.7037 29.7569 15.7551C29.6724 15.8065 29.5785 15.8407 29.4807 15.8557C29.3829 15.8707 29.2831 15.8662 29.1871 15.8425C29.091 15.8188 29.0006 15.7763 28.921 15.7176C28.8414 15.6588 28.7743 15.5848 28.7233 15.5C27.0082 12.6116 23.5676 14.0789 23.2109 17.3225C23.1994 17.4209 23.1685 17.5159 23.1199 17.6022C23.0713 17.6885 23.0059 17.7642 22.9277 17.8249C22.8495 17.8857 22.76 17.9302 22.6644 17.956C22.5688 17.9818 22.469 17.9882 22.3708 17.975ZM18.0433 26.39L20.6608 25.43C20.2817 24.6927 18.7736 23.3072 19.8733 22.6175C19.9604 22.5726 20.0556 22.5454 20.1533 22.5373C20.251 22.5292 20.3493 22.5405 20.4427 22.5704C20.536 22.6004 20.6225 22.6484 20.6973 22.7118C20.772 22.7753 20.8336 22.8528 20.8783 22.94C21.7469 24.7035 23.0568 26.2124 24.6808 27.32C24.8471 27.4301 24.9633 27.6013 25.004 27.7965C25.0447 27.9917 25.0067 28.1951 24.8983 28.3625C24.0842 29.4908 22.3305 27.2735 21.6508 26.6676C21.5954 26.6723 18.2435 27.9585 18.2983 27.845C18.1236 27.8419 17.9554 27.7781 17.8226 27.6645C17.6898 27.551 17.6007 27.3947 17.5706 27.2226C17.5404 27.0505 17.5711 26.8733 17.6574 26.7214C17.7437 26.5694 17.8801 26.4523 18.0433 26.39ZM16.8508 35.9C13.3055 34.8919 12.7123 29.4348 15.0359 27.035C15.1695 26.888 15.3558 26.7998 15.5542 26.7897C15.7527 26.7797 15.947 26.8487 16.0947 26.9815C16.2424 27.1143 16.3315 27.3003 16.3425 27.4986C16.3535 27.697 16.2855 27.8916 16.1534 28.04C15.6864 28.5974 15.3635 29.261 15.2131 29.9724C15.0627 30.6838 15.0894 31.4213 15.2909 32.12C15.4031 32.6235 15.6272 33.0953 15.9466 33.5004C16.266 33.9054 16.6724 34.2334 17.1359 34.46C17.2945 34.5272 17.4252 34.647 17.506 34.7992C17.5867 34.9515 17.6125 35.1269 17.579 35.2959C17.5455 35.4649 17.4549 35.6173 17.3223 35.7273C17.1896 35.8373 17.0232 35.8983 16.8508 35.9ZM20.8783 41.615C20.8346 41.7031 20.7737 41.7817 20.6993 41.8461C20.6248 41.9105 20.5384 41.9595 20.4449 41.9902C20.3514 42.0209 20.2527 42.0327 20.1546 42.025C20.0565 42.0172 19.9609 41.99 19.8733 41.945C18.7726 41.2577 20.2794 39.8656 20.6607 39.1249L18.0433 38.1724C17.8602 38.1019 17.7121 37.9625 17.6306 37.784C17.5492 37.6055 17.5409 37.4021 17.6077 37.2176C17.6744 37.0331 17.8108 36.8821 17.9876 36.797C18.1644 36.7119 18.3675 36.6995 18.5533 36.7624L21.6508 37.8874C22.336 37.275 24.093 35.0746 24.8983 36.1998C25.006 36.3674 25.0436 36.5706 25.0029 36.7656C24.9622 36.9607 24.8466 37.1319 24.6808 37.2425C23.0587 38.3491 21.7491 39.855 20.8783 41.615ZM29.5783 48.9275C27.1744 52.87 22.0809 50.69 22.0558 46.1524C22.0509 45.9535 22.1252 45.7607 22.2623 45.6166C22.3994 45.4724 22.5882 45.3886 22.7872 45.3837C22.9861 45.3787 23.1788 45.453 23.323 45.5901C23.4671 45.7273 23.5509 45.9161 23.5559 46.115C23.6009 47.975 24.7934 49.49 26.2109 49.49C26.6449 49.4696 27.0659 49.3355 27.4318 49.1012C27.7977 48.8669 28.0957 48.5406 28.2959 48.155C28.4004 47.9893 28.5657 47.8712 28.7563 47.826C28.9469 47.7808 29.1476 47.812 29.3155 47.9131C29.4833 48.0142 29.6048 48.177 29.6539 48.3667C29.7031 48.5563 29.6759 48.7576 29.5783 48.9275ZM31.1983 41.195C31.1158 41.3531 30.98 41.4769 30.8149 41.5445C30.6499 41.6121 30.4663 41.6191 30.2965 41.5643C30.1268 41.5095 29.9819 41.3964 29.8876 41.2451C29.7932 41.0938 29.7554 40.9139 29.7808 40.7374L31.1159 32.75H27.5684C27.4498 32.7483 27.3333 32.7188 27.2282 32.664C27.1231 32.6091 27.0323 32.5305 26.9631 32.4342C26.8938 32.338 26.8481 32.2269 26.8294 32.1098C26.8108 31.9928 26.8199 31.873 26.8559 31.76L29.8109 22.9025C29.8612 22.7535 29.957 22.6241 30.0849 22.5326C30.2128 22.4411 30.3661 22.3921 30.5234 22.3925H34.9559C35.0696 22.3926 35.1818 22.4186 35.2841 22.4685C35.3863 22.5184 35.4758 22.5909 35.5459 22.6805C35.616 22.7701 35.6648 22.8744 35.6886 22.9857C35.7124 23.0969 35.7106 23.2121 35.6834 23.3225L34.4384 28.295H36.4334C36.5616 28.2954 36.6875 28.3287 36.7991 28.3918C36.9108 28.4548 37.0043 28.5454 37.0709 28.655C37.1382 28.7634 37.1763 28.8873 37.1816 29.0148C37.1868 29.1423 37.159 29.2689 37.1009 29.3825L31.1983 41.195ZM41.9458 46.1525C41.8858 48.86 40.0558 50.99 37.7908 50.99C37.0988 50.9683 36.4242 50.7667 35.8338 50.405C35.2433 50.0434 34.7572 49.5341 34.4233 48.9275C34.3716 48.8436 34.3372 48.7502 34.322 48.6527C34.3069 48.5553 34.3113 48.4559 34.335 48.3602C34.3588 48.2645 34.4014 48.1745 34.4603 48.0955C34.5193 48.0165 34.5934 47.95 34.6783 47.9C34.8488 47.7991 35.0521 47.7692 35.2443 47.817C35.4366 47.8647 35.6024 47.9861 35.7058 48.155C35.906 48.5406 36.204 48.8669 36.5699 49.1012C36.9358 49.3355 37.3568 49.4696 37.7908 49.49C39.2083 49.49 40.4008 47.975 40.4458 46.115C40.4537 45.9181 40.5387 45.7322 40.6825 45.5975C40.8263 45.4627 41.0173 45.39 41.2143 45.3949C41.4113 45.3998 41.5985 45.482 41.7353 45.6238C41.8722 45.7655 41.9478 45.9555 41.9458 46.1525ZM45.9583 38.1725L43.3408 39.125C43.7883 39.8777 45.4792 41.7173 43.7908 42.0275C43.652 42.0288 43.5157 41.9907 43.3975 41.9177C43.2794 41.8447 43.1844 41.7398 43.1233 41.615C42.2525 39.8551 40.9429 38.3492 39.3208 37.2425C39.1552 37.132 39.0395 36.9608 38.9988 36.7658C38.9581 36.5708 38.9957 36.3676 39.1033 36.2C39.9221 35.0774 41.6679 37.2759 42.3509 37.8874L45.4484 36.7625C45.6342 36.6999 45.8371 36.7125 46.0136 36.7977C46.1902 36.8828 46.3264 37.0337 46.3931 37.2181C46.4598 37.4024 46.4516 37.6055 46.3704 37.7839C46.2891 37.9623 46.1412 38.1018 45.9583 38.1725ZM46.4534 35.435C46.1011 34.4026 47.5533 34.3752 47.9833 33.59C48.5813 32.7817 48.8927 31.797 48.8682 30.7918C48.8438 29.7866 48.4849 28.8183 47.8483 28.04C47.7171 27.8915 47.6499 27.6972 47.6612 27.4994C47.6726 27.3015 47.7616 27.1162 47.909 26.9837C48.0563 26.8512 48.25 26.7822 48.4479 26.7918C48.6459 26.8015 48.832 26.8888 48.9658 27.035C49.5947 27.782 50.0325 28.6706 50.2415 29.6244C50.4506 30.5782 50.4246 31.5685 50.1658 32.51C49.9935 33.2369 49.6583 33.9151 49.1853 34.4933C48.7123 35.0715 48.1141 35.5346 47.4358 35.8475C47.2506 35.9206 47.0442 35.9184 46.8606 35.8413C46.677 35.7643 46.5308 35.6184 46.4534 35.435ZM33.4783 29.795H35.2183L32.0833 36.065L32.7433 32.12C32.7586 32.0123 32.7511 31.9026 32.7214 31.798C32.6917 31.6934 32.6404 31.5961 32.5708 31.5125C32.5001 31.4306 32.4126 31.3648 32.3143 31.3195C32.216 31.2742 32.1091 31.2505 32.0008 31.25H28.6108L31.0633 23.8925H33.9958L32.7508 28.865C32.7236 28.9754 32.7217 29.0906 32.7455 29.2019C32.7693 29.3131 32.8181 29.4175 32.8882 29.5071C32.9583 29.5967 33.0479 29.6692 33.1501 29.719C33.2523 29.7689 33.3646 29.7949 33.4783 29.795Z" fill="url(#paint1_linear_446_1295)"/>
<defs>
<linearGradient id="paint0_linear_446_1295" x1="11.0164" y1="32" x2="52.9834" y2="32" gradientUnits="userSpaceOnUse">
<stop stop-color="#9CFFAC"/>
<stop offset="1" stop-color="#00B59C"/>
</linearGradient>
<linearGradient id="paint1_linear_446_1295" x1="31.9998" y1="-56.1107" x2="31.9998" y2="52.0204" gradientUnits="userSpaceOnUse">
<stop stop-color="#13C5FC"/>
<stop offset="1" stop-color="#0564F3"/>
</linearGradient>
</defs>
</svg>
