<svg width="486" height="123" viewBox="0 0 486 123" fill="none" xmlns="http://www.w3.org/2000/svg">
<rect width="120.77" height="122.199" rx="41.1455" fill="url(#paint0_linear_3798_4602)"/>
<path d="M87.4283 33.0258V89.6746C87.4283 91.7402 86.3085 93.6248 84.5065 94.5924C83.6944 95.0274 82.8088 95.2436 81.9258 95.2436C80.8471 95.2436 79.7723 94.9219 78.8431 94.285L60.3105 81.5932L41.7767 94.285C40.0866 95.4428 37.9165 95.5601 36.1145 94.5923C34.3112 93.6247 33.1914 91.7401 33.1914 89.6745V33.0258C33.1914 29.4807 36.0412 26.5959 39.5449 26.5959H81.0752C84.5786 26.5958 87.4283 29.4807 87.4283 33.0258Z" fill="white"/>
<path d="M75.4741 54.1182C71.8037 62.363 62.8785 66.8191 60.3161 67.9583C57.7511 66.8191 48.8285 62.3604 45.1606 54.1182C43.8946 51.2703 43.6755 47.6081 45.2726 44.9379C47.3128 41.5281 51.8901 39.938 55.5682 41.3606C57.7206 42.193 59.4221 43.9972 60.3161 46.1363C61.2127 43.9972 62.9142 42.1931 65.064 41.3606C68.7446 39.938 73.3218 41.5281 75.3621 44.9379C76.9592 47.6081 76.7401 51.2703 75.4741 54.1182Z" fill="url(#paint1_linear_3798_4602)"/>
<path d="M153.269 88.189V35.8362H173.808C177.877 35.8362 181.301 36.5065 184.077 37.847C186.902 39.1876 189.033 41.1026 190.469 43.5922C191.953 46.0818 192.695 49.0501 192.695 52.4972C192.695 55.9443 191.905 58.9365 190.325 61.474C188.745 63.9636 186.543 65.8786 183.718 67.2191C180.894 68.5118 177.566 69.1581 173.736 69.1581H160.235V62.9103H173.162C176.992 62.9103 179.864 61.9767 181.779 60.1095C183.742 58.1945 184.724 55.7288 184.724 52.7126C184.724 49.3613 183.694 46.8478 181.636 45.1721C179.577 43.4486 176.752 42.5868 173.162 42.5868H159.804L161.097 41.4378V88.189H153.269ZM216.407 88.8353C213.63 88.8353 211.093 88.3805 208.795 87.4708C206.544 86.5612 204.605 85.2446 202.978 83.521C201.35 81.7975 200.081 79.7388 199.171 77.345C198.262 74.9512 197.807 72.2701 197.807 69.3018C197.807 65.3759 198.549 61.9527 200.033 59.0323C201.565 56.064 203.72 53.7659 206.496 52.1381C209.321 50.4624 212.625 49.6246 216.407 49.6246C219.184 49.6246 221.697 50.0794 223.947 50.9891C226.245 51.8509 228.208 53.1435 229.836 54.8671C231.464 56.5906 232.709 58.6732 233.571 61.1149C234.48 63.5087 234.935 66.2137 234.935 69.2299C234.935 73.1079 234.193 76.5311 232.709 79.4994C231.225 82.4199 229.094 84.7179 226.317 86.3936C223.54 88.0214 220.237 88.8353 216.407 88.8353ZM216.407 82.6593C218.609 82.6593 220.524 82.1566 222.152 81.1511C223.828 80.0979 225.12 78.5658 226.03 76.555C226.94 74.5442 227.394 72.1025 227.394 69.2299C227.394 67.0755 227.131 65.1844 226.605 63.5566C226.126 61.8809 225.408 60.4686 224.45 59.3196C223.493 58.1226 222.344 57.2369 221.003 56.6624C219.662 56.04 218.13 55.7288 216.407 55.7288C214.205 55.7288 212.266 56.2555 210.59 57.3087C208.962 58.362 207.669 59.8941 206.712 61.9049C205.802 63.8678 205.347 66.3334 205.347 69.3018C205.347 71.4083 205.587 73.2994 206.066 74.9751C206.592 76.6029 207.334 77.9913 208.292 79.1403C209.297 80.2894 210.47 81.1751 211.811 81.7975C213.199 82.372 214.731 82.6593 216.407 82.6593ZM256.453 88.9071C254.059 88.9071 251.881 88.6199 249.918 88.0453C248.003 87.4708 246.351 86.6569 244.963 85.6036C243.574 84.5504 242.497 83.2816 241.731 81.7975C241.013 80.2654 240.63 78.6137 240.582 76.8423H247.907C248.003 78.3264 248.41 79.5712 249.128 80.5766C249.894 81.582 250.923 82.3241 252.216 82.8029C253.556 83.2816 255.041 83.521 256.668 83.521C259.254 83.521 261.217 83.0423 262.557 82.0847C263.946 81.0793 264.64 79.6909 264.64 77.9195C264.64 76.579 264.329 75.5496 263.706 74.8315C263.132 74.0655 262.198 73.467 260.905 73.0361C259.613 72.6052 257.913 72.2462 255.807 71.9589C252.647 71.4801 250.014 70.8577 247.907 70.0917C245.8 69.2778 244.221 68.1527 243.167 66.7164C242.114 65.2323 241.587 63.3172 241.587 60.9713C241.587 58.6732 242.21 56.6864 243.455 55.0107C244.699 53.2871 246.447 51.9466 248.697 50.9891C250.947 49.9837 253.58 49.481 256.597 49.481C259.565 49.481 262.126 49.9597 264.281 50.9173C266.483 51.8748 268.207 53.2153 269.451 54.9389C270.696 56.6624 271.366 58.7211 271.462 61.1149H264.209C264.113 59.6307 263.73 58.4338 263.06 57.5242C262.437 56.6145 261.552 55.9682 260.403 55.5852C259.302 55.1543 257.985 54.9389 256.453 54.9389C254.107 54.9389 252.264 55.4176 250.923 56.3752C249.631 57.3327 248.984 58.6253 248.984 60.2531C248.984 61.4979 249.319 62.5033 249.99 63.2693C250.66 63.9875 251.689 64.562 253.078 64.9929C254.514 65.3759 256.333 65.735 258.536 66.0701C261.456 66.4531 263.946 67.0516 266.004 67.8655C268.063 68.6794 269.595 69.8284 270.6 71.3126C271.654 72.7967 272.18 74.7836 272.18 77.2732C272.18 79.7627 271.534 81.8693 270.241 83.5928C268.949 85.3164 267.105 86.633 264.712 87.5426C262.366 88.4523 259.613 88.9071 256.453 88.9071ZM292.19 88.189C289.317 88.189 287.163 87.5187 285.726 86.1782C284.29 84.7897 283.572 82.5635 283.572 79.4994V56.2315H276.39V50.1991H283.572V39.2115L290.897 38.3497V50.1991H299.371V56.2315H290.969V78.2786C290.969 79.6191 291.28 80.5766 291.902 81.1511C292.573 81.7257 293.506 82.0129 294.703 82.0129H299.443V88.189H292.19ZM325.729 88.8353C320.989 88.8353 317.015 88.1172 313.807 86.6809C310.6 85.2446 308.182 83.2338 306.554 80.6484C304.926 78.0631 304.089 75.0948 304.041 71.7435H315.459C315.507 73.467 315.89 74.9751 316.608 76.2678C317.374 77.5125 318.523 78.494 320.055 79.2122C321.635 79.9303 323.67 80.2894 326.16 80.2894C328.075 80.2894 329.75 80.0739 331.187 79.643C332.623 79.1643 333.724 78.4461 334.49 77.4886C335.256 76.4832 335.639 75.2145 335.639 73.6824C335.639 72.5334 335.448 71.5759 335.065 70.8099C334.682 70.0438 334.011 69.3975 333.054 68.8709C332.144 68.3442 330.899 67.9134 329.319 67.5782C327.739 67.1952 325.777 66.7883 323.431 66.3574C320.414 65.9265 317.757 65.3041 315.459 64.4902C313.209 63.6763 311.318 62.6709 309.786 61.474C308.254 60.2771 307.105 58.8408 306.339 57.1651C305.573 55.4416 305.19 53.4308 305.19 51.1327C305.19 47.8292 306.004 45.0045 307.631 42.6586C309.307 40.2648 311.677 38.4215 314.741 37.1289C317.805 35.8362 321.444 35.1899 325.657 35.1899C329.774 35.1899 333.317 35.8362 336.285 37.1289C339.254 38.4215 341.552 40.2408 343.18 42.5868C344.855 44.9327 345.693 47.6617 345.693 50.7736H334.418C334.37 49.098 333.915 47.7335 333.054 46.6802C332.24 45.6269 331.163 44.8609 329.822 44.3821C328.482 43.9034 326.973 43.664 325.298 43.664C323.526 43.664 321.994 43.9034 320.702 44.3821C319.457 44.813 318.499 45.4833 317.829 46.393C317.159 47.2547 316.824 48.3559 316.824 49.6964C316.824 51.0848 317.183 52.2099 317.901 53.0717C318.619 53.8856 319.888 54.5559 321.707 55.0825C323.574 55.5613 326.136 56.0879 329.391 56.6624C331.641 56.9976 333.82 57.4524 335.926 58.0269C338.033 58.6014 339.948 59.4632 341.671 60.6122C343.395 61.7134 344.759 63.2693 345.765 65.2802C346.77 67.2431 347.273 69.8045 347.273 72.9643C347.273 76.0763 346.459 78.8531 344.831 81.2948C343.251 83.6886 340.858 85.5558 337.65 86.8963C334.49 88.189 330.516 88.8353 325.729 88.8353ZM354.309 88.189V49.6964H364.434L364.865 56.6624H365.296C366.349 54.0771 367.977 52.162 370.18 50.9173C372.382 49.6246 374.847 48.9783 377.576 48.9783C379.491 48.9783 381.263 49.2895 382.891 49.9119C384.566 50.4864 386.003 51.396 387.2 52.6408C388.444 53.8856 389.402 55.5373 390.072 57.596C390.79 59.6068 391.149 62.0485 391.149 64.9211V88.189H380.593V67.2191C380.593 65.0647 380.329 63.2693 379.803 61.8331C379.324 60.3968 378.558 59.3435 377.505 58.6732C376.451 57.9551 375.063 57.596 373.339 57.596C371.52 57.596 369.988 58.0269 368.743 58.8887C367.498 59.7504 366.541 60.8755 365.871 62.2639C365.2 63.6524 364.865 65.1605 364.865 66.7883V88.189H354.309ZM413.681 88.8353C411.335 88.8353 409.204 88.4044 407.289 87.5426C405.374 86.633 403.722 85.3403 402.334 83.6647C400.946 81.9411 399.868 79.8345 399.102 77.345C398.384 74.8554 398.025 72.0547 398.025 68.9427C398.025 64.7296 398.671 61.1389 399.964 58.1705C401.305 55.1543 403.148 52.8802 405.494 51.3481C407.84 49.7682 410.569 48.9783 413.681 48.9783C415.644 48.9783 417.415 49.2895 418.995 49.9119C420.575 50.4864 421.939 51.3242 423.088 52.4254C424.237 53.4786 425.075 54.7234 425.602 56.1597H426.176L426.607 49.6964H436.589V88.189H426.607L426.176 81.6538H425.602C424.836 83.8083 423.376 85.5558 421.221 86.8963C419.115 88.189 416.601 88.8353 413.681 88.8353ZM417.487 80.2894C419.402 80.2894 420.982 79.8824 422.227 79.0685C423.519 78.2546 424.477 77.1295 425.099 75.6932C425.721 74.257 426.033 72.6292 426.033 70.8099V67.0037C426.033 65.1365 425.698 63.5087 425.027 62.1203C424.405 60.684 423.447 59.5589 422.155 58.745C420.91 57.9311 419.45 57.5242 417.774 57.5242C415.763 57.5242 414.088 57.979 412.747 58.8887C411.454 59.7983 410.473 61.1149 409.803 62.8385C409.132 64.5141 408.797 66.5489 408.797 68.9427C408.797 71.2408 409.108 73.2516 409.731 74.9751C410.353 76.6987 411.311 78.0153 412.603 78.9249C413.896 79.8345 415.524 80.2894 417.487 80.2894ZM461.491 100.9C458.091 100.9 455.171 100.397 452.729 99.392C450.287 98.4345 448.372 97.07 446.984 95.2986C445.596 93.575 444.806 91.5403 444.614 89.1944H454.74C454.931 90.0083 455.314 90.7264 455.889 91.3488C456.511 92.0191 457.301 92.5218 458.259 92.8569C459.264 93.2399 460.413 93.4314 461.706 93.4314C463.86 93.4314 465.56 93.1202 466.805 92.4978C468.05 91.9233 468.959 91.0376 469.534 89.8407C470.108 88.6917 470.396 87.2793 470.396 85.6036V79.8585H469.893C469.127 81.7735 467.714 83.3535 465.656 84.5982C463.645 85.843 461.275 86.4654 458.546 86.4654C456.296 86.4654 454.261 86.0345 452.442 85.1728C450.623 84.311 449.043 83.0901 447.702 81.5102C446.409 79.8824 445.404 77.9195 444.686 75.6214C443.968 73.3234 443.609 70.6902 443.609 67.7218C443.609 63.796 444.231 60.4446 445.476 57.6678C446.721 54.8431 448.468 52.6887 450.718 51.2045C452.969 49.7204 455.578 48.9783 458.546 48.9783C461.179 48.9783 463.525 49.5528 465.584 50.7018C467.643 51.8508 469.079 53.4547 469.893 55.5134H470.467L470.755 49.6964H480.952V83.5928C480.952 87.806 480.138 91.1812 478.511 93.7187C476.931 96.2561 474.68 98.0754 471.76 99.1766C468.84 100.326 465.416 100.9 461.491 100.9ZM462.496 77.9195C464.219 77.9195 465.656 77.5365 466.805 76.7705C467.954 76.0044 468.816 74.999 469.39 73.7543C470.013 72.4616 470.324 71.0253 470.324 69.4454V65.9983C470.324 64.2748 470.013 62.7906 469.39 61.5458C468.768 60.2531 467.882 59.2477 466.733 58.5296C465.632 57.8114 464.291 57.4524 462.711 57.4524C460.844 57.4524 459.288 57.8833 458.043 58.745C456.847 59.6068 455.937 60.8037 455.314 62.3358C454.692 63.8678 454.381 65.6632 454.381 67.7218C454.381 69.7805 454.668 71.5759 455.243 73.1079C455.817 74.5921 456.703 75.7651 457.9 76.6268C459.097 77.4886 460.629 77.9195 462.496 77.9195Z" fill="#0F0F0F"/>
<defs>
<linearGradient id="paint0_linear_3798_4602" x1="60.3849" y1="0" x2="60.3849" y2="122.199" gradientUnits="userSpaceOnUse">
<stop stop-color="#184BC0"/>
<stop offset="1" stop-color="#0B235A"/>
</linearGradient>
<linearGradient id="paint1_linear_3798_4602" x1="60.3174" y1="40.8398" x2="60.3174" y2="67.9583" gradientUnits="userSpaceOnUse">
<stop stop-color="#184BC0"/>
<stop offset="1" stop-color="#0B235A"/>
</linearGradient>
</defs>
</svg>
