<svg width="121" height="123" viewBox="0 0 120.77 122.199" fill="none" xmlns="http://www.w3.org/2000/svg">
<rect width="120.77" height="122.199" rx="41.1455" fill="url(#paint0_linear_3798_4602)"/>
<path d="M87.4283 33.0258V89.6746C87.4283 91.7402 86.3085 93.6248 84.5065 94.5924C83.6944 95.0274 82.8088 95.2436 81.9258 95.2436C80.8471 95.2436 79.7723 94.9219 78.8431 94.285L60.3105 81.5932L41.7767 94.285C40.0866 95.4428 37.9165 95.5601 36.1145 94.5923C34.3112 93.6247 33.1914 91.7401 33.1914 89.6745V33.0258C33.1914 29.4807 36.0412 26.5959 39.5449 26.5959H81.0752C84.5786 26.5958 87.4283 29.4807 87.4283 33.0258Z" fill="white"/>
<path d="M75.4741 54.1182C71.8037 62.363 62.8785 66.8191 60.3161 67.9583C57.7511 66.8191 48.8285 62.3604 45.1606 54.1182C43.8946 51.2703 43.6755 47.6081 45.2726 44.9379C47.3128 41.5281 51.8901 39.938 55.5682 41.3606C57.7206 42.193 59.4221 43.9972 60.3161 46.1363C61.2127 43.9972 62.9142 42.1931 65.064 41.3606C68.7446 39.938 73.3218 41.5281 75.3621 44.9379C76.9592 47.6081 76.7401 51.2703 75.4741 54.1182Z" fill="url(#paint1_linear_3798_4602)"/>
<defs>
<linearGradient id="paint0_linear_3798_4602" x1="60.3849" y1="0" x2="60.3849" y2="122.199" gradientUnits="userSpaceOnUse">
<stop stop-color="#184BC0"/>
<stop offset="1" stop-color="#0B235A"/>
</linearGradient>
<linearGradient id="paint1_linear_3798_4602" x1="60.3174" y1="40.8398" x2="60.3174" y2="67.9583" gradientUnits="userSpaceOnUse">
<stop stop-color="#184BC0"/>
<stop offset="1" stop-color="#0B235A"/>
</linearGradient>
</defs>
</svg>
