<svg xmlns="http://www.w3.org/2000/svg" width="40" height="40" viewBox="0 0 40 40" fill="none"><rect width="40" height="40" rx="8" fill="#F7F0FF"></rect><path d="M24 24L27 16L30 24C29.13 24.65 28.08 25 27 25C25.92 25 24.87 24.65 24 24Z" stroke="#6638D9" stroke-width="1.5" stroke-linecap="round" stroke-linejoin="round"></path><path d="M10 24L13 16L16 24C15.13 24.65 14.08 25 13 25C11.92 25 10.87 24.65 10 24Z" stroke="#6638D9" stroke-width="1.5" stroke-linecap="round" stroke-linejoin="round"></path><path d="M15 29H25" stroke="#6638D9" stroke-width="1.5" stroke-linecap="round" stroke-linejoin="round"></path><path d="M20 11V29" stroke="#6638D9" stroke-width="1.5" stroke-linecap="round" stroke-linejoin="round"></path><path d="M11 15H13C15 15 18 14 20 13C22 14 25 15 27 15H29" stroke="#6638D9" stroke-width="1.5" stroke-linecap="round" stroke-linejoin="round"></path></svg>