<svg xmlns="http://www.w3.org/2000/svg" width="40" height="40" viewBox="0 0 40 40" fill="none"><rect width="40" height="40" rx="8" fill="#F7F0FF"></rect><path d="M23 29V21C23 20.7348 22.8946 20.4804 22.7071 20.2929C22.5196 20.1054 22.2652 20 22 20H18C17.7348 20 17.4804 20.1054 17.2929 20.2929C17.1054 20.4804 17 20.7348 17 21V29" stroke="#6638D9" stroke-width="1.5" stroke-linecap="round" stroke-linejoin="round"></path><path d="M11 17.9997C10.9999 17.7088 11.0633 17.4213 11.1858 17.1574C11.3082 16.8935 11.4868 16.6595 11.709 16.4717L18.709 10.4727C19.07 10.1676 19.5274 10.0002 20 10.0002C20.4726 10.0002 20.93 10.1676 21.291 10.4727L28.291 16.4717C28.5132 16.6595 28.6918 16.8935 28.8142 17.1574C28.9367 17.4213 29.0001 17.7088 29 17.9997V26.9997C29 27.5302 28.7893 28.0389 28.4142 28.4139C28.0391 28.789 27.5304 28.9997 27 28.9997H13C12.4696 28.9997 11.9609 28.789 11.5858 28.4139C11.2107 28.0389 11 27.5302 11 26.9997V17.9997Z" stroke="#6638D9" stroke-width="1.5" stroke-linecap="round" stroke-linejoin="round"></path></svg>