<svg xmlns="http://www.w3.org/2000/svg" width="20" height="24" viewBox="0 0 20 24" fill="none"><path d="M16.7045 12.7632C16.7166 11.8433 16.9669 10.9414 17.4321 10.1413C17.8972 9.34117 18.5621 8.66894 19.3648 8.18712C18.8548 7.47607 18.1821 6.8909 17.4 6.47809C16.6178 6.06529 15.7479 5.83622 14.8592 5.80907C12.9635 5.6148 11.1258 6.91653 10.1598 6.91653C9.17506 6.91653 7.68776 5.82836 6.08616 5.86053C5.05021 5.8932 4.04059 6.18731 3.15568 6.7142C2.27077 7.24108 1.54075 7.98277 1.03674 8.867C-1.14648 12.5574 0.482005 17.981 2.57338 20.9641C3.61975 22.4248 4.84264 24.0565 6.44279 23.9986C8.00863 23.9352 8.59344 23.0238 10.4835 23.0238C12.3561 23.0238 12.9048 23.9986 14.5374 23.9618C16.2176 23.9352 17.2762 22.4946 18.2859 21.0201C19.0377 19.9793 19.6162 18.8289 20 17.6117C19.0238 17.2086 18.1908 16.5339 17.6048 15.6717C17.0187 14.8095 16.7056 13.798 16.7045 12.7632Z" fill="white"></path><path d="M13.621 3.84713C14.5372 2.77343 14.9885 1.39335 14.8792 0C13.4796 0.143519 12.1867 0.796596 11.2582 1.82911C10.8043 2.33351 10.4566 2.92033 10.235 3.55601C10.0135 4.19168 9.92244 4.86375 9.9671 5.5338C10.6672 5.54084 11.3597 5.3927 11.9927 5.10054C12.6256 4.80838 13.1824 4.37982 13.621 3.84713Z" fill="white"></path></svg>