<svg xmlns="http://www.w3.org/2000/svg" width="20" height="20" viewBox="0 0 20 20" fill="none"><path d="M16.6669 13.3333V5.83329C16.6669 5.39127 16.4913 4.96734 16.1787 4.65478C15.8662 4.34222 15.4422 4.16663 15.0002 4.16663H5.00022C4.55819 4.16663 4.13427 4.34222 3.82171 4.65478C3.50915 4.96734 3.33355 5.39127 3.33355 5.83329V13.3333M16.6669 13.3333H3.33355M16.6669 13.3333L17.7336 15.4583C17.7978 15.5858 17.8282 15.7276 17.8219 15.8703C17.8156 16.0129 17.7727 16.1515 17.6974 16.2728C17.6221 16.3941 17.5169 16.494 17.3919 16.563C17.2669 16.6319 17.1263 16.6676 16.9836 16.6666H3.01689C2.87413 16.6676 2.73351 16.6319 2.60851 16.563C2.48351 16.494 2.37832 16.3941 2.30303 16.2728C2.22775 16.1515 2.18488 16.0129 2.17855 15.8703C2.17222 15.7276 2.20264 15.5858 2.26689 15.4583L3.33355 13.3333" stroke="#222533" stroke-width="1.5" stroke-linecap="round" stroke-linejoin="round"></path></svg>