<svg xmlns="http://www.w3.org/2000/svg" width="20" height="20" viewBox="0 0 20 20" fill="none"><path d="M10 1.66675C9.33696 1.66675 8.70107 1.93014 8.23223 2.39898C7.76339 2.86782 7.5 3.50371 7.5 4.16675V10.0001C7.5 10.6631 7.76339 11.299 8.23223 11.7678C8.70107 12.2367 9.33696 12.5001 10 12.5001C10.663 12.5001 11.2989 12.2367 11.7678 11.7678C12.2366 11.299 12.5 10.6631 12.5 10.0001V4.16675C12.5 3.50371 12.2366 2.86782 11.7678 2.39898C11.2989 1.93014 10.663 1.66675 10 1.66675Z" stroke="#222533" stroke-width="1.5" stroke-linecap="round" stroke-linejoin="round"></path><path d="M15.8327 8.33337V10C15.8327 11.5471 15.2181 13.0309 14.1241 14.1248C13.0302 15.2188 11.5464 15.8334 9.99935 15.8334C8.45225 15.8334 6.96852 15.2188 5.87456 14.1248C4.7806 13.0309 4.16602 11.5471 4.16602 10V8.33337" stroke="#222533" stroke-width="1.5" stroke-linecap="round" stroke-linejoin="round"></path><path d="M10 15.8334V18.3334" stroke="#222533" stroke-width="1.5" stroke-linecap="round" stroke-linejoin="round"></path></svg>