<svg xmlns="http://www.w3.org/2000/svg" id="Layer_1" viewBox="0 0 24 24"><defs><style>      .st0 {        fill: none;        stroke: #222533;        stroke-linecap: round;        stroke-linejoin: round;        stroke-width: 2px;      }    </style></defs><path class="st0" d="M13,7l-4.3-4.3c-.9-.9-2.5-.9-3.4,0l-2.6,2.6c-.9.9-.9,2.5,0,3.4l4.3,4.3"></path><path class="st0" d="M8,6l2-2"></path><path class="st0" d="M18,16l2-2"></path><path class="st0" d="M17,11l4.3,4.3c.9.9.9,2.5,0,3.4l-2.6,2.6c-.9.9-2.5.9-3.4,0l-4.3-4.3"></path><path class="st0" d="M21.2,6.8c1.1-1.1,1.1-2.9,0-4-1.1-1.1-2.9-1.1-4,0L3.8,16.2c-.2.2-.4.5-.5.8l-1.3,4.4c0,.3,0,.5.3.6,0,0,.2,0,.3,0l4.4-1.3c.3,0,.6-.3.8-.5l13.3-13.3Z"></path><path class="st0" d="M15,5l4,4"></path></svg>