<svg xmlns="http://www.w3.org/2000/svg" width="40" height="40" viewBox="0 0 40 40" fill="none"><rect width="40" height="40" rx="8" fill="#F7F0FF"></rect><path fill-rule="evenodd" clip-rule="evenodd" d="M26.0004 9.49561C26.3464 9.49561 26.6481 9.73108 26.7321 10.0668L26.9911 11.1018C27.1063 11.5627 27.3446 11.9838 27.6806 12.3197C28.0165 12.6556 28.4374 12.8939 28.8983 13.0091L29.9335 13.2682C30.2692 13.3522 30.5047 13.6538 30.5047 13.9999C30.5047 14.3459 30.2692 14.6476 29.9335 14.7316L28.8985 14.9906C28.4376 15.1058 28.0165 15.3441 27.6806 15.6801C27.3446 16.016 27.1063 16.4369 26.9912 16.8978L26.7321 17.933C26.6481 18.2687 26.3464 18.5042 26.0004 18.5042C25.6543 18.5042 25.3527 18.2687 25.2687 17.933L25.0097 16.898C24.8945 16.4372 24.6563 16.0161 24.3205 15.6802C23.9848 15.3443 23.5641 15.106 23.1034 14.9907C23.1034 14.9906 23.1035 14.9907 23.1034 14.9907L22.0674 14.7317C21.7317 14.6477 21.4961 14.346 21.4961 13.9999C21.4961 13.6538 21.7317 13.3521 22.0674 13.2681L23.1033 13.0092C23.1032 13.0092 23.1033 13.0092 23.1033 13.0092C23.5639 12.8938 23.9848 12.6555 24.3205 12.3196C24.6563 11.9837 24.8945 11.5629 25.0096 11.1021L25.2687 10.0668C25.3527 9.73108 25.6543 9.49561 26.0004 9.49561ZM24.6045 13.9999C24.888 14.1714 25.1511 14.3772 25.3875 14.6137C25.6236 14.8499 25.8291 15.1128 26.0004 15.3961C26.1718 15.1127 26.3775 14.8497 26.6138 14.6133C26.8502 14.377 27.1132 14.1713 27.3967 13.9999C27.1132 13.8285 26.8502 13.6228 26.6138 13.3864C26.3775 13.1501 26.1718 12.8871 26.0004 12.6037C25.8291 12.887 25.6236 13.1499 25.3875 13.3861C25.1511 13.6226 24.888 13.8284 24.6045 13.9999ZM17.0005 12.4956C17.3372 12.4956 17.6332 12.7189 17.7257 13.0427L18.5386 15.8886C18.5386 15.8886 18.5386 15.8886 18.5386 15.8886C18.7135 16.5005 19.0415 17.0578 19.4915 17.5078C19.9415 17.9578 20.4988 18.2857 21.1107 18.4607L23.9577 19.2747C24.2815 19.3672 24.5047 19.6632 24.5047 20C24.5046 20.3367 24.2814 20.6327 23.9576 20.7252L21.1117 21.5381C21.1116 21.5381 21.1117 21.5381 21.1117 21.5381C20.4998 21.713 19.9425 22.041 19.4925 22.491C19.0425 22.941 18.7145 23.4983 18.5396 24.1102C18.5367 24.1205 18.5335 24.1307 18.5302 24.1408L17.7257 26.9571C17.6331 27.2809 17.3372 27.5042 17.0004 27.5042C16.6636 27.5042 16.3676 27.2809 16.2751 26.9571L15.4621 24.1112C15.4621 24.1112 15.4621 24.1112 15.4621 24.1112C15.2872 23.4993 14.9593 22.942 14.5093 22.492C14.0593 22.042 13.502 21.714 12.8901 21.5391L10.043 20.7251C9.71925 20.6325 9.49605 20.3366 9.49609 19.9998C9.49613 19.663 9.71939 19.3671 10.0432 19.2746L12.8891 18.4617C12.889 18.4617 12.8891 18.4616 12.8891 18.4617C13.501 18.2867 14.0583 17.9588 14.5083 17.5088C14.9583 17.0588 15.2862 16.5015 15.4611 15.8896L16.2752 13.0425C16.3677 12.7188 16.6637 12.4956 17.0005 12.4956ZM17.0001 15.9949L16.9116 16.3042C16.9116 16.3042 16.9116 16.3042 16.9116 16.3042C16.6663 17.1625 16.2062 17.9443 15.575 18.5755C14.9437 19.2068 14.162 19.6668 13.3037 19.9121L12.9954 20.0002L13.3047 20.0887C13.3047 20.0886 13.3047 20.0887 13.3047 20.0887C14.163 20.334 14.9448 20.794 15.576 21.4253C16.2073 22.0565 16.6673 22.8382 16.9126 23.6966L17.0004 24.0038L17.0881 23.6967C17.0913 23.6856 17.0947 23.6745 17.0984 23.6636C17.346 22.8178 17.8024 22.0477 18.4258 21.4243C19.057 20.793 19.8387 20.333 20.6971 20.0877L21.0054 19.9996L20.6961 19.9111C20.6961 19.9111 20.6961 19.9111 20.6961 19.9111C19.8377 19.6658 19.056 19.2058 18.4248 18.5745C17.7935 17.9432 17.3335 17.1616 17.0881 16.3032L17.0001 15.9949ZM24.5004 22.9956C24.8251 22.9956 25.1134 23.2034 25.216 23.5115L25.61 24.6944C25.6834 24.9146 25.8071 25.1148 25.9713 25.279C26.1355 25.4432 26.3356 25.5669 26.5559 25.6403L27.7387 26.0343C28.0468 26.1369 28.2547 26.4252 28.2547 26.7499C28.2547 27.0746 28.0468 27.3629 27.7387 27.4655L26.5559 27.8595C26.3356 27.9329 26.1355 28.0566 25.9713 28.2208C25.8071 28.385 25.6834 28.5851 25.61 28.8054L25.216 29.9882C25.1134 30.2963 24.8251 30.5042 24.5004 30.5042C24.1756 30.5042 23.8874 30.2963 23.7847 29.9882L23.3908 28.8054C23.3174 28.5851 23.1937 28.385 23.0295 28.2208C22.8653 28.0566 22.6651 27.9329 22.4448 27.8595L21.262 27.4655C20.9539 27.3629 20.7461 27.0746 20.7461 26.7499C20.7461 26.4252 20.9539 26.1369 21.262 26.0343L22.4448 25.6403C22.6651 25.5669 22.8653 25.4432 23.0295 25.279C23.1937 25.1148 23.3174 24.9146 23.3908 24.6944L23.7847 23.5115C23.8874 23.2034 24.1756 22.9956 24.5004 22.9956ZM24.5004 25.8438C24.3844 26.0245 24.249 26.1929 24.0962 26.3457C23.9434 26.4986 23.775 26.6339 23.5943 26.7499C23.775 26.8658 23.9434 27.0012 24.0962 27.1541C24.249 27.3069 24.3844 27.4753 24.5004 27.656C24.6163 27.4753 24.7517 27.3069 24.9046 27.1541C25.0574 27.0012 25.2258 26.8658 25.4065 26.7499C25.2258 26.6339 25.0574 26.4986 24.9046 26.3457C24.7517 26.1929 24.6163 26.0245 24.5004 25.8438Z" fill="#6638D9"></path></svg>