<svg xmlns="http://www.w3.org/2000/svg" width="44" height="44" viewBox="0 0 44 44" fill="none"><rect width="44" height="44" rx="11" fill="#F7F0FF"></rect><path d="M26.5835 23.1459L32.5682 27.1356C32.6545 27.1931 32.7547 27.226 32.8582 27.2309C32.9617 27.2359 33.0646 27.2127 33.156 27.1638C33.2474 27.1148 33.3237 27.0421 33.377 26.9532C33.4303 26.8643 33.4584 26.7626 33.4585 26.659V17.2677C33.4585 17.1669 33.432 17.0679 33.3815 16.9806C33.331 16.8934 33.2584 16.821 33.171 16.7708C33.0836 16.7206 32.9844 16.6943 32.8836 16.6946C32.7828 16.695 32.6839 16.7219 32.5968 16.7727L26.5835 20.2813" stroke="#6638D9" stroke-width="2" stroke-linecap="round" stroke-linejoin="round"></path><path d="M24.2915 15.125H12.8332C11.5675 15.125 10.5415 16.151 10.5415 17.4167V26.5833C10.5415 27.849 11.5675 28.875 12.8332 28.875H24.2915C25.5572 28.875 26.5832 27.849 26.5832 26.5833V17.4167C26.5832 16.151 25.5572 15.125 24.2915 15.125Z" stroke="#6638D9" stroke-width="2" stroke-linecap="round" stroke-linejoin="round"></path></svg>