<svg xmlns="http://www.w3.org/2000/svg" width="40" height="40" viewBox="0 0 40 40" fill="none"><rect width="40" height="40" rx="8" fill="#F7F0FF"></rect><path d="M19 10V12" stroke="#6638D9" stroke-width="1.5" stroke-linecap="round" stroke-linejoin="round"></path><path d="M13 10V12" stroke="#6638D9" stroke-width="1.5" stroke-linecap="round" stroke-linejoin="round"></path><path d="M13 11H12C11.4696 11 10.9609 11.2107 10.5858 11.5858C10.2107 11.9609 10 12.4696 10 13V17C10 18.5913 10.6321 20.1174 11.7574 21.2426C12.8826 22.3679 14.4087 23 16 23C17.5913 23 19.1174 22.3679 20.2426 21.2426C21.3679 20.1174 22 18.5913 22 17V13C22 12.4696 21.7893 11.9609 21.4142 11.5858C21.0391 11.2107 20.5304 11 20 11H19" stroke="#6638D9" stroke-width="1.5" stroke-linecap="round" stroke-linejoin="round"></path><path d="M16 23C16 24.5913 16.6321 26.1174 17.7574 27.2426C18.8826 28.3679 20.4087 29 22 29C23.5913 29 25.1174 28.3679 26.2426 27.2426C27.3679 26.1174 28 24.5913 28 23V20" stroke="#6638D9" stroke-width="1.5" stroke-linecap="round" stroke-linejoin="round"></path><path d="M28 20C29.1046 20 30 19.1046 30 18C30 16.8954 29.1046 16 28 16C26.8954 16 26 16.8954 26 18C26 19.1046 26.8954 20 28 20Z" stroke="#6638D9" stroke-width="1.5" stroke-linecap="round" stroke-linejoin="round"></path></svg>