<svg xmlns="http://www.w3.org/2000/svg" width="40" height="40" viewBox="0 0 40 40" fill="none"><rect width="40" height="40" rx="8" fill="#F7F0FF"></rect><path d="M12.0005 22C11.8112 22.0007 11.6257 21.9476 11.4654 21.847C11.3052 21.7464 11.1767 21.6024 11.095 21.4317C11.0133 21.261 10.9818 21.0706 11.004 20.8827C11.0262 20.6948 11.1013 20.517 11.2205 20.37L21.1205 10.17C21.1947 10.0843 21.2959 10.0264 21.4075 10.0058C21.519 9.98515 21.6342 10.0031 21.7342 10.0565C21.8342 10.11 21.9131 10.1959 21.9578 10.3001C22.0026 10.4044 22.0106 10.5207 21.9805 10.63L20.0605 16.65C20.0039 16.8016 19.9849 16.9646 20.0051 17.125C20.0253 17.2855 20.0841 17.4387 20.1766 17.5715C20.269 17.7042 20.3923 17.8126 20.5358 17.8872C20.6793 17.9618 20.8387 18.0006 21.0005 18H28.0005C28.1897 17.9994 28.3752 18.0525 28.5355 18.1531C28.6958 18.2537 28.8242 18.3977 28.9059 18.5684C28.9876 18.7391 29.0192 18.9295 28.997 19.1174C28.9748 19.3053 28.8997 19.4831 28.7805 19.63L18.8805 29.83C18.8062 29.9158 18.705 29.9737 18.5935 29.9943C18.482 30.0149 18.3668 29.997 18.2668 29.9435C18.1667 29.89 18.0879 29.8041 18.0431 29.6999C17.9984 29.5957 17.9904 29.4794 18.0205 29.37L19.9405 23.35C19.9971 23.1985 20.0161 23.0355 19.9959 22.875C19.9757 22.7145 19.9168 22.5614 19.8244 22.4286C19.732 22.2959 19.6087 22.1875 19.4652 22.1129C19.3217 22.0382 19.1622 21.9995 19.0005 22H12.0005Z" stroke="#6638D9" stroke-width="2" stroke-linecap="round" stroke-linejoin="round"></path></svg>