<svg xmlns="http://www.w3.org/2000/svg" width="40" height="40" viewBox="0 0 40 40" fill="none"><rect width="40" height="40" rx="8" fill="#F7F0FF"></rect><path d="M22.4737 10.403L22.3344 10.2945C22.9359 9.94082 23.6232 9.75 24.3266 9.75C26.4905 9.75 28.2453 11.5048 28.2453 13.6687V13.7672C28.2453 14.3941 28.1025 15.0094 27.8239 15.5627L27.8226 15.5652L26.7229 17.7694C26.7226 17.77 26.7223 17.7706 26.7219 17.7712C26.477 18.2561 26.3102 18.7697 26.2139 19.2942L26.2132 19.298L24.4929 28.9447C24.4929 28.9448 24.4929 28.9448 24.4929 28.9449C24.462 29.1174 24.3124 29.2487 24.1313 29.2552C23.9604 29.2612 23.8034 29.1434 23.7631 28.9711L23.7624 28.9684L22.4077 23.2824L22.4073 23.2806C22.1391 22.1677 21.1456 21.3797 20 21.3797C18.8525 21.3797 17.8621 22.1691 17.5888 23.2821L17.5888 23.2821L17.5876 23.2871L16.2329 28.9731L16.2326 28.9744C16.192 29.1463 16.0318 29.2658 15.864 29.2598C15.6829 29.2534 15.5333 29.1221 15.5024 28.9496C15.5024 28.9495 15.5024 28.9495 15.5024 28.9494L13.7821 19.3027L13.7821 19.3027L13.7814 19.2989C13.6851 18.7744 13.5183 18.2608 13.2733 17.7759C13.273 17.7753 13.2727 17.7747 13.2724 17.7741L12.1743 15.5731C12.174 15.5726 12.1738 15.572 12.1735 15.5715C11.8954 15.0069 11.75 14.394 11.75 13.7719V13.4812C11.75 11.4205 13.4158 9.75469 15.4766 9.75469C16.2984 9.75469 17.0989 10.0285 17.7545 10.5323L17.7534 10.534L19.4876 11.8839L19.4878 11.884L20.6314 12.7746L20.6314 12.7746L20.6341 12.7766C21.2832 13.2774 22.2292 13.1727 22.7407 12.5097C23.241 11.8612 23.137 10.9162 22.4755 10.4044C22.4749 10.404 22.4743 10.4035 22.4737 10.403Z" stroke="#6638D9" stroke-width="1.5"></path></svg>