<svg xmlns="http://www.w3.org/2000/svg" width="21" height="20" viewBox="0 0 21 20" fill="none"><path d="M12.4157 3.3335H8.24902L6.16569 5.8335H3.66569C3.22366 5.8335 2.79974 6.00909 2.48718 6.32165C2.17462 6.63421 1.99902 7.05814 1.99902 7.50016V15.0002C1.99902 15.4422 2.17462 15.8661 2.48718 16.1787C2.79974 16.4912 3.22366 16.6668 3.66569 16.6668H16.999C17.4411 16.6668 17.865 16.4912 18.1775 16.1787C18.4901 15.8661 18.6657 15.4422 18.6657 15.0002V7.50016C18.6657 7.05814 18.4901 6.63421 18.1775 6.32165C17.865 6.00909 17.4411 5.8335 16.999 5.8335H14.499L12.4157 3.3335Z" stroke="#222533" stroke-width="1.25" stroke-linecap="round" stroke-linejoin="round"></path><path d="M10.332 13.3335C11.7127 13.3335 12.832 12.2142 12.832 10.8335C12.832 9.45278 11.7127 8.3335 10.332 8.3335C8.95132 8.3335 7.83203 9.45278 7.83203 10.8335C7.83203 12.2142 8.95132 13.3335 10.332 13.3335Z" stroke="#222533" stroke-width="1.25" stroke-linecap="round" stroke-linejoin="round"></path></svg>