<svg xmlns="http://www.w3.org/2000/svg" width="40" height="40" viewBox="0 0 40 40" fill="none"><rect width="40" height="40" rx="8" fill="#F7F0FF"></rect><path d="M14 30V12C14 11.4696 14.2107 10.9609 14.5858 10.5858C14.9609 10.2107 15.4696 10 16 10H24C24.5304 10 25.0391 10.2107 25.4142 10.5858C25.7893 10.9609 26 11.4696 26 12V30H14Z" stroke="#6638D9" stroke-width="1.5" stroke-linecap="round" stroke-linejoin="round"></path><path d="M14 20H12C11.4696 20 10.9609 20.2107 10.5858 20.5858C10.2107 20.9609 10 21.4696 10 22V28C10 28.5304 10.2107 29.0391 10.5858 29.4142C10.9609 29.7893 11.4696 30 12 30H14" stroke="#6638D9" stroke-width="1.5" stroke-linecap="round" stroke-linejoin="round"></path><path d="M26 17H28C28.5304 17 29.0391 17.2107 29.4142 17.5858C29.7893 17.9609 30 18.4696 30 19V28C30 28.5304 29.7893 29.0391 29.4142 29.4142C29.0391 29.7893 28.5304 30 28 30H26" stroke="#6638D9" stroke-width="1.5" stroke-linecap="round" stroke-linejoin="round"></path><path d="M18 14H22" stroke="#6638D9" stroke-width="1.5" stroke-linecap="round" stroke-linejoin="round"></path><path d="M18 18H22" stroke="#6638D9" stroke-width="1.5" stroke-linecap="round" stroke-linejoin="round"></path><path d="M18 22H22" stroke="#6638D9" stroke-width="1.5" stroke-linecap="round" stroke-linejoin="round"></path><path d="M18 26H22" stroke="#6638D9" stroke-width="1.5" stroke-linecap="round" stroke-linejoin="round"></path></svg>