<svg xmlns="http://www.w3.org/2000/svg" width="40" height="40" viewBox="0 0 40 40" fill="none"><rect width="40" height="40" rx="8" fill="#F7F0FF"></rect><path d="M28.2 14L11 19L10.1 16.6C9.79995 15.5 10.4 14.4 11.4 14.1L24.9 10.1C26 9.79995 27.1 10.4 27.4 11.4L28.2 14Z" stroke="#6638D9" stroke-width="2" stroke-linecap="round" stroke-linejoin="round"></path><path d="M14.2002 13.3L17.3002 17.2" stroke="#6638D9" stroke-width="2" stroke-linecap="round" stroke-linejoin="round"></path><path d="M20.4004 11.4L23.5004 15.4" stroke="#6638D9" stroke-width="2" stroke-linecap="round" stroke-linejoin="round"></path><path d="M11 19H29V27C29 27.5304 28.7893 28.0391 28.4142 28.4142C28.0391 28.7893 27.5304 29 27 29H13C12.4696 29 11.9609 28.7893 11.5858 28.4142C11.2107 28.0391 11 27.5304 11 27V19Z" stroke="#6638D9" stroke-width="2" stroke-linecap="round" stroke-linejoin="round"></path></svg>